<?xml version="1.0" encoding="UTF-8"?>
<svg id="Layer_1" xmlns="http://www.w3.org/2000/svg" version="1.1" viewBox="0 0 748 1200">
  <!-- Generator: Adobe Illustrator 29.4.0, SVG Export Plug-In . SVG Version: 2.1.0 Build 152)  -->
  <rect width="748" height="1200"/>
  <path d="M44,668V33h660v682l-1.72.37c-26.34-20.22-53.24-40.23-83.66-55.8-72.5-37.11-168.3-54-249.57-57.45-109.61-4.65-223.81,8.4-319.17,64.41l-5.88,1.48Z" style="fill: #fefefe;"/>
  <path d="M702,725c.84,1.45,2.25,2.51,2.06,4.45l-.06,94.55c-18.65-6.73-38.17-11.18-58-13l-5.17,1.61c-42.23-2.85-83.62,11.16-116.66,34.93l-2.17-.54-2.24.61c-16.43-17.58-34.63-33.22-54.59-46.93l-1.17-2.68c-3.57-1.51-6.57-3.51-9-6-1.69,2.25-3.58.21-4-2-87.43-48.36-187.88-69.5-288.23-69.38-39.44.05-77.88,2.55-115.81,11.08l-2.96-.7c0-6.08.5-13.09,0-19,.91-1.38,2.17-2.16,3.7-2.66,28.52-9.34,53.46-16.81,84.08-19.76,69.75-6.74,142.64,1.94,205.22,29.82,16.19,6.64,10.62,1.55-.93-4.13-48.98-24.1-116.25-35.36-171.08-34.31-14.65,2.17-20.18.71-16.59-4.4,57.54-2.96,119.96-2.58,173.61,13.43.64.01,1.43.1,2,0,1.05-.68,1.7-.23,2,1,.4.36,7.25-.25,9,0,1.9-2.18,2.78-1.94,3,1,2.22-.63,4.37-.08,6.5.57,28.86,8.74,57.66,19.61,85.28,31.72.55.24.91.91,1.22,1.71.27-.86.6-.85,1,0,4.97,2.16,9.64,4.82,14,8,2.59-1.62,12.01,2.82,12,6,2.27.33,3.6,0,4-1-2.91-.41-5.18-3.36-6-6-2.97-1.38-5.31-3.05-7-5-2.32,1.84-3.23.86-3-2-1.21.77-3.09-.83-4-2-1.37,1.1-2.03.43-2-2-5.39.28-13.31-2.05-16-7-1.1.73-1.81.31-2-1-1.74,2.28-5.53.94-5-2-10.76-3.6-22.79-8.16-33-13-.24,1.99-1.23,1.9-2,0-5.89-1.58-12.89-4.24-21-8-1.66,1.92-2.52,1.31-3-1-9.16-2.11-18.16-4.84-26.99-8.2-36.99-11.05-75.86-14.11-111.92-16.66-.55-.96-.75-2.06-.3-3.13.97-2.3,32.39-.8,37.69-.29,82.74,8.08,161.59,27.4,235.52,66.28,1.77-2.36,4.82-.83,4,2,1.87.31,3.2.98,4,2,.24-.87.58-.84,1,0,.76.38,1.43,1.05,2,2,.25-.88.58-.86,1,0,2.11.78,3.78,1.78,5,3,7.36.31,17.37,6.29,22,12,1.63.19,2.63.85,3,2,1.99-1.91,2.57-1.73,3,1,2.18.22,3.52-.45,4-2l-2.27-.1c-18.81-14.09-39.27-26.03-61.39-35.82l-1.35-2.08c-1.09.74-1.81.31-2-1-2.06.14-4.16.16-6.14-.5-9.6-3.18-21.08-7.55-28.86-13.5-1.1.3-1.83.24-2-1-2.71,1.63-4.12,1.03-5-2-1.17.29-1.78.29-2-1-2.25,2.23-5.6,1.19-6-2-3.01.19-5.99-.75-8-3-2.05,2.08-3.64,2.01-4-1-1.14.28-1.8.27-2-1-2.91,1.66-4.69,1.09-6-2-2.53.44-6.32-1.01-8-3-1.91,2.32-3.99,1.7-5-1-17.45-4.82-35.12-9.82-53-15-.32,2.67-.86,2.39-2,0l-4.42.45c-57.04-11.83-115.93-13.72-173.71-7.75-5.72-.26-5.28-3.92-.37-4.75,101.14-17.08,210.21-4.05,302.5,37.05.33-.87.67-.87,1,0,5.22,1.56,9.89,3.89,14,7,1.64-2.6,6.57.38,7,3,2.11.8,3.77,1.8,5,3,1.44-2.51,2.7-1.73,3,1,2.19.65,3.85,1.65,5,3,.27-.86.6-.85,1,0,2.14,1.24,4.14,2.58,6,4,.33-.86.66-.86,1,0,1.66.31,2.66.98,3,2,.27-.86.6-.84,1,0,.76.38,1.43,1.05,2,2,.25-.88.58-.86,1,0,2.08.75,3.75,1.75,5,3,1.29-2.6,2.88-1.75,3,1,2.1.83,3.77,1.83,5,3,1.67-2.12,2.23-1.64,2,1,1.71-.19,4.64,1.61,6,3,.31-1.87,1.1-1.75,2,0,6.99,1.85,8.66.52,5-4l-4.67-.65c-23.92-14.91-48.67-27.63-74.25-38.14l-1.07-2.21c-1.53-.45-2.53-1.11-3-2-2.1,1.95-5.13.45-6-2l-11.23-3.08c-61.41-23.94-130.68-35.83-197.8-33.88-5.99-3.92,3.36-5.81,7.25-6.04,67.86-4.08,131.28,2.09,197.36,18.86,70.5,17.89,131.33,50.78,193.15,87.18-3.98-6.35-12.97-12.3-20.57-16.81-47.64-28.22-97.51-52.73-151.19-69.09-105.1-32.03-215.8-36.76-320.96-9.15-.69,2.35-2.26,2.45-3,0-.31,1.19-.91,1.8-2,1-2.92,3.19-11.94,4.26-16,4-1.89-1.84,3.34-5.07,4.92-5.58,20.24-6.56,39.78-12.88,60.58-17.69,174.45-40.33,364.12,3.68,512.51,98.27Z" style="fill: #131811;"/>
  <path d="M479,817c1.36-1.36,1.93-.76,1,1,1.55.55,2.88,1.55,4,3l2.25-.3c10.14,8.69,20.08,17.68,28.55,28.35l.2,2.95v2.52c-29.16,23.3-55.28,55.99-61.37,93.58-1.22,4.92-6,12.01-10.63,12.9l-2.67.11c-6.16-5.41-12.77-10.22-19.85-14.42l-.48-2.69c-.82,1.55-2.19.69-2-1-2.81,1.66-2.94,1-3-2-2.44.33-6.18-1.56-7-4-2.26,1.98-3.18,1.03-3-2-1.78.66-5.94-1-6-3-2.02,2.16-3.27.84-3-2-.97.26-1.89.4-2.65.1-3.49-1.34-18.95-8.39-20.71-9.94-.67-.59-1.18-1.35-1.64-2.17-1.81,2.35-4.53.8-4-2-1.37,1.52-2.78,1.05-3-1-1.73,2-2.39,1.66-2-1-2.44,1.05-6.8-.55-8-3-.84-.23-1.51-.89-2-2-.12.47-.28.91-.54,1.26-.51.67-15.01-4.95-15.28-5.75-.16-.47-.18-.98-.18-1.51-1.12.29-1.87.22-2-1-1.15,1.79-3.15,1.04-3-1-1.31.54-3.4-.55-4-2-1.53,1.88-3.54,1.33-4-1-8.57-3.32-17.24-6.99-26-11-1.5,1.72-3.88,1.35-4-1-3.48.13-8.38-1.48-11-4-1.86,1.63-2.36,1.28-3-1-1.85,1.2-6.01-2.14-4.81-3.7s27.65-4.62,31.31-5.02c21.49-2.33,44.04-4.72,65.5-4.28.3-1.91,1.09-1.8,2,0,12.99-2.18,28.04-1.22,41,1,.73-.46,1.46-.88,2.25-1.17,4.8-1.78,41.94,5.77,49.99,7.63l3.76,2.54c3.1.14,5.42-.4,5-4l-2.27.26c-6.05-2.31-12.41-4.43-19.08-6.35-9.85-11.19-20.71-22.05-33.76-29.51l-.89-2.4c-1.78-.47-2.6-1.16-3-3-1.8,2.09-2.57,1.53-3-1-1.05.76-1.41.25-1-1-2.28,1.72-6.32-1.59-7-4-2.11-.65-5.47-2.04-7-4-1.43,1.43-2.28,1.01-2-1-1.3.35-3.39-.73-4-2-.19.88-.53.84-1,0l-8-5c-2.45,1.23-3.92-.68-4-3-1.17,1.54-3.36.68-4-1-.27.87-.61.85-1,0l-13.3-6.42-.7-1.58c-1.66,2.03-2.33,1.7-2-1-13.11-3.76-26.64-8.35-39.61-13.41-.82-.32-1.56-.88-2.29-1.48s-1.45-1.35-2.1-2.11c-1.16.27-1.79.28-2-1-4.87,1.43-9.84-.07-13-4-1.28.65-2.9.42-3-1-2.66,2.24-6.77,1.31-8-2-2.34.56-5.62-.17-7-2-3.23,1.98-6.1,1.29-8-2-1.35.31-2.01-.02-2-1-.56,1.9-1.43,1.91-2,0-16.2-2.94-32.54-6.27-49-10-1.4,2.66-3.3,1.84-4-1-.92,1.45-3,1.61-4,0-1.74,2.03-2.56,1.64-3-1-.16,1.56-2.54,1.45-3,0-1.09,2.54-1.84,2.52-3,0-2.05,1.48-6.47.61-8-1-.97,2.88-6.88,1.96-7-1-2.59,1.52-7.42,1.55-10,0-1.65,2.95-6.29,2.83-8,0h-13.36s-.64-1-.64-1c-4.64,3.01-11.76,2.39-17,1-.66.03-1.34-.04-2,0-.66,1.53-3.32,1.49-4,0-.66.04-1.34-.04-2,0-.12,1.83-1.89,2.45-3,1-13.52.94-26.87,1.33-40.42,3.08-14.63,1.89-29.17,4.91-43.58,7.91-.04-10.32.04-20.68,0-31,9.55-5.43,23.11-7.45,34.31-8.9,112.74-14.57,234.24,1.69,337.11,49.27,22.49,10.4,45.26,22.2,63.59,37.63Z" style="fill: #121811;"/>
  <path d="M179,1040c.83-3.07,4.98-2.2,5,1,2.99-.31,6.37,1.59,8.98,3.11,16.06,9.35,33.37,22.57,48.02,33.89,2.68-.29,2.8.01,1,2-.3.8-.64,1.58-1.09,2.29s-.88,1.32-1.47,1.71c-26.29,17.25-52.93,34.94-75.94,55.76-4.14,5.58-1.58,5.1,7.67-1.43,23.33-19.94,49.09-36.16,74.76-52.23l3.08-.09c.31-2.69.89-2.42,2,0,9.61,5.52,18.09,12.69,26,20,2.32-1.47,3.05-.51,2,2,14.6,9.93,28.27,20.93,41,33,2.61-1.26,3.65.84,2,3-.59.79-1.2,1.56-1.91,2.22s-1.38,1.25-2.17,1.61c-14.1,6.31-28.98,12.5-42.92,18.17-1.22-.21-3.78,1.49-5.45,1.05l-225.55-.05c0-35.65.02-71.35,0-107l3.29-2.44c30.74-8.11,61.3-13.04,93.33-17.22,9.26-1.21,28.51-3.27,37.71-1.38.28.06.49.5.67,1.04Z" style="fill: #121710;"/>
  <path d="M703,979c.32,1.31,1.46,2.71,1.04,4.44l-.04,112.56-.3.97c-38.32-4.31-80.51-5.35-118.03,9.52-4.11,1.37-8.98.4-8.67-4.49-4.37.88-6.68-1.55-9-5-4.05,1.26-12.38-2.02-14-6l-5.83-.2c-9.58-3.76-19.38-6.87-29.24-9.83l-2.93-2.97c-1.28.65-2.88.42-3-1-3.78,1.85-7.81.57-10-3-1.41.5-3.74.62-4-1-4.35,1.8-9.01.63-12-3-1.39.53-3.69.59-4-1-1.87,2.44-4.22,1.99-5-1-1.32,1.55-3.3.71-4-1-1.38,2.64-4.35,1.59-5-1-1.12.48-2.8.4-3-1-1.49,2.58-6.66,2.13-7-1-4.94.31-10.85-.79-15-3-1.9,2.1-2.73,1.79-3-1-.9,1.38-2.09,1.38-3,0-.79,2.97-2.68,2.48-4,0-2.03.34-3.36,0-4-1-.57,1.89-1.44,1.88-2,0-2.61.2-6.34.2-8-2-2.95,2.68-11.72,2.39-14-1-1.81.53-5.28.74-6-1-1.12,2.77-5.69,1.87-6-1-.7,1.46-2.3,1.46-3,0-1.18,2.48-1.91,2.51-3,0-2.66-.32-2.54-1.24,0-2,.05-2.79,2.35-2.74,3,0,.44-.52.88-.93,1.34-.94,13.41-.45,30.25-.07,43.77.54,28.85,1.3,58.05,2.99,86.68,4.96,8.01.55,17.99,2.29,25.21,4.45.56-1.92,1.44-1.92,2,0,5.11.82,9.78,2.15,14,4,4.04-1.91,8.47-.68,11,3,1.09-.23,1.85-.27,2,1,3.46-2.03,8.17-.54,10,3,2.29-.79,4.36-.81,6.2-.07-2-.88-3-1.55-3.2-3.93l-2.19,1.13c-11.19-4.86-22.7-9.86-34.73-12.18l-1.08-1.95c-1.27.41-2.82.4-3-1-.56,1.92-1.44,1.92-2,0-2.76-.1-5.1-.77-7-2-.31,1.89-1.1,1.78-2,0-45.39-5.33-93.9-7.19-140.76-7.5-2.54-.02-4.95-.26-7.24-1.5-1.47,2.54-2.53,2.53-4,0-.76,1.8-3.88,2.61-5,1-1.58,2.84-4.39,2.78-6,0-1.55,1.37-17.07,2.15-17.65,1.45-2.38-2.82.82-4.16,4.28-5.06,28.3-7.33,66.51-8.96,95.94-8.97,62.83-.02,125.6,6.54,184.96,23.93l16.65,3.58c5.46-.87,6.5-1.72,3.1-2.54l-.27-2.4c-2.2,1.15-5.24.59-9.11-1.67-3.27-.31-5.57-1.42-6.89-3.33-1.86-.05-5.09-.45-6-2-1.12,2.72-4.98,1.47-6-1-1.12.49-2.81.4-3-1-2.11,2.34-3.98,2-5-1-1.36.31-2.03-.02-2-1-.56,1.87-1.44,1.87-2,0-1.9.23-4.82-.47-6-2-.8,2.72-3.2,2.74-4,0-4.97-1.02-9.64-2.36-14-4-1.16,2.46-1.89,2.48-3,0-1.09.32-2.6.41-3-1-1.54,2.59-6.12,1.7-7-1-.97.65-2.81.3-3-1-.88,2.84-1.52,2.4-3,0-17.42-2.36-35.12-4.28-53.09-5.76l-2.91-1.24c-.6,2.7-1.77,2.45-3,0-4.78,1.18-9.85.94-15.2-.71-7.15.34-13.75-.42-19.8-2.29-1.13,2.55-1.86,2.55-3,0-2.28,1.2-4.68,1.51-7.21,1.49-35.51-.22-70.15-.22-104.68,8.18-2.46.79-5.09-2-3.92-3.75s20.47-6.36,25.09-7.44c59.36-13.83,119.23-17.39,177.72-7.48.74-2.84,3.23-2.77,4,0,3.59-.05,9.21.4,12,2,.57-1.9,1.44-1.9,2,0,2.37-.44,4.04-.11,5,1,.57-1.9,1.44-1.89,2,0,2-.52,3.33-.18,4,1,.72-3,7.06-1.66,8,1,1.11-.5,2.78-.39,3,1,1.55-2.67,6.39-2.12,7,1,1.35-.31,2.02.02,2,1,.93-2.59,2.08-2.6,3,0,1.09-.32,2.69-.4,3,1,4.13-2.17,10.35-.78,13,3,1.08-.23,1.87-.27,2,1,4.41-1.92,10.02-.76,13,3,1.07-.18,1.89-.2,2,1,.92-2.79,6.05-2.01,6,1,1.07-.18,1.89-.18,2,1l1.56-1.69c6.94,1.95,13.97,3.49,21.06,4.62l1.38,2.07c1.8-1.31,2.21-1.62,2-4-1.67.68-3.37.11-5.11-1.7-47.2-18.09-99.07-23.66-149.53-29.01-.92-.1-1.81-.44-2.71-.82s-1.79-.91-2.65-1.47c-.52,1.48-2.48,1.48-3,0-.49,2.89-7.38,2.75-8,0-.92.58-1.76.15-2-1l-4.23,1.83c-5.38.38-26.62,1.13-29.7-.43-.74-.37-1.41-.87-2.07-1.4-1.99,1.16-2.41.5-2.13-1.74.44-3.61,44.67-18.5,52.89-21.06,45.59-14.16,95.34-21.61,142.36-10.88,10.45,2.39,22.57,5.45,30.89,11.67Z" style="fill: #121811;"/>
  <path d="M640,893c.53-1.61,3.13-1.38,4,0,20.62,2.07,40.89,8.1,59.54,16.96l.31,61.39c-.16.6-.72.51-.85.65-5.91-.32-11.72-1.94-17.41-4.85-71.75-20.83-153.72-2.91-216.8,34.01l-1.79-.16c-1.25,2.67-8.54,3.83-10,1-4.06,1.73-9.52,3.12-14,2-.41,2.67-1.19,2.53-2,0-3.03,1.76-6.7,2.42-11,2-.23,2-1.23,1.92-2,0-.42,1.78-7.71,2.26-8.53,1.48-3.53-3.35,14.41-26.98,16.73-29.96,2.08-3.84,4.68-6.01,7.8-6.52-2.05-2.02.39-5.26,3-4,.32-1.75.73-3.58,1.87-4.99,21.04-26.22,67.65-48.06,99.42-57.89,18.95-5.87,48.18-13.08,67.75-12.8,1.78.03,3.43.84,4.96,1.69,1.33-.07,2.67.05,4,0,.77-1.44,2.86-2.44,4-1,2.94-.28,7.56.77,11,1Z" style="fill: #131811;"/>
  <path d="M645,816c11.34.55,24.14,2.71,35.21,5.29,7.9,1.84,16.91,4.02,23.79,8.21v75.5l-19.47-8.03c-22.93-8.3-43.14-10.66-67.53-9.97l-3.96,2.15c-53.61,4.2-109.75,20.19-151.12,55.5-2.17,1.59-3.36.81-4.88-1.08s7.84-23.59,9.82-27.58c26.05-52.38,85.62-90.01,142.43-99.68,6.64-1.13,29.19-4.32,33.82-1.72.68.38,1.29.88,1.89,1.41Z" style="fill: #131811;"/>
  <path d="M674,1160c.36.13,1.02,1.23,2,1,3.07.74,6.63,2.77,9,5-.27,1.69-2.21.88-3.5,1h-388.5c-.46-.83-.6-1.68-.29-2.56.8-2.25,37.41-15.8,43.96-18.2,50.41-18.49,99.17-28.52,153-29.63,63.34-1.3,130.86,9.79,184.34,43.38Z" style="fill: #121811;"/>
  <path d="M132,769c6.48-1.18,15.57-.85,22.65-.22.48.04.92.56,1.35,1.22,1.99-.43,3.33-.09,4,1,1.09-2.21,3.84-2.03,5,0,1.56-.29,2.56.04,3,1,.73-2.77,2.75-2.32,4,0,2.36-.39,4.03-.06,5,1,1.48-2.52,2.52-2.51,4,0,3.27-.08,5.94.58,8,2,2.08-2.4,3.97-1.99,5,1,.41-.5.8-.87,1.1-.81,10.25,1.94,21.65,4.28,30.9,7.81.24-1.98,1.24-1.89,2,0,15.22,3.55,31.45,7.98,46,14,.55-1.92,1.44-1.94,2,0,5.72,2.66,12.38,5.66,20,9,2.05-1.89,2.86-1.82,3,1,2.41-.08,5.58,1.06,7,3,1.27-2.63,2.81-1.68,3,1,7.72,2.72,15.25,6.98,22,11,.27-.87.61-.85,1,0,3.11,1.24,5.78,2.91,8,5,.24-.86.58-.84,1,0,1.49.42,2.49,1.08,3,2,1.8-1.58,1.84-1.33,2,1,1.51.39,2.51,1.05,3,2,1.76-2.23,4.68-.84,4,2,2.35.38,4.01,1.38,5,3l2.08-1.09,16.33,8.61c2.6.86,3.79,2.36,3.59,4.48,2.71,1.24,3.37.91,2-1-22.34-16.93-46.57-31.24-72.67-42.92l-1.33-2.08c-1.4.52-3.55-.5-4-2-3.3,1.54-5.83.45-7-3-1.83.56-4.2-.21-5-2-1.73,2.55-3.91.79-4-2-1.15.37-2.62.18-3-1-2.96,1.29-12.32-1.69-13-5-1,.78-2.82.43-3-1-1.39,2.46-7.83.92-8-2-12.05-3.47-23.71-7.13-35-11-.69,3-2.9,2.04-2-1-.04-.53-.02-1.02.19-1.4,2.75-4.76,102.99,22.91,105.81,27.4.84-2.69,2.08-2.71,3,0,4.04,1.93,8.04,3.93,12,6,.24-.86.58-.84,1,0,1.54.52,2.88,1.18,4,2,.57-1.92,1.46-1.95,2,0,2.81,1.75,5.81,3.42,9,5,1.43-1.43,2.27-1.01,2,1,3.55.43,5.88,1.77,7,4,1.14-1.74,3.11-1.09,3,1,3.77.83,8.6,3.55,12,6,1.17-1.63,1.53-.75,2,1,.26-.86.6-.84,1,0,1.61,1.59,3.28,2.92,5,4,1.27-2.54,3.37-1.3,4,1,.87.28.86.62,0,1l1.33.47c.91-2.75,5-1.54,3.67,1.53.84.14,1.51.81,2,2,2.25-2.22,5.11.73,6,3,.96.26,1.63.92,2,2,.33-2.68,1.2-2.54,2,0,2.97,2.43,5.97,4.76,9,7l2.51-.25c2.62,1.71,19.59,14.31,19.61,15.63.04,2.1-.42,2.76-2.56,3.42-20.87-3.95-42.48-4.95-64.46-4.85l-6.11-1.95c-.69,1.48-2.31,1.47-3,0-2.27,3.04-9.4,3.87-12,1-.53,1.54-3.43,1.49-4,0-.71,2.87-3.24,2.79-4,0,.04,1.19-.94,1.44-2,1-1.14,2.55-1.89,2.55-3,0-.81,1.12-2.48,1.46-5,1-1.54,2.64-2.44,2.69-4,0-.38.55-.77.99-1.21,1.04-4.6.58-12.73,1.31-17.28,1.38-1.19.02-2.36-.05-3.5-.42-.56,1.92-1.44,1.91-2,0-.97,1.49-3.01,1.43-4,0-1.82,2.86-6.57,3.14-9,1-1.15,1.13-3.15,1.47-6,1-.35,2.22-2.09,2.03-3,0-.29,1.37-1.84,1.31-3,1-.72,2.8-2.69,2.5-4,0,.11,1.64-2.67,1.52-3,0-2.91.62-5.72-3.53-4-6-3.2.59-5.4-1.96-5-5-.68-.08-4.84-1.54-5.58-1.97-1.6-.91-10.3-6.14-11.08-6.84l-.34-2.19c-1.8-.73-3.13-1.73-4-3-1.7,2.36-4.8-.67-5-3-55.41-26.52-116.34-50.74-178.16-54.92-1.85-1.17-1.15-2.48-.19-4.25,1.17-2.16,34.63-2.98,40.28-2.85,72.21,1.55,138.03,32.38,199.14,67.65-1.96-3.48-5.12-6.23-8.32-8.7-20.47-15.78-54.96-31.18-79.05-40.71-32.29-12.78-63.83-19.83-97.75-22.99l-.95-2.2c4.51-.13,8.59-1.29,13-1Z" style="fill: #121710;"/>
  <path d="M44,855c1.23-1.18,2.64-1.49,4.27-1.49,60.14.11,122.04,7.84,180.79,21.52,4.39,2.43.97,4.53-10.26,6.31-63.79,15.61-120.75,49.44-172.72,83.71l-2.08-1.05c-.03-36.32.02-72.68,0-109Z" style="fill: #121710;"/>
  <path d="M251,851c.26-.86.6-.84,1,0,2.64,2.12,5.3,4.12,8,6,1.34-1.31,1.9-.69,1,1,1.95-1.8,3.75-.56,3,2,1.66.19,2.66.86,3,2,1.75-2,2.46-1.58,2,1,3.68.9,8.88,5.65,3,6-1.14,1.48-3.83,1.4-5,0-.32,2.76-1.3,3.31-3,1-.02,1.56-2.68,1.46-4,1,0,1.94-1.67,2-3,1-.4,3.06-7.34,2.93-8,0-1.31,1.27-1.99.9-2-1-18.85-4.89-37.84-9.19-57.33-12.22-43.27-6.73-89.39-12.58-133.48-10.8l-3.19-.98c-.95,2.92-4,2.86-5,0-.94,1.46-2.05,1.46-3,0-.28.87-.62.86-1,0,1.85-13.89-.88-32.34,0-47,1.14-1.69,2.92-1.74,5.35-.14,43.08,10.69,86.82,26.22,126.09,41.9,2.98-5.68-52.77-25.25-58.18-27.08-21.3-7.19-43.13-13.52-64.88-19.44-2.9-.54-3.05-2.08-2.23-4.67,1.35-4.32,38.39,1.29,44.66,2.34,55.01,9.21,110.77,28.19,156.19,58.09Z" style="fill: #121710;"/>
  <path d="M145,645c1.03-1.66,2.75-1.66,4.38-2.12,52.59-15.08,122.04-21.49,176.1-16.86,75.92,6.5,147.71,22.86,216.76,55.24,25.64,12.02,56.35,27.68,80.1,42.9,6.57,4.21,13.34,8.76,17.59,15.42-.84,4.45-4.82,1.6-7.25.24-40-22.41-77.29-45.34-120.15-62.85-75.26-30.74-184.3-48.49-265.06-40.98l-9.48,2.01c8.82.29,17.73-.35,26.54-.04,53.68,1.91,107.26,11.34,157.98,29.02l26.47,10.03-1.4,1.96c-3.8-.29-7.57-1.13-11.24-2.27l23.95,9.53c2.1,1.49,2.16,3.01-.32,3.78-9.85-2.28-19.2-7.41-28.79-10.71-87.93-30.33-181.15-39.56-273.49-25.06-.84.13-3,.51-2.72,1.77,4.83-.22,9.69-.59,14.52-.97,58.14-4.55,109.27-1.46,166.48,9.98,2.71,1.36,1.89,3.97-1.48,4.03-69.28-14.97-141.99-14.45-211.94-3.34-4.21,1.22-6.08.37-5.61-2.56,0-1.84,23.51-9.13,27.04-9.13.66.04,1.34-.04,2,0,22.46-7.04,47.48-9.63,71.4-11.02-2.21-1.08-4.31-2.51-5.81-4.58-12.25.88-25.11,2.08-38.59,3.6-.66-.04-1.34.03-2,0-1.39,1.03-3.72,1.37-7,1-.33-.1-1.94-.08-2,0,.23,1.28-.91,1.38-2,1-.87-.15-2.03.02-3,0-.05,1.46-1.84,1.28-3,1-.61-.09-1.35.01-2,0-.29,1.37-1.84,1.33-3,1-.84-.19-2.06.13-3,0-1.49,1.48-2.08.87-1-1Z" style="fill: #020202;"/>
  <path d="M704,715l1,2c-.99-.02-2.01.06-3,0-191.41-117.1-451.93-157.99-653.14-41l-3.86,1c-.28.87-.62.86-1,0,1.07-1.01-1.56-7.76,0-9,20.64-13.97,43.31-24.29,66.74-32.76,53.5-19.36,106.75-31.29,163.75-34.25,72.35-3.77,140.6-1.45,211.73,13.31,78.22,16.23,137.04,36.96,200.28,86.72,5.85,4.6,11.13,10.19,17.51,13.99Z" style="fill: #262924;"/>
  <path d="M702,717c-2.13-.12-4.69-.82-6.4-2.12-4.87-3.71-7.81-4.69-13.28-7.69-13.3-7.29-30.41-18.72-44.26-23.74-1.36-.49-3.42-1.45-3.06,1.05,5.91,2.76,11.38,6.83,17.07,9.94,14.43,7.87,29.16,15.57,42.61,24.58,1.66,1.11,4.83,1.99,6.32,3.53,1.09,1.13.73,1.99,1,2.46-4.97-1.99-10.06-5.07-14.69-7.81-165.06-97.81-373.61-136.29-557.57-70.95l-5.74,3.77c-2.3,1.68-25.66,8.88-26.86,8.1l-1.2-2.12c-16,6.81-31.86,14.38-46.94,22.03-.32.02-.68.02-1,0-1.18,2.51-3.99,2.04-3-1,32.46-20.2,68.58-36.51,105.21-48.29,84.31-27.11,177.94-28.72,265.21-17.63,96.77,12.3,199.47,50.48,281.89,102.11,1.65,1.03,3.79,2.02,4.69,3.81Z" style="fill: #030302;"/>
  <path d="M114,770c.4.47.73.47,1,0,1.31.08,2.69.04,4,0l10.58,1.92c46.31,2.65,89.69,19.97,130.64,40.36,11.45,5.7,41.22,20.68,46.61,31.39.73,1.46,1.5,2.54,1.17,4.33-.54.57-8.38-4.07-9.68-4.81-69.96-39.8-140.86-70.79-223.73-63.1l-9.58,1.91c5.22.57,11.33.45,16.41,1.09,46.31,5.88,110.27,27.61,151.61,49.39,3.73,1.97,7.59,3.99,10.98,6.52-.32,2.12-2.03,2.31-5.14.57l6.27,3.81c6.27,2.22,8.22,4.76,5.87,7.62-7.75-2.15-23.64-13.1-32.3-17.2-46.4-21.98-107-39.73-158.18-42.81-2.26-.14-4.57-.1-6.8.25-.85.13-3.01.49-2.72,1.76,13.75,2.34,26.72,7.45,39.95,11.55,24.22,7.51,61.57,17.52,81.99,32.01,2.13,1.51,5.56,4.62,5.05,7.45-2.23,2.18-24.76-9.15-28.78-10.71-32.83-12.67-66.64-22.11-100.47-31.52-1.63-.45-2.95-1.74-4.74-1.76.18-3.06,1.94-1.63,2.05-2.51-.04-2.85-2.54-3.71-2.09-6.96.39-2.84,4.78-3.55,2.17-7.93l2.14-1.84c6.17-.93,12.47-3.33,18.45-4.54,14.3-2.9,33.74-7.04,47.28-6.22Z" style="fill: #020302;"/>
  <path d="M546,1095c1.47-2.39,2.8-1.59,3,1,1.5.42,2.5,1.08,3,2,1.85-3.18,10.35.7,10,4,.43-.43.85-.76,1.19-.69,3.65.69,10.82,2.25,12.81,4.69,2.3-.86,3.36.62,2.3,2.81-.7,1.44-10.06,3.69-12.3,4.19-.8.03-2.11,1.23-4,1l-3.26.96c-36.57-3.43-74.19-5.71-110.2-1.83l-1.55-2.13c.16,2.22-.97,2.43-2.81,1.33-.96-.58-15.04-13.72-16.42-15.27l-.77-3.06c-8.93-3.54-19.8-8.45-26-16-13.16-6.25-26.63-11.97-40.41-17.15-.05-.67-.04-1.31.2-1.84.9-1.97,32.29,2.07,35.15,2.49,52.52,7.62,97.54,14.36,147.75,31.9.85.3,1.59.91,2.31,1.61Z" style="fill: #121710;"/>
  <path d="M44,980l4.21-.16c38.52,11.34,78.95,27.5,114.19,47.1,4.31,2.4,6.65,4.29,2.2,6.99-39.87,1.3-79.04,9.59-117.31,20.52l-3.28-.46c-.01-24.65.02-49.35,0-74Z" style="fill: #121710;"/>
  <path d="M44,855c-2.52-3.24.28-4.48,3.94-4.55,60.85-1.13,127.39,7.19,184.95,22.26,3.28.79,2.8,4.74,2.19,7.45-40.69,10.68-81.84,25-119.21,45.72,39.9-21.8,81.12-34.25,122.71-45.41l5.42.52c.61-2.86,5.02-2.63,6,0,2.09.01,2.06,1.6,0,2l-1.55,2.18c-70.1,13.96-136.72,48.75-199.14,86.46,23.8,6.47,46.86,15.36,69.47,25.27,8.22,3.6,58.74,26.53,60,29.63.34.85-.14,1.75-.78,2.45l-.92,2.06c-6.35-.67-8.36,4.86-.89,4.92,3.61-.45,6.64,2.3,2.81,4.02-5.84-.49-15.27.57-21.52.98-24.94,1.63-50.24,5-74.75,10.25-12.9,2.77-25.55,7.35-38.73,8.77,0-2.07,0-4.38,0-6,18.45-5.2,36.9-11.07,55.76-14.74,20.67-4.02,41.75-5.62,62.73-7.28,1.49-.12,2.9.82,2.51-1.48-38.93-19.74-78.91-38.4-121-50.51,0-5.32,0-10.68,0-16l44.32-28.18c44.14-25.32,90.53-47.4,140.69-57.82.22-2.37.17-1.64-1.42-2.07-31.34-8.34-61.1-11.19-93.11-14.91-17.17-1.99-34.69-5.1-51.96-6.04-12.62-.69-25.84.55-38.52.02Z" style="fill: #020302;"/>
  <path d="M704,1106v61c-3.19-.02-4.68-2.1-8-3-1.45-.36-2.45-1.03-3-2-.54-1.06-19.83-11.22-21-11-1.17.76-1.77.31-2-1-.66-1.86-3.09-1.42-4-2-2.09-.59-3.76-1.59-5-3-.32-.05-.67.03-1,0-1.43-.39-2.43-1.05-3-2-.33-.03-.67.03-1,0-3.24-.87-5.91-2.2-8-4-1.25-.53-2.39-.73-3-1-19.93-7.72-42.22-14.84-63.97-19.97-1.72-4.31,6.55-6.76,10.11-7.67,30.92-7.92,54.11-11.2,86.26-9.65,8.15.39,20.18,1.11,26.6,5.29Z" style="fill: #121811;"/>
  <path d="M44,712c0-.1-1.15-.56-.89-1.32.73-2.85,6.92-3.57,9.43-4.65,7.41-3.2,13.07-4.93,20.45-7.55,3.63-1.29,9.79-3.12,11.01-6.98-.54-2.69-10.18-.81-12.28-.29-2.64.65-7.1,3.41-9.23,3.77-3.03.51-6.45.01-9.48,1.01-.33-2.24,1.78-3.26,3.3-4.19,6.81-4.18,17.25-7.08,24.96-9.04,3.04-.77,9.58-4.89,8.77,1.2,9.89-.97,19.62-4.32,29.55-5.88,54.7-8.56,146.2-6.27,199.19,9.68,1.77.53,3.81-.79,3.22,2.24-7.62-.13-19.41-4.54-27.59-5.91-11.4-1.92-23.37-2.99-34.83-4.17-35.98-3.69-72.81-3.72-109.09-1.92-1.64.08-2.8.88-1.48,2,11.4-1,23.05-1.54,34.54-1.04,47.77,2.05,95,10.37,139.44,28.56,8.06,3.3,19.38,7.49,25.53,13.47,1.17,1.13,2.78,2.17,2.47,4.02-2.56,2.28-34.33-11.81-39.73-13.76-54.68-19.77-114.85-24.46-172.75-20.22-17.49,1.28-34.78,3.94-51.78,8.22-14.36,3.61-28.24,9.57-42.74,12.76Z" style="fill: #020302;"/>
  <path d="M646,811l-1,5c-74.92-3.61-165.41,50.27-185.54,124.96-.24.88-1.17,2.67.04,3.04,6.28-4.68,12.08-10.03,18.57-14.43,36.22-24.59,95.43-41.35,138.94-42.56-1.39,4.9,4.6,2.13,4,6-60.74,3.34-132.78,27.59-174,74-2.98,0-8.21-4.36-4-6,1.45-3.65,5.56-6.13,7.21-9.29,2.28-4.38,2.01-9.41,3.24-13.76,9.35-33.25,30.18-58.9,55.53-81.47,1.84-1.63,4.13-2.9,6.02-4.48-.48-2.19,1.05-2.37,4.61-.56.74-1.6,1.53-3.09,2.39-4.44.8-2.33,27.18-17.28,31.3-19.2,29.03-13.56,60.73-19.73,92.7-16.8Z" style="fill: #020302;"/>
  <path d="M451,790c-2.62,2.13-6.21,1.57-10.78-1.67,14.32,7.54,28.47,15.52,39.64,26.41l-.86,2.26c-5.49-2.46-10.07-7.16-15.09-10.41-34.95-22.61-84.72-42.34-124.65-54.35-78.53-23.62-179.49-31.26-260.68-20.16-11.67,1.6-23.07,4.58-34.58,6.92-.01-2.66,0-5.34,0-8,15.08-3.39,30.19-7.04,45.58-8.92,5.73-.7,11.38-.6,16.94-1.06,112.89-9.44,233.65,8.52,334.53,62.44,3.32,1.78,7.07,4.12,9.95,6.55Z" style="fill: #020302;"/>
  <path d="M562,1114c-3.92,9.62,8.58,6.42,14.42,7.08,23.83,2.69,71.11,21.46,92.27,33.73,1.93,1.12,5.35,2.59,5.31,5.19-8.38-3.03-15.75-8.09-23.74-11.76-84.97-39.03-200.81-37.23-289.03-8.51-21.47,6.99-43.47,15.83-64.21,24.79-1.45.62-3.13,1.09-4.02,2.48-6.82-2.7-12,.03-18-1,.58-1.76,2.26-2.1,3.66-2.84,13.77-7.35,28.9-13.21,43.34-19.16.65-2.8,2.32-1.46,5,4,.37-2.92,3.02-2.5,4,0,1.69-2.81.85-4.19-.83-6.81l.83-1.19,3.07-2.57c32.03-13.85,67.08-21.92,100.26-26.84l3.67,1.41c1.21-4.91,4.97-.07,4.02,3.95,4.14.92,5.31-.13,3.53-3.15l1.45-1.8c5.32.77,10.52-.65,15.48-1.02,35.05-2.59,65.28-.09,99.52,4.02Z" style="fill: #020302;"/>
  <path d="M156,757c3.39,1.03,8.06,1.37,14,1,2.65-.14,5.35.07,8,0,1.54,1.28,5.42,1.62,10,0,1.97.1,4.48.81,7,1,2.11,1.16,4.83,2.57,8,1,.97.09,2.07-.14,3,0,1,.72,2,.72,3,0,.72.09,2.78.56,3,1,.92,1.15,2.25,1.15,4,0,1.36.16,2.64.81,4,1l2.42,1.46c15.43,2.52,31.21,5.25,46.58,8.54.66.05,1.35-.08,2,0l2,1c2.65.68,5.35,1.29,8,2,1.9,1.64,4.42,2.63,7,2,2.64.72,5.38,1.23,8,2,.98,1.06,1.98,1.39,3,1,4.37,1.32,8.65,2.57,13,4l2,1c15.23,5.09,29.36,10.13,44,17,3.48,5.99-4.07,3.28-7.57,1.82-2.38-2-7.81-4.48-10.43-2.82-1.42,1.38-5.89-.43-7-2-.92-.16-2.13.19-3,0-29.61-11.81-63.04-21.39-95.49-26.67-3-.49-22.85-3.49-23.06-2.35-.14.72,9.23,2.26,10.66,1.37l1.89,1.66c.3.86,1.91.89,2,1,11.45,3.84,23.12,7.51,35,11,3.61.45,5.14,1.18,8,2,.98,1.05,1.98,1.38,3,1,2.4.78,12.34,3.44,13,5,.9.65,1.9.99,3,1,1.74.7,2.95,1.56,4,2,1.16,1.82,2.91,2.38,5,2,2.33,1.01,4.74,1.98,7,3,.86,1.57,2.25,2.34,4,2,23.15,10.69,50.76,23.3,70.49,40.01,1.52,1.29,3.46,2.78,3.51,4.99.74,2.53-.05,2.74-2,1-4.27-3.04-16-8.36-22-12-1.06-1.59-2.73-2.59-5-3-.83-.57-3.83-1.67-4-2l-3-2c-.76-.11-1.68-.18-2-1l-3-2c-.33-.03-.68.06-1,0-2.34-2.07-5-3.74-8-5-.31-.09-.69.09-1,0-6.32-3.96-14.37-8.21-22-11-1.36-.19-2.09-.77-3-1-1.74-1.93-4.4-3-7-3-.77-.3-1.83-.54-3-1-6.27-3.64-12.94-6.64-20-9-.6-.13-1.41.13-2,0-14.33-5.99-30.7-10.5-46-14-.63.06-1.37.04-2,0-7.71-3.33-21.87-6.56-32-7-1.66-.32-3.36-.74-5-1-1.29-1.04-3.95-1.71-8-2-1.33.04-2.67,0-4,0-1.51-.77-3.18-1.1-5-1-1.2.12-2.76.07-4,0l-3-1c-1.48.17-3.44.05-5,0-1.34-.55-2.68-.88-4-1-7.96.83-16.29-.49-24-1-.55-3.04,1.53-1.92,3.47-2,16.41-.66,33.48,2.44,49.01.98,2.14-.2,4.38.17,6.52.02.58-2.99-1.19-4.01-3.7-4.79-14.98-.65-29.87-2.3-44.83-3.2-1.94-.12-4.01,1.06-3.47-2,5.69-.29,11.32-.81,17-1Z" style="fill: #020302;"/>
  <path d="M144,654l-23.47,8.03-2.53,2.97c14.96-.87,29.59-4.36,44.48-6.02,50.44-5.6,101.57-3.75,151.96,4.08,5.64.88,12.38,3.03,18.15,3.86,1.89.27,3.96.97,3.41-1.92.61.12,1.39-.12,2,0l1.32.81c16.91,4.55,34.14,9.28,51.68,14.19,1.79-.12,3.31.67,5,1,2.09,1.95,5.11,3.37,8,3,1.98.69,4.01,1.31,6,2l2,1c.98.34,2.43.44,4,1,1.91,2.24,5.11,3.18,8,3,1.94.72,4.07,1.27,6,2,.58.7,1.07,1.01,2,1,1.7.65,3.34,1.36,5,2,.58.72,1.07,1.01,2,1,11.72,4.57,23.42,8.79,35,14,.54,1.17,1.2,1.5,2,1,19.52,8.87,42.68,19.87,59.94,32.56,2.79,2.05,3.71,2.42,5.06,5.44,1.11,2.5-1.97,2.21-4,2-1.12-.32-1.91-.53-3-1-.78-1.08-1.76-1.6-3-2-7.87-3.82-14.44-7.99-22-12-1.45-1.26-3.12-2.26-5-3-.33-.04-.67.02-1,0-.9-.26-1.57-.93-2-2-.33-.04-.68.05-1,0l-4-2c-1.21-.65-2.76-1.43-4-2-58.67-30.83-124.38-50.39-189.9-61-17.36-2.81-38.22-5.13-55.89-5.85-15.88-.65-35.82-1.4-51.38-.18-2.36.18-12.4,3.02-8.15,3.82l.33,2.21c-3.35,2.01-8.83.75-13,1-3.97-.46-8.01-.5-12.1-.12-.05-3.71-2.35-4.62-6.91-2.74l-.99-1.15c-1.81-1.57-3.2-.68-4.99-.53-11.77,1-23.84,2.89-35.43,4.61-5.51.82-11.43,3.49-16.58,1.91-3.12-2.74,10.84-5.4,11.78-5.71,10.04-3.39,25.41-10.92,35.22-10.28Z" style="fill: #010101;"/>
  <path d="M703,972c-1.7,1.74-1.86.89-3.98.49-1.75-.33-2.03-1.44-2.02,1.01,0,.86,5.26,1.92,5.86,2.68.55.7-.04,2.06.14,2.82-15.76-5.58-31.88-10.87-48.58-12.92-60.21-7.38-118.74,9.17-173.42,32.41-.71.3-3.99,1.43-2,2.5,4.25,5.43-2.96,4.15-6.57,1.5-3.07,1.41-9.91,2.69-5.43-1.5,5.45-5.18,11.87-8.61,18.64-11.86,58.63-28.18,137.62-44.05,200.6-23.88l16.76,6.74Z" style="fill: #020302;"/>
  <path d="M45,847c1,.72,2,.72,3,0,1.65-.03,3.36.12,5,0l3.48.97c63.02-1.79,129.57,8.53,190.52,23.03.6.25,1.65-.11,2,1,3.62,1.3.53,4.15-2.5,4.19-9.13-.73-10.12.1-2.97,2.49l.47,2.32-60.99,17.51c-26.02,9.97-51.33,21.53-76.05,33.95-3.36,1.69-5.84,5.19-9.96,4.54-.43-2.08,1.02-2.32,2.31-3.18,31.05-20.83,73.32-37.43,108.95-48.05,8.5-2.53,16.78-5.92,25.74-6.76l-.45-4.05-35.29-8.71c-37.92-6.56-76.44-11.15-114.78-13.22-11.67-.63-23.48-.78-34.97-1.1-2.35-.07-4.74.11-4.51,3.08l-2.08-.59c-.2-2.11,1.86-5.77,2.08-7.41h1Z" style="fill: #010101;"/>
  <path d="M187,667c-.81-.17-3.4-1.34-4.74-1.78-1.23-.4-2.41-1.48-1.26-2.22,4.5-.52,7.91-3.39,12.59-3.92,6.58-.75,15.09-.09,21.94-.1,13.23-.03,27.5-.06,41,1,11.06.87,25.47,4.62,36.08,4.98,8.14.27,18.32,1.71,26.82,3.13,56.27,9.35,118.96,31.55,169.93,57.12,1.49.75,3.2.34,2.66,2.8-77.22-35.76-158.78-61.12-244.48-65.02-7.72-.35-16.25-.13-24.02.02-1.2.02-3.73-.74-3.49.99l33.52,1.98c23.69,3.28,47.43,6.18,70.51,12.49,11.42,3.12,22.93,7.29,33.97,11.53-.18,2.14-1.82,2.79-4.91,1.93-4.54-.45-13.25-3.1-16.13-5.79-6.32-1.76-12.31-3.81-17.96-6.14-.64-.02-1.37-.07-2,0-2.37.39-4.04.06-5-1-1.73-.6-3.73-1.26-6-2-.65.05-1.37-.09-2,0-1.08.36-2.68.35-3-1-.92-.03-2.17-.14-3,0-1.05.68-1.7.23-2-1-2.83-.07-6.25-.44-9-1-2.88.53-7.07.22-9-2-.94-.05-2.07-.09-3,0-2.91.42-5.25.09-7-1-.99.06-2.02-.1-3,0-2.37.39-4.04.06-5-1-1.84-.04-4.3-.24-6,0-1.06.68-1.7.23-2-1-.62.11-1.49-.16-2,0-1.12-.38-1.87-.37-3,0-1.28-.15-2.73.17-4,0-7.08.32-14.19.09-21.33-.69l-1.67-1.31c-3.31-.17-6.69.11-10,0-6.63.71-13.41.4-20,0-.75.1-2.32.14-3,0Z" style="fill: #020202;"/>
  <path d="M704,1096c.13,1.74-.7,2.94-2.52,3.06-17.3-2.73-34.51-3.29-52-3.08-1.88,1.22-10.23.65-10.48,1.53-.67,2.33,2.21,1.5,3.54,1.47,20.1-.48,33.09-1.67,53.15,2.83,3.67.82,7.57-1.23,8.31,4.19-3.21-.16-6.46-1.5-9.59-1.91-32.48-4.35-71.26-1.99-102.66,8.17-1.28.41-10.87,3.8-9.76,4.73,18.16,4.25,36.18,9.07,53.51,15.99,3.21,1.28,6.66,3.78,9.49,5.01-.89,2.15-3.09.41-4.36-.15-17.79-7.79-38.52-12.51-57.34-17.65-5.86-1.6-7.94,1.1-5.3-8.2-.36-.34-8.07,1.51-9.73,1.69-1.18.13-2.02-.7-2.27-.69,2.95-2.64,7.21-4.13,11.01-5.01.03-.75-.97-1.52-1.01-1.99-3.05-.73-1.88-3.96,1-4,1.36.81,2.63,2.53,3.68,2.86,3.52,1.09,8.11-2.11,11.53-3.14,25.9-7.81,53.27-10.46,80.31-9.73l31.48,4.02Z" style="fill: #020302;"/>
  <path d="M358,690c1.8-.35,2.37.83,3,1,5.58,3.56,13.56,6.15,20.39,7.01l.61.99c.65-.06,1.34-.01,2,0,9.87,4.61,22.4,9.66,33,13,1.61.69,3.16,1.17,5,2,.54,1.17,1.2,1.5,2,1,5.23,2.43,10.82,4.44,16,7,3.08,4.54-1.05,4.41-4.72,2.96l-2.28,1.04h-1c-.3-.1-.7.1-1,0-1.56-.78-2.67-1.48-1.07-1.69-26.86-11.7-57.94-24.16-85.94-31.92-2.01-.56-3.88-.78-5.98-.4-1.04-.26-2.84-.98-3-1v-1c.54-1.05.96-1.92,0-3-4.15-1.32-8.54-3.33-12.78-4.76-1.72-.58-3.82.83-3.22-2.24,2.66.07,6.51,1.48,9.24,2.26,8.04,2.29,23.05,9.03,29.76,7.74Z" style="fill: #010101;"/>
  <path d="M173,642c1.44-1.19,4.7-1.65,6.59-1.91,10.88-1.52,21.94-2.65,32.84-4,4.52,7.3,11.93,6,19.58,5.91v2.99c-4.81.2-9.71-.26-14.52-.02-20.72,1.03-42.39,2.87-62.77,7.23-3.33.71-3.94,2.05-8.71,1.79l6.22-3.29c11.24-2.43,22.42-3.99,33.49-6.5,3.08-.7,7.09-.99,10.29-1.22.08-2.14.45-1.89-1.49-1.99-5.94-.34-13.31,1.15-19.18,2-1.72.17-2.21-.99-2.34-1Z" style="fill: #010101;"/>
  <path d="M145,645c.09.02.45.96,1,1,.11.81.31,1.62-.68,1.99-5.31,1.98-16.02,2.62-22.54,4.29-14.29,3.67-30.15,9.05-44.56,13.44-8.56,2.6-22.05,11.76-29.21,12.29,1.5-4.08,4.98-3.4,7.71-4.79,4.1-2.09,7.92-4.89,12.04-6.96,9.42-4.72,19.27-8.65,28.76-13.25,3.66-.72-1.66,4.77,2,4.01,1.66-.35,2.84-1.54,4.18-1.83,7.89-1.69,12.54-2.9,20.31-5.19,3.01-.89,13.87-4.32,16-4,.88-.07,1.49-.23,2-1,.94.13,2.15-.19,3,0Z" style="fill: #010101;"/>
  <path d="M154,664c.12-.14,2.15.05,2.61-2.06l7.39,1.06-1,3.99c.87.82,9.38-1.35,11,1-5.96.35-12.19.81-18.52.97-1.69.05-3.19,1.05-4.92,1.01-1.52-.04-4.39-.85-3.57-2.98,1.57-.96,6.16-.67,6.86-1.2.5-.37,0-1.64.14-1.81Z" style="fill: #010101;"/>
  <path d="M243,669c-1.43,1.62-3.61.97-5.49,1.01-4.52.09-10.51.46-14.8-.25-1.61-.27-3.25-.64-2.71-2.76,8.2.42,15.22.95,23,2Z" style="fill: #010101;"/>
  <path d="M210,667c-4.06,1.78-10,1.08-14.51,1.01-1.88-.03-4.07.61-5.49-1.01,8.35-1.1,12.17-.25,20,0Z" style="fill: #010101;"/>
  <path d="M685,1166c-3.11-.87-7.19-2.31-9-5,.09-.02-.36-1.16,1.3-.86,2.1.38,8.07,3.53,7.7,5.86Z" style="fill: #020302;"/>
  <path d="M44,677h1c.76,1.22,1.79.93,3,1,.18,2.64-2.01,3.65-4.43,2.93-2.12-.63-2.63-4.78.43-3.93Z" style="fill: #010101;"/>
  <path d="M287,674c-1.93,2.06-9.76,1.39-9-2,3.19.19,6.28,1.45,9,2Z" style="fill: #010101;"/>
  <path d="M656,1143c-3.24-.33-7.7.42-8-4,2.56,1.09,6.65.91,8,4Z" style="fill: #020302;"/>
  <path d="M171,642v2c-2.98.62-4.71-.31-7-1,1.17-1.66,4.93-1.1,7-1Z" style="fill: #010101;"/>
  <path d="M275,672c-.09,0-.62.87-1.51.97-1.82.2-3.67,0-5.49.03v-2c2.04-.13,5.86-.63,7.01,1Z" style="fill: #010101;"/>
  <path d="M306,677c1.98-.15,4.02.09,6.01,0,.07.65-.09,1.36,0,2,1.44.03,2.9-.21,4.33.17l.67.83c-.6.07-3.01,1.97-5,1-.07-.65.09-1.36,0-2-2-.04-4.01.04-6.01,0v-2Z" style="fill: #010101;"/>
  <path d="M265,671c-.57.06-3.04,1.97-5,1v-2c1.45.03,2.91-.21,4.34.17l.67.83Z" style="fill: #010101;"/>
  <path d="M625,893c-.67-2.33,2.02-2.82,4-3v2c-.91.09-2.12.93-4,1Z" style="fill: #020302;"/>
  <path d="M666,1148c-2.27-.19-5.7-.27-5-3,3.68.61,3.32,1.94,5,3Z" style="fill: #020302;"/>
  <path d="M131,758v3s-3,0-3,0v-2c.16-.01,1.12-.88,3-1Z" style="fill: #020302;"/>
  <path d="M137,758v2c-1.33,0-2.67,0-4,0v-2c1.33-.08,2.68.07,4,0Z" style="fill: #020302;"/>
  <path d="M640,893v-2c1.33,0,2.67,0,4,0v2c-1.31-.13-2.68.09-4,0Z" style="fill: #020302;"/>
  <path d="M304,677c-.2.03-1.37,1.72-3,1v-2c.78.03,1.58-.12,2.34.16l.65.84Z" style="fill: #010101;"/>
  <path d="M250,669c-3.23,1.01-1.63.16-3,0,.11-1.54,2.89-1.54,3,0Z" style="fill: #010101;"/>
  <path d="M152,645v2c-1.67.71-2.65-.91-3-1l.66-.84c.77-.25,1.55-.18,2.34-.16Z" style="fill: #010101;"/>
  <path d="M157,644v2c-1.63.72-2.8-.97-3-1l.65-.84c.77-.25,1.55-.18,2.35-.16Z" style="fill: #010101;"/>
  <path d="M660,1145c-2.27-.2-3.46.93-3-2,1.48-.07,2.62.54,3,2Z" style="fill: #020302;"/>
  <path d="M696,1164c-.74-.2-2.26.4-2.88-.14-.47-.41.03-1.55-.12-1.86,1.47-.06,2.62.54,3,2Z" style="fill: #020302;"/>
  <path d="M335,687c.5.16,1.37-.11,2,0,.33,1.63-.53,2.41-2,3v-3Z" style="fill: #010101;"/>
  <path d="M324,690c.12-.02.57-1.46,2-1v2s-1.4-.17-1.4-.17l-.59-.83Z" style="fill: #020302;"/>
  <path d="M298,676c-.12.02-.63,1.45-2,1v-2s1.4.17,1.4.17l.59.83Z" style="fill: #010101;"/>
  <path d="M254,670c-.11.02-.67,1.44-2,1v-2s1.39.17,1.39.17l.6.83Z" style="fill: #010101;"/>
  <path d="M162,643c-.18.22.11,1.41,0,2-1.36.45-1.88-.98-2-1l.6-.83,1.4-.17Z" style="fill: #010101;"/>
  <path d="M672,1151c-.14.03-.85,1.4-2,1-.13-.62.17-1.52,0-2l2,1Z" style="fill: #020302;"/>
  <path d="M114,770c.33.02.67-.02,1,0l-.5.99-.5-.99Z" style="fill: #121710;"/>
  <path d="M449,677c2.72-.03,3.76.94,6,2l3,2c10.2,1.12,44.76,20.74,55.68,26.82,8.12,4.51,16.61,9.01,24.32,14.18,4.84,5.96-.36,5.06-5,4-.65.04-1.35.05-2,0-1.72-1.41-3.8-2.92-6-3-.73-.36-1.24-.58-2-1-1.42-1.28-3.09-2.28-5-3-1.35-.38-1.97-.65-3-1-1.45-1.22-3.12-2.22-5-3-.33-.04-.67.02-1,0-.9-.26-1.57-.93-2-2-.32-.06-.69.08-1,0-.88-.95-1.85-1.44-3-2-.28-.12-.72.13-1,0-2.01-1.45-4.01-2.78-6-4-.31-.09-.7.09-1,0-1.42-1.32-3.09-2.32-5-3-1.22-.28-1.99-.68-3-1-1.49-1.21-3.15-2.21-5-3-3.91-.97-4.03-1.69-7-3-4.14-3.05-8.8-5.39-14-7-.31-.08-.68.07-1,0,.55-2.6-1.2-2.03-2.75-2.71-47.45-20.71-108.27-37.4-159.73-41.31-10.43-.79-21.17.38-31.52-1.99-1.04-3.09,4.66-2.18,6.52-2.01,14.24,1.25,28.73,1.57,43,3,24.61,2.46,51.69,8,75.73,14.27,14.78,3.85,45.5,17.88,57.75,17.75Z" style="fill: #010101;"/>
  <path d="M451,790c2.41-.11,2.79,1.38,4,2,2.47,2.46,5.47,4.46,9,6,11.84,4.59,22.49,17.23,33.02,24.48l24.98,24.52c-.36,1.05,2.6,4.07-1.98,6.52-3.39,1.81-2.59-.49-3.3-1.21-.61-.62-1.6-.2-1.72-.31-5.68-5.13-10.87-12.82-16.98-18.52-3.91-3.65-11.26-8.28-14.02-12.48-1.17-1.18-2.51-2.18-4-3-.19-.27-.69-.54-1-1-2.39-3.49-1.27-1.5-3.74-3.26-1.74-1.24-3.91-4.61-7.57-6.96-48.84-31.37-108.25-54.49-165.49-67.49-8.72-1.98-17.61-2.79-26.2-5.3.68-5.38,3.23-1.71,5.68-1.18,3.42.74,7.88.69,11.54,1.45,46.35,9.71,92.87,25.04,135.46,45.54,5.97,2.87,17.2,10.42,22.31,10.19Z" style="fill: #010101;"/>
  <path d="M338,692c4.71-3.49,9.75,1.43,13.76,2.74,13.33,4.37,27.05,7.88,40.23,12.77,12.46,4.62,24.36,10.66,36.81,15.24,2.29.84,2.61-.38,2.21,3.25-11.91-3.77-24.49-10.66-36.45-15.05-16.72-6.13-39.7-14.66-56.55-18.95Z" style="fill: #020202;"/>
  <path d="M442,724c1.16,1.24,2.5,1.91,4,2,1.4.81,2.22,1.53,3,2,2.09,1.78,4.43,3.44,7,5,4.65,1.65,3.85,2.72,6,6,.02,1.28-1.31,1.62-4,1-2.51-1.03-10.88-4.59-12-6-4.25-2.85-8.58-5.52-13-8-.25-5.48,6.14-1.16,7-2v-2c1.3.64,1.33.82,2,2Z" style="fill: #010101;"/>
  <path d="M391,680c-5.76.37-9.24-2.05-14.95-3.55-11.22-2.95-24.6-4.77-35.28-8.76-1.62-.6-3.31-.13-2.77-2.69,12.5,2.56,24.72,6.05,36.97,9.53,5.23,1.49,11.58,1.65,16.03,5.47Z" style="fill: #020202;"/>
  <path d="M417,712c-1.06,2.57-3.06.02-4.09-.41-8.71-3.67-18.13-5.58-26.25-9.79-1.47-.76-3.21-.32-2.66-2.8,6.45.12,26.16,10.04,33,13Z" style="fill: #020202;"/>
  <path d="M361,691c6.07,1.62,11.83,3.82,17.78,5.76,1.74.57,3.81-.81,3.22,2.24-5.11.45-12.88-2.63-18.23-5.32-1.45-.73-3.35.03-2.77-2.68Z" style="fill: #020202;"/>
  <path d="M475,697c-4.43-1.96-10.7-3.48-14-7,.8.2,2.06-.06,3.23.22,2.98.71,10.3,3.16,10.77,6.78Z" style="fill: #020202;"/>
  <path d="M533,726c.09,0,.48-.96,1.43-.95,1.16.01,2.32,1.09,3.57.95v-4c1.54,1.03,7.19,3.6,4.03,5.53-2.11,1.29-7.22.36-9.03-1.53Z" style="fill: #020202;"/>
  <path d="M433,726c5.89,1.74,10,4.22,13,8-4.64-2.49-10.26-4.16-14-8,.3.1.69-.09,1,0Z" style="fill: #020202;"/>
  <path d="M464,798c-3.12-1.21-8.61-1.16-9-6,3.13,1.61,6.94,2.99,9,6Z" style="fill: #020302;"/>
  <path d="M404,684l-.65.88c-2.39.28-7.96-1.16-7.35-3.88,4.16.82,5.23,2.04,8,3Z" style="fill: #020202;"/>
  <path d="M456,733c-2.75-.97-8.17-.6-7-5,.26.16,1.79-.09,2.94.51,1.41.73,3.13,3.09,4.06,4.49Z" style="fill: #010101;"/>
  <path d="M424,691c-1.12,1.95-8.91-.37-8-3,2.7.97,5.33,2.01,8,3Z" style="fill: #020202;"/>
  <path d="M462,739c.47.72,2.73.85,2,3-2.5.59-4.23-1.27-6-2l.68-.83,3.32-.17Z" style="fill: #020202;"/>
  <path d="M502,711c-2.1-.96-6.71-1.12-6-4,2.47.74,6.19.63,6,4Z" style="fill: #020202;"/>
  <path d="M525,723l.54-.99c2.07,1,6.16,1.34,5.46,3.99-3.76-.26-4.41-2.22-6-3Z" style="fill: #020202;"/>
  <path d="M541,750c.27.6,1.68,1.17,1,3-2.3.82-3.77-.65-5-1l4-2Z" style="fill: #020202;"/>
  <path d="M495,707c-1.94-.6-4.16-.68-5-3,2.15.49,5.08-.97,5,3Z" style="fill: #020202;"/>
  <path d="M482,700c2.15.53,5.69-.06,5,3-1.94-.61-4.17-.69-5-3Z" style="fill: #020202;"/>
  <path d="M504,734c2.27.3,5.68.17,5,3-1.46-.78-4.31-.47-5-3Z" style="fill: #020202;"/>
  <path d="M518,719c2.09.58,5.7-.11,5,3-1.38-.77-4.34-.44-5-3Z" style="fill: #020202;"/>
  <path d="M510,715c2.27.3,5.68.17,5,3-1.91-.65-4.18-.63-5-3Z" style="fill: #020202;"/>
  <path d="M446,726l-.59.92c-3.8-.17-2.77-1.81-3.41-2.92,2.01-.31,2.89,1.36,4,2Z" style="fill: #010101;"/>
  <path d="M496,730h4.01s0,2,0,2c-3.84-.61-2.71-1.31-4-2Z" style="fill: #020202;"/>
  <path d="M531,749h3s0,2,0,2c-2.07-.89-2.73-1.87-3-2Z" style="fill: #020202;"/>
  <path d="M503,711h3s0,2,0,2c-2.71-.75-2.81-1.92-3-2Z" style="fill: #020202;"/>
  <path d="M458,681c-.98-.11-2.02.09-3,0v-2c1,.47,2.67.02,3,2Z" style="fill: #020202;"/>
  <path d="M439,697l-2,1v-2c.96.37,1.66.87,2,1Z" style="fill: #020202;"/>
  <path d="M432,694l-2,1v-2c1.02.38,1.8.92,2,1Z" style="fill: #020202;"/>
  <path d="M412,687l-2,1v-2c1.08.38,1.84.95,2,1Z" style="fill: #020202;"/>
  <path d="M476,712l-.51.99c-1.85.34-1.59-.28-1.49-1.99.77.35,1.41.73,2,1Z" style="fill: #020202;"/>
  <path d="M507,713h2s0,2,0,2c-2-.14-2.25.64-2-2Z" style="fill: #020202;"/>
  <path d="M424,715l-.51.99c-1.85.34-1.59-.28-1.49-1.99.77.35,1.39.72,2,1Z" style="fill: #020202;"/>
  <path d="M142,645l-.1,1.91c-1.14.7-1.78-.89-1.9-.91l2-1Z" style="fill: #020202;"/>
  <path d="M501,732h2s0,2,0,2c-2-.14-2.25.64-2-2Z" style="fill: #020202;"/>
  <path d="M340,801c-.68-6.6,4.96-1.23,6.97-.47,2.59.97,5.54,1.83,8.23,2.77,1.9.66,3.19,1.8,2.79-1.3.7.33,1.34.69,2,1,3.6,2.94,8.26,5.61,14,8,.31.09.69-.08,1,0,1.4,1.58,2.73,1.91,4,1,1.96.82,2.86,1.14,4,3,2.81,1.52,5.47,3.19,8,5,.3.08.67-.06,1,0,1.05,1.3,2.35,1.87,4,2,.67.33,1.34.67,2,1,1.88,1.91,4.49,3.09,7,4,1.93-.39,5.51,2.66,7,4-.42,1.44-.09,1.77,1,1,.86-.2,2.19.56,3,1,.76,1.38,1.71,2.13,3,3,6.37,1.38,22.69,16.33,28.02,21.48,2.37,2.29,6.09,7.82,8.03,8.97,4.08,2.42,12.51,2.78,17.23,4.78,1.89.8,1.77,1.69,2.72,2.77,1.76,2.54-2.28,4.96-5,4-19.05-2.46-35.96-7.67-56-9-1.25-.19-2.38-.44-1.26-1.11l-24.9-.97c-6.64-.85-11.59-.49-14.85,1.09-.66.03-1.34-.03-2,0l-8.56-.79-51,4.68-2.44-.89c-1.86-1.24-5.48-2.96-5,0,1.89,2.34-6.58,3.28-7,1-2.33-2.55-7.1-3.53-9,1l.82,1.05c-6.03,1.1-11.89,2.47-17.6,4.12l-2.22-1.17c-.87-.19-.84-.52,0-1-.95-1.28-2.67-1.65-5-2-4.66,3.97-11.97.66-7-2,.75-1.29,2.14-.73,3-1,1.28.4,2.61.07,4-1,.81-.15,1.73-.84,3-1,1.88,1.16,3.55,1.16,5,0,.15-.57,1.17-1.28.57-2.02-1.03-1.26-4.03-1.29-3.57-3.98.33-2.47,4.03-2.73,6-2,1.14,1.5,3.28,4.45,4,6,.87,1.09,1.87,1.09,3,0,1.28,0,2.81-.16,4,0,1.06-.11,2.06-.45,3-1,.96-.03,2.07-.1,3,0,2.15.24,4.15-.1,6-1,3.06-.24,5.96-.73,9-1,1.49,1.15,1.53,1.14,4,0,.66-.06,1.34.06,2,0,7.01.15,17.4-.48,22-2,1.32.07,2.7-.14,4,0,1.91.14,3.57-.19,5-1,.98-.11,2.02.11,3,0l2-1c1.32-.09,2.68.1,4,0,1.49,1.14,1.53,1.14,4,0,4.13-.26,7.77-.88,12-1,1,.72,2,.72,3,0,15.31-.31,30.29.75,45.52.98l26.48,4.01c-5.11-6.45-15.82-11.04-21-16.99-3.03-2.27-6.03-4.6-9-7-.59-.11-1.34.05-2,0-.85-1.88-1.52-2.55-2-2-2.48.66-3.51-1.9-6-3-.81-.53-1.54-1.24-2-2-.44-1.29-3.19-.84-4.37-1.15l-.63-.85c1.48-.82,1.48-1.15,0-1-1.71.3-2.66-.54-4-1-1.87-1.08-3.54-2.41-5-4-.32-.08-.7.09-1,0l-3-3c-2.81.45-8.08-2.69-10-5-1.54.1-3.77-1.34-4-3-1.48.96-3.81.62-7-1-.69-.33-1.33-.67-2-1-2.47-1.25-5.47-2.91-9-5-.58-.14-1.38.12-2,0-1.63-.59-1.96-1.26-1-2-1.16-.62-2.49-1.28-4-2-1.28,1.57-5.13-.02-5-2Z" style="fill: #010101;"/>
  <path d="M364,915c.86.72,1.84,1.07,3,1,1.47.59,2.77,1.47,4,2,2.39,3.08,21.55,11.94,22.87,11.78l2.13.22c1.24.66,2.17,1.55,3,2,.75,1.35,5.1,4.85,6,3,1.18.67,2.1,1.48,3,2,1.27,2.42,6.38,5.7,7,4,1.05.65,1.99,1.36,3,2,.16,1.57.81,1.98,2,1,7.08,4.61,17.45,10.89,23,17,.11.12-.28,1.09.25,1.73.87,1.03,3.06,1.68,3.75,4.27-.55.62-1.8,2.59-3,4-3.74,3.64-5.99,1.07-7-3-2.94-.05-5.75-1.8-8.43-5.26-3.27-1.84-5.12-4.09-5.57-6.74-.68-1.23-1.69-1.69-3-2-2.26,1.82-3.85.76-3-2-3.26-2.6-6.93-4.93-11-7-.28.87-.61.85-1,0-7.4-4.7-15.07-9.03-23-13-.27.86-.6.85-1,0-6.8-3.85-13.9-7.36-21.29-10.52l.29-1.48c-.91-.48-1.76-1.36-.8-1.22-5.21-1.42-6.28-2.67-3.2-3.78,1.07-1.02,3.07-1.35,6-1,.66.2,1.32.76,2,1Z" style="fill: #000100;"/>
  <path d="M371,868c-24.3,1.17-53.97,3.91-78.42,7.08-5.87.76-11.68,2.35-17.58,2.93l4,2.99c2.4,5.51-9.66,2.54-10-2-2.55-.72-2.51-1.14,0-2,5.82-3,11.5-2.32,17.49-3.03.9-.11,1.41-.96,1.51-.97.26-2.34,1.35-2.27,2,0,.92-1.14,2.59-1.47,5-1,.56-1.9,1.44-1.91,2,0,1.99.17,5.88.61,7-1,.53-2.2,4.08-2.03,5,0,17.62-.25,35.83-3.65,53.5-5.05l8.5,2.05Z" style="fill: #020302;"/>
  <path d="M279,881c2.08-.39,2.6.91,3,1,2.88,2.49,7.25,4.13,11,4,1.01.36,2.45.43,4,1,3.2,2.18,6.78,3.99,10.75,5.44l.25,1.56c1.47-.07,1.55,2.84,0,3,.38,3.83-11.25-1.25-13.55-2.53-.32-.18-.42-.77-.45-1.47-.06-1.59-.72-1.99-2-1-.49.61-.94,1.07-1.25.99-3.75-1.01-25.65-7.59-26.6-9.21-.32-.55.9-1.51,1.84-1.78.22-1.06,1.12-1.55,2-2-1.35-1.5-.73-2.08,1-1,2.83.55,5.43,3.34,8.47,3.02.94-.1,1.38-.99,1.53-1.02Z" style="fill: #010101;"/>
  <path d="M323,898c1.48.35,2.45.52,4,1,.98,1.49,2.22,2.26,4,2,.94.35,1.97.61,3,1,.58.71,1.07,1.01,2,1,3.65,1.45,13.19,5.66,16,6,.9.25,1.56.91,2,2,3.91.24,4.38,1.92,8,3v2c-1.96-.75-4.15-.64-6-1-1.45,1.61-2.54.99-3-1-.94.55-1.73.17-2-1-.25.88-.58.85-1,0-4.54-2.1-8.9-3.78-13.66-4.57l-.34-1.43c-1.73-.1-1.73.24,0,1,2.66.32,2.54,1.24,0,2-.91,2.35-13.42-4.09-13.04-4.74.43-.74,1.26-1.06,2.04-1.26.36-1.57,4.14.35,3.93.3-1.38-.33-3.88-1.05-3.93-2.3l-4,2c-.23.62-.43,1.1-.55,1.08-1.71-.28-14.32-5.26-8.45-6.08-2.72-.36-4.45-3.48-2-5,4.29.16,8.62,1.5,13,4Z" style="fill: #010101;"/>
  <path d="M269,772c-14.55-1.09-29.55-4.8-44.42-7.08-1.53-.23-5.36-.41-4.58-2.92,14.99,2.11,29.61,4.87,44.37,8.13,1.59.35,3.62.42,4.63,1.87Z" style="fill: #030302;"/>
  <path d="M373,868c-.55-3.03,1.53-1.93,3.47-2,11.46-.39,22.69.57,34.05,1,1.94.07,4.02-1.03,3.47,2-12.98-.86-28.02-1.56-41-1Z" style="fill: #020302;"/>
  <path d="M371,918c8.79,3.78,16.85,7.65,25,12-2.05,4.55-5.54-.7-7.71-1.79-4.29-2.14-10.58-3.69-15.01-5.99-2.06-1.06-2.56-1.89-2.28-4.23Z" style="fill: #010101;"/>
  <path d="M323,898c-5.12-1.21-8.03-2.11-13-4-.38,2.62-1.21,2.52-2,0-2.2-.88-5.78-3.1-8.23-4.32-1.45-.72-3.35.03-2.77-2.68,6.68,2.44,13.34,4.94,19.97,7.53,2.01.78,5.08,1.41,6.03,3.47Z" style="fill: #020302;"/>
  <path d="M374,811c-4.32-1.19-7.96-2.23-12.04-4.51-1.97-1.1-2.43-.31-1.96-3.49,4.74,2.25,10.57,3.57,14,8Z" style="fill: #020302;"/>
  <path d="M170,758c-3.08.16-6.24,1.58-10.58,1.14-1.94-.2-3.99.77-3.42-2.14,4.33-.14,10.28-.73,14,1Z" style="fill: #030302;"/>
  <path d="M293,886l-.66.88c-3.18-.22-10.3-1.13-10.34-4.88,4.97,1.12,7.05,2.59,11,4Z" style="fill: #020302;"/>
  <path d="M188,758v2c-3.32,0-6.68,0-10.01,0v-2c3.27-.08,6.76-.16,10.01,0Z" style="fill: #030302;"/>
  <path d="M383,815c2.66,0,8.24,2.24,8,5-5.13-1.35-5.41-.76-8-5Z" style="fill: #020302;"/>
  <path d="M415,941c.2,4.11-1.68,1.21-3.65.13-2.39-1.31-4.06-.48-3.35-4.13,2.35,1.37,4.66,2.55,7,4Z" style="fill: #010101;"/>
  <path d="M203,760c-1.33,3.75-4.89.66-7.97.95l-.03-1.95c2.74.21,5.69.78,8,1Z" style="fill: #030302;"/>
  <path d="M470,878c2.33-.65,3.54-2.22,5-4,.5.57,2.36.73,1.99,2.45-1.26,1.67-2.33,2.64-4.54,2.65-1.58,0-2.32-1.09-2.45-1.1Z" style="fill: #020302;"/>
  <path d="M405,935v2s-7-3.01-7-3.01l1-1.99c2.01,1.1,3.85,1.77,6,3Z" style="fill: #010101;"/>
  <path d="M405,827c-.06.01.2.85-.54.99-1.17.21-7.26-2.76-6.46-4.99,2.24,1.11,5.89.55,7,4Z" style="fill: #020302;"/>
  <path d="M288,777c-1.36,2.33-4.69-.06-6.92-.11l-.08-1.89c2.33.62,4.8,1.4,7,2Z" style="fill: #030302;"/>
  <path d="M379,812v2c-1.82.17-3.11.2-3.86-1.62l-.14-1.38c1.45.37,2.26.27,4,1Z" style="fill: #020302;"/>
  <path d="M396,822l-.59.92c-1.96-.48-4.03-.61-3.41-2.92,3.73.73,2.8,1.4,4,2Z" style="fill: #020302;"/>
  <path d="M420,944c.64,3.47-2.73,2.27-3-.49l1-.51c.42.26,1.16.45,2,1Z" style="fill: #010101;"/>
  <path d="M216,761v2c-5.39.56-3.2-.4-4-2,1.31.1,2.71-.15,4,0Z" style="fill: #030302;"/>
  <path d="M331,901l-.59.92c-1.96-.48-4.03-.61-3.41-2.92,2.17.67,3.08,1.66,4,2Z" style="fill: #020302;"/>
  <path d="M484,821c-2.3.09-2.92-1.42-4-3,4.01-.72,3.12,1.67,4,3Z" style="fill: #020302;"/>
  <path d="M367,916c-1.24,1.35-.69,2.56-3,2v-3c1,.36,1.77.51,3,1Z" style="fill: #010101;"/>
  <path d="M299,780l-.5.99h-2.49s0-1.99,0-1.99c1.2.35,2.17.75,3,1Z" style="fill: #030302;"/>
  <path d="M419,836c-.86-.19-2.05.14-3,0v-3c1.36.74,2.42,1.5,3,3Z" style="fill: #020302;"/>
  <path d="M209,760v2s-.5,0-.5,0h-2.49s0-2,0-2c.94.14,2.04-.12,3,0Z" style="fill: #030302;"/>
  <path d="M413,832c-.12.03-.58,1.46-2,1l1-2c.35.32.79.54,1,1Z" style="fill: #020302;"/>
  <path d="M314,785l-2,1v-2c1.14.38,1.89.96,2,1Z" style="fill: #030302;"/>
  <path d="M273,773l-2,1v-2c1.99.24,1.88.97,2,1Z" style="fill: #030302;"/>
  <path d="M352,909c.64.08,1.35-.08,2,0v2s-2,0-2,0v-2Z" style="fill: #020302;"/>
  <path d="M336,903l-2,1v-2c1.02.39,1.67.87,2,1Z" style="fill: #020302;"/>
  <path d="M304,1044c-.7,1.53-2.56,2.48-5.56,2.86,1.14,2.96,1.12,5.34-.03,7.14,2.07-.66,4.36-1.22,5.59,1.01,1.45-2.52,2.68-1.86,2,1-.64,2.13-2.47,3.65-5.48,4.58-6.12,3.72-38.16,21.08-40.43,20.9-.7-.06-1.4-.25-2.09-.47-2.31,2.44-2.87-.15-3.1-2.91-2.51-.08-3.81-1.11-3.9-3.09l-.58-2.28c12.25-7.95,25.05-15.25,38.42-21.92-27.68-6.2-56.65-9.95-85.15-9.78,11.67,7.22,22.79,14.46,33.35,22.53l-.03,2.45c-3.16.86-6.41-.11-9.76-2.9,5.81,3.44,10.79,7.74,14.92,12.89l-1.15,2.02-36.63-24.87c-7.05-2.77-13.66-8.86-20.37-12.13-1.83-4.63,5.27-2.65,8.24-1.39,1.42-2.66-.7-4.15-6.38-4.49-2.84-.86-3.91-3.08-.85-4.12l2.45-1.89c38.44-.62,79.19,2.52,116.11,12.36l.44,2.53Z" style="fill: #020302;"/>
  <path d="M242,1080c.66-4.06,4.86-1.15,3.68,2.41,2.41.68,3.52,1.88,3.32,3.59l-47.93,31.57c-11.31,6.78-25.44,21.91-36.73,27.27-1.85.88-3.17,1.53-5.34,1.16-.9-.9,1.97-6.45,2.96-7.53,4.87-5.31,16.39-13.58,22.54-18.46,11.42-9.04,23.5-18.29,35.55-26.45,7.08-4.79,14.78-8.89,21.94-13.56Z" style="fill: #020302;"/>
  <path d="M237,1066c1.92-1.92,2.39-1.69,2,1,2.51,3.48,5.85,6.15,10,8,.53-1.91,1.42-1.92,2,0,2.05.35,4.34,1.75,7,1,.14,1.29-.91,2.38-.98,3.59-.06,1.09.94,1.27.99,1.4,1.97-.27,2.39.58,1,2,3.21,3.12,6.72,6.42,11,8,2.95-1.89,8.24,1.81,6,5,6.2,5.89,12.87,11.22,20,16,1.32-1.44,1.89-.83,1,1,2.27,2.54,4.94,4.54,8,6,2.08-1.96,4.08-.72,3,2,.79,2.09,2.46,3.42,5,4,3.66-1.27,13.29,6.43,11,10l3,2c1.97-2.33,5.24.36,4,3,.48.58,2.09,4.33,2.97,5.41-.71.94-1.83,2.32-2.97,2.59-3.19-4.1-4.03-4.76-2.51-1.96l-1.49,1.96c-1-.04-2.01.04-3,0,.84-5.24-1-3.35-2-4.01-.26-.17-1.66-2.39-2-3-12.88-12.13-26.55-23.13-41-33-.54-.61-1.17-.92-2-2-8.08-7.34-16.47-14.57-26-20-.59-.12-1.36.1-2,0-1.13-.17-3.62-1.98-6-1l1.07-4.42c.02-1.17-1.49-.32-2.07-.58-.12-.05-.76-1.52-1-2-4.04-8.13-24.7-19.03-32.94-24.56-3.04-2.04-5.95-4.89-9.06-6.95-.31-2.08.46-1.71,2.06-1.06,11.32,4.58,23.27,14.82,35.94,20.57Z" style="fill: #010101;"/>
  <path d="M178,1029c2.18-1.65,6.55-.76,7,2-.57,2.73,1.3,1.92,3,2.46,6.31,2.02,7.7.68,6,8.54-.63.79-8.37-3.83-10-1-1.27-.62-3.52-.88-5-1,.57-3.13-1.5-1.68-3.37-2.09-1.69-.37-6.15-.87-6.59-2.51l1.92-5.99,7.04-.41Z"/>
  <path d="M279,1108c4.1.28,8.62,4.09,11.95,6.59.7.53.9,1.76,1.77,2.43,8.82,6.73,21.95,14.59,27.28,23.98-3.63-.73-5.77-4.72-8.51-6.99-9.45-7.85-24.8-17.29-32.49-26.01Z" style="fill: #020302;"/>
  <path d="M251,1086c5.77,1.22,14.68,7.86,19.54,11.99,2.46,2.08,4.63,5.62,6.46,8.01-3.67-1.56-7.34-4.54-10.49-7.01-5.27-4.12-10.46-8.61-15.51-12.99Z" style="fill: #020302;"/>
  <path d="M467,1001l.52,2.05c1.71.03,3.07-2.04,4.98-2.03,2.29.01,6.99,4.8,6.5-.02,11.85.49,24.21-.66,36,0l2,1c2.28-.31,5.55-.04,8,0,1,.72,2,.72,3,0,46.08,2.14,104.9,12.45,148.79,26.71,4.73,1.54,7.94,2.59,11.21,6.29,1.97,1.43-.18,3.54-2,4-5.4,0-18.01-3.61-24-5l-2-1c-2.02-.48-4.31-.59-6-1l-2-1c-4.25-1.05-8.61-1.88-13-3l-2-1c-4.21-1.09-8.74-2.04-13-3-.89-.51-1.89-.85-3-1-.81.11-2.18.1-3,0l-2-1c-2.16-.4-4.73-.59-7-1-.95-.57-1.95-.9-3-1-1.55.31-5.85-.74-8-1-1.24-.59-2.58-.92-4-1-.64.08-1.34-.04-2,0-1.52-.72-3.18-1.05-5-1-.65.07-1.34-.03-2,0-3.42-1.42-8.03-2.16-12-2-1.32.1-2.67-.07-4,0-1-.91-3.15-1.3-6.45-1.17-29.09-3.45-58.41-5.85-87.71-3.91l-2.83-.92-1.4-.2c.17-3.5-1.03-3.43-3.6.2l-2.55,1.46c-38.97,3.87-79.43,10-114.81,26.46,5.13-.88,14.68-1.88,7.8,5.17-1.11-.08-8,1.62-7.59,2.32.65,1.11,22.77,1.88,25.15-.42,1.99-.07,4.01.06,6,0,1.78.99,3.44.65,5-1,1.33-.04,2.67.03,4,0,1.8,1.03,2.76,1.36,5.12,1.43,47.53-.36,95.27,2.47,142.88,7.57.66-.04,1.34,0,2,0,1.08.86,3.41,1.53,7,2,.67,0,1.33.01,2,0,.91.55,1.91.88,3,1,4.79-.97,32.44,9.98,38,13,3.92,3.46,1.3,4.64-3,4-3.32-.91-6.69-2.06-10-3l-2-1c-3.62-1-7.39-2.05-11-3-3.96-1.84-8.63-3.17-14-4-.67,0-1.34-.02-2,0-5.53-2.42-16.21-3.58-24.04-4.3-29.5-2.73-59.55-4.15-89.41-5.14-14.25-.47-31.75-.69-43.54.44-.8-.18-2.73.24-3,0-10.8-.59-33.15-.08-6.91,1.06,3.17-.9,5.47-.59,6.91.94.89-.14,2.03.03,3,0,1,.72,2,.72,3,0,2.4.11,4.03.8,6,1,1.73,1.08,3.37,1.86,6,1,4.4.49,9.51.42,14,1,2.14,1.77,4.8,2.43,8,2,.64-.08,1.35.01,2,0,1.38.48,2.5.79,4,1,1.24-.14,2.7.01,4,0,1,.72,2,.72,3,0,1.27.11,2.3.9,3,1,2.82,2.05,10.04,3.24,15,3,2.08.42,4.51.46,7,1,.96.57,1.96.91,3,1,1.14-.31,3.6.74,5,1,1.18,1.55,2.52,1.88,4,1,1.72.34,3.28.62,5,1,1.26.94,2.25,1.68,4,1,4.07.94,7.98,1.93,12,3,1.26.96,2.25,1.65,4,1,3.39.93,6.65,2.01,10,3,.98,1.06,1.98,1.4,3,1,13.69,4.12,24.71,7.47,38,13,.14,2,.19,4.33-2,5-.62,1.42-2,1.04-3,0-1.87-.24-2.19-.78-3-1-55.89-22.85-118.17-30.08-178.63-36.5-5.73-.61-12.17-.29-3.23,3.81,12.99,5.33,25.27,10.55,36.86,15.69,8.98,4.98,17.66,9.91,26,16,2.1,2.08,1.62,3.6-1.4,3.71l-8.6-4.71c.06,1.9-1.79,1.5-3,1-2.47,1.57-3.77.82-3-2-19.32-13.23-42.86-23.23-65.73-29.37-1.95-.82-1.29-1.94.73-2.63-.22-1.98,1.44-3.32,5-4-1.72-3.53-4.05-5.2-7-5-.55,1.99-1.45,1.99-2,0-1.11-1.51-1.77-3.51-2-6-.84,2.95-2.67,2.69-4,0l-1.43-1.2c2.09-4.17.23-5.1-5.57-2.8l-.89,2.13c-3.16,1.68-17.49,8.01-16.11,1.87l1.9-2.22c30.18-13.96,61.85-27.02,94.25-31.99l2.85-1.78c-.2-2.9,2.45-3.55,4-1,1.28-2.53,4.42-2.53,5.73-.31,3.82.18,5.92-.35,7.27-1.69.66.03,1.34-.05,2,0,4.5-.02,9.75-.28,11-2,.64-.09,1.36.09,2,0,4.49,1,11.59-.36,14-2,3.35-.33,6.6-1.25,10-1Z" style="fill: #010101;"/>
  <path d="M472,1009c29.48-1.83,64.22-.6,93.48,4.05,1.86.29,4.07-1.32,3.52,1.95-14.21.75-34.43-3.25-49.45-4.05-52.39-2.78-98.98,4.41-149.17,18.97-1.65.48-2.87-.91-2.38,2.07,6.88-1.06,13.68-2.89,20.58-3.91,30.56-4.53,62.39-4.91,93.41-4.09,2.84,1.54,1.36,3.32-1.16,4.44,61.2,1.61,118.21,10.11,177.86,27.09.68-1.55,1.45-2.12,3.3-1.54,2.38,1.27,5.94,2.74,6,6-2.47-.14-5.04.23-7.51.02-19.58-1.7-46.75-11.79-67.23-15.77-41.67-8.1-85.78-10.4-127.74-11.26-25.19-.52-50.5,1.12-75.26,4.77-10.79,1.59-21.5,3.52-32.25,5.25-.24,1.73,2.29.97,3.49.99,4.47.09,9.05.16,13.51,0-.53,5.73-8.56,2.12-11.5,2.12-3.25,0-6.89,1.31-11.03.91-2.79-.27-6.12-.95-4.02-4.08,1.17-1.75,7.27-2.64,9.55-2.96.75-3.9-4.34-1.17-6.48-.98-1.49.13-3.03-.08-4.52-.02-.87-3.86,4.74-5.59,7.72-6.77,33.66-13.34,76.15-20.63,112.28-23.22.73-2.93,4.2-2.81,5,0Z" style="fill: #020302;"/>
  <path d="M485,1024c5.32,1.94,11.8,2.69,19.46,2.25,5.44,1.64,10.62,1.89,15.54.75.99.08,2.01-.08,3,0,1.9.33,2.29.69,1.16,1.11,18.47,1.45,36.75,3.41,54.84,5.89.98-.08,2.01,0,3,0,.91.55,1.91.88,3,1,1.68-.34,5,.68,7,1,.89.51,1.89.85,3,1,.87-.12,2.08-.05,3,0,1.27.25,2.46.58,1.17,1.1l12.83,2.9c1.26-.06,2.76-.11,4,0,1.22,1.37,3.3,2,6,2,.62-.05,1.39-.07,2,0l2,1c1.63.37,3.34.62,5,1,.95.58,1.95.91,3,1,1.88-.38,4.13.63,6,1,1.08,1.16,2.93,1.59,6,2,4.26-.21,12.13,2.93,16,5l-2.5,4.06c-18.17-4.62-36.43-9.15-54.74-13.31-12.54-2.85-23.41-4.92-36.17-6.83-3.51-.52-10.37-2.81-13.08-2.79-14.37.1-29.17-2.27-44.02-3.1-17.94-1.01-36.9-1.87-54.94-2.07s-37.11.54-55.54,3.05c-.32-2.14.81-2.48,2.54-2.96,3.83-1.06,9.86-1.5,14.04-1.96,18.4-2.05,36.36-2.23,54.9-1.06,2.35.15,9.86.9,9.52-3.01,1,.03,2-.03,3,0Z" style="fill: #010101;"/>
  <path d="M391,1052c-.55-3.03,1.53-1.93,3.47-2,30.82-1.04,61.51,1.3,92.01,3.02,19.92,1.12,37.97,1.75,57.77,5.25,1.6.28,4.44.26,3.75,2.73-8.9.33-21.89-3.34-31.48-4.02-25.78-1.82-52.27-3.15-77.97-4.03-14.42-.49-34.21,2-47.55-.95Z" style="fill: #020302;"/>
  <path d="M538,1052c-10.29.59-19.15-1.31-29.48-2.02-18.51-1.27-36.67-.79-55-3.01-4.67-.56-6.75-1.22-10.23-.16-2.36.72-9.77-.82-12.75-.87-11.36-.21-23.94.93-35.06.07-1.43-.11-6.32-.4-5.48-3.02,40.53-1.05,87.28,1.87,127.58,5.92,6.61.67,14.46.25,20.42,3.08Z" style="fill: #020302;"/>
  <path d="M579,1034c-6.33.54-7.44-.26-13.59-.91-12.66-1.33-26.88-1.39-39.23-3.81-1.86-.37-3.75.53-3.18-2.28,16.91,1.41,34.46,2.53,51.24,5.26,1.44.23,3.86.56,4.76,1.74Z" style="fill: #020302;"/>
  <path d="M568,1097c6.29,5.42,4.29,7.08-6,5-4.23-1.86-5.29-2.79-10-4-1.69-.79-1.85-1.56,0-2,0-.65.14-1.31-.06-1.95l-2.94-2.05,5-1c4.88,2.03,9.19,3.53,14,6Z" style="fill: #010101;"/>
  <path d="M388,1054c-4.96.8-3.65,1.27-9.48.97-2.71-.14-13.44.64-13.53-3.47,6.81-4.2,15.23-.33,23.01-1.51.11.57-.18,1.84,0,2v2Z" style="fill: #020302;"/>
  <path d="M520,1027c-3.56,5.03-11.38.32-15.61.02-4.68-.33-10.88.45-15.93.03-2.27-.19-3.51-.36-3.45-3.05,11.71.38,23.76,2.08,35,3Z" style="fill: #020302;"/>
  <path d="M577,1102c-.1,1.28-1.08,2.8-1,4-5-.01-9.57-2.05-14-4-.4-3.21.94-1.76,2.82-1.32,1.09.26,4.89,1.61,5.18,1.32l-2-5c3.06,1.57,6.05,3.25,9,5Z" style="fill: #010101;"/>
  <path d="M590,1068c2.96,1.61,6.44,2.62,8,5.99-4.31.98-7.43-1.01-11-1.99l2.87-1.13.13-2.87Z" style="fill: #020302;"/>
  <path d="M459,1064c-2.88,2.2-8.52.06-11.82-.72-1.84-.44-3.75.6-3.18-2.28,5.38.73,9.96,1.97,15,3Z" style="fill: #020302;"/>
  <path d="M550,1061c4.63-.04,5.84-.18,11,1.54,1.7.57,3.57-.29,3,2.46-4.46-1.17-10.49-.84-14-4Z" style="fill: #020302;"/>
  <path d="M612,1041c-4.63.22-6.03-.48-10.8-1.74-1.81-.48-3.77.68-3.2-2.26,4,.2,10.87,1.58,14,4Z" style="fill: #020302;"/>
  <path d="M573,1015c.05,0-.26-.74.64-.84,4.11-.46,7.26,1.25,11.37.84v2c-3.49.17-8.92-.84-12.01-2Z" style="fill: #020302;"/>
  <path d="M428,1059c-.1.01-.62.87-1.53,1-2.35.32-7.25-.12-6.47-3,2.46.32,4.85.94,7.33,1.21l.67.79Z" style="fill: #020302;"/>
  <path d="M386,1043c.11,3.15-2.29,3.26-5,3v-2c.36-.01,2.75-.94,5-1Z" style="fill: #020302;"/>
  <path d="M547,1054c-.26,0-.9.74-1.63.74-1.67,0-3.51-1.01-5.34-.79l-.03-1.95c2.34-.01,5.33.16,7,2Z" style="fill: #020302;"/>
  <path d="M646,1049c-.09,0-.52.92-1.44.94-1.29.02-2.98-1.08-4.48-1.05l-.08-1.89c2,.4,4.61.16,6,2Z" style="fill: #020302;"/>
  <path d="M406,1056c-1,1.84-4.14.79-6.01,1v-2c2.33.23,4.57.84,6.01,1Z" style="fill: #020302;"/>
  <path d="M622,1043c-.09,0-.46.94-1.43.94-1.3,0-2.98-1.08-4.49-1.05l-.08-1.89c1.69.15,3.54,1.03,5.3,1.22l.7.78Z" style="fill: #020302;"/>
  <path d="M686,1039l2-4c.59.66,2.51.85,2,2.49-1.1,1.64-2.26,1.51-4,1.51Z" style="fill: #020302;"/>
  <path d="M478,1068c-.96,2.45-2.6,2.82-3.87.39l-.13-1.39c1.68.31,3.01.81,4,1Z" style="fill: #020302;"/>
  <path d="M587,1017c.27-.03,2.96-1.96,5-1v2c-1.76.11-3.79.42-5-1Z" style="fill: #020302;"/>
  <path d="M594,1018c.22-.03,1.89-1.91,4-1v2c-1.38-.17-2.94.49-4-1Z" style="fill: #020302;"/>
  <path d="M503,1074l-.61.86-3.38.14v-2c1.3.35,2.73.65,4,1Z" style="fill: #020302;"/>
  <path d="M487,1070l-.61.86-3.38.14v-2c1.4.31,2.79.72,4,1Z" style="fill: #020302;"/>
  <path d="M434,1060c-.86.1-2.4,1.63-4,1v-2c1.5-.03,2.95-.32,4,1Z" style="fill: #020302;"/>
  <path d="M516,1078l-.5.99h-2.49s0-1.99,0-1.99c1.17.34,2.13.74,3,1Z" style="fill: #020302;"/>
  <path d="M585,1035c-.18.04-.6,1.77-3,1v-2c1.21,0,2.19-.11,3,1Z" style="fill: #020302;"/>
  <path d="M469,1066c-.17.05-.62,1.77-3,1v-2c1,.22,2.21-.29,3,1Z" style="fill: #020302;"/>
  <path d="M595,1037c-.2.03-1.39,1.71-3,1v-2c.7.11,1.59-.17,2.35.16l.65.84Z" style="fill: #020302;"/>
  <path d="M441,1060v2s-.5,0-.5,0h-2.49s0-2,0-2c.99,0,2.02-.08,3,0Z" style="fill: #020302;"/>
  <path d="M528,1002v2s-.5,0-.5,0h-2.49s0-2,0-2c1,.02,2-.05,3,0Z" style="fill: #020302;"/>
  <path d="M621,1023c.2-.03,1.39-1.71,3-1v2c-.65-.15-1.6.19-2.35-.16l-.65-.84Z" style="fill: #020302;"/>
  <path d="M606,1020c.18-.04.6-1.77,3-1v2c-1.05-.19-2.19.26-3-1Z" style="fill: #020302;"/>
  <path d="M634,1046c-.18.04-.6,1.77-3,1v-2c.98.22,2.2-.28,3,1Z" style="fill: #020302;"/>
  <path d="M394,1054v2s-.5,0-.5,0h-2.49s0-2,0-2c.99-.03,2.01-.05,3,0Z" style="fill: #020302;"/>
  <path d="M552,1055c-.18.04-.6,1.77-3,1v-2c1.21-.03,2.19-.09,3,1Z" style="fill: #020302;"/>
  <path d="M616,1022l2-1v2c-2.01-.25-1.88-.98-2-1Z" style="fill: #020302;"/>
  <path d="M575,1068l2-1v2c-1.33-.38-1.89-.97-2-1Z" style="fill: #020302;"/>
  <path d="M517,1002c-.11.02-.66,1.44-2,1v-2c.47.03.94.02,1.4.17l.59.83Z" style="fill: #020302;"/>
  <path d="M637,1027l2-1v2c-1.42-.36-1.89-.97-2-1Z" style="fill: #020302;"/>
  <path d="M652,1031l2-1v2c-1.67-.4-1.89-.97-2-1Z" style="fill: #020302;"/>
  <path d="M626,1044l-2,1v-2c2.01.21,1.88.97,2,1Z" style="fill: #020302;"/>
  <path d="M660,1033l2-1v2c-1.61-.37-1.89-.97-2-1Z" style="fill: #020302;"/>
  <path d="M437,968c.11.1,1.16-.25,1.69.27,1.6,1.58,1.2,3.66,5.31,2.73-4.11,4.84-9.13,11.45-12.83,16.67-1.77,2.51-11.86,17.56-10.17,19.32,2.49-.6,4.34-1.13,7-1l-.08,1.9c-4.68,2.29-8.69-.08-12.92.1-.79-.5-1.63-1.12-1.9-2.06-2.12-7.33,15.34-32.32,21.26-38.25l2.64.31Z" style="fill: #020302;"/>
  <path d="M457,1002c.56,3.25-1.63,1.64-3.49,1.98-3.79.71-7.33,3.29-10.51.02,4.43-.6,9.18-1.52,14-2Z" style="fill: #020302;"/>
  <path d="M441,1004l-.08,1.9c-3.21.73-6.08,1.44-9.45,1.09-1.76-.18-1.39-.98-1.47-.99,2.99-1.78,7.53-1.52,11-2Z" style="fill: #020302;"/>
  <path d="M224,773c-5.85,1.4-10.43.08-16-2.01-.17-2.96,2-3.21,4.4-2.94,35.12,3.89,82.25,14.89,114.81,28.28,1.56.64,3.33.03,2.78,2.68-18.52-4.05-38.53-12.79-57.98-17.52-9.44-2.3-41.01-10.15-48.02-8.48Z" style="fill: #030302;"/>
  <path d="M251,851c-.32-4.47-4.67-4.51-7.34-6.16-12.36-7.64-24.78-15.21-38.66-19.85l.51-2c4.25.2,6.75,2.99,9.77,4.23,5.01,2.05,27.2,12.38,28.72,11.78,1.43-.56,3.9,2.31,5,3,1.11,1.22,2.44,2.22,4,3,4.96,1.24,12.94,7.52,17,11,3.53,4.6-2.99,5.24-4.47.58-1.63,1.69-3.14,2.16-4.53,1.42-.27-.29-.72-.39-1-1-2.72-1.85-5.38-3.85-8-6-.33-.07-.7.08-1,0Z" style="fill: #010101;"/>
  <path d="M228,783c8.37-.77,15.62,3.03,23.96,5.54,6.33,1.9,13.08,3.29,19.31,5.73,1.61.63,3.26.23,2.73,2.73-14.02-3.18-27.46-8.98-41.48-12.01-1.69-.37-3.53-.07-4.52-1.99Z" style="fill: #030302;"/>
  <path d="M261,785c-6.87-.85-7.23-1.51-13.22-3.28s-15.5-3.1-21.1-5.72c-1.26-.59-.48-1.72-.69-2l25.04,6.46c3.01,1.65,8.03,1.39,9.96,4.54Z" style="fill: #030302;"/>
  <path d="M194,776c-.39-3.29.96-1.65,2.81-1.31,8.5,1.54,18.24,3.04,26.43,5.61,1.67.53,3.28.24,2.76,2.7-8.72-.59-22.6-5.21-32-7Z" style="fill: #030302;"/>
  <path d="M261,858c1.78-1.39,3.02-4.71,5.85-2.83.22.15,2.75,6.33,3.15.83,2.16,1.85,3.19,2.61,5,5-1.19,1.94-3.87,2.24-6,2-.48-.05-1.38-.74-2-1-.81-1.02-1.77-1.61-3-2-1.07-.73-1.84-.74-3-2Z" style="fill: #010101;"/>
  <path d="M309,811c7.28,1.03,12.3,4.48,19.34,8.2,1.46.77,3.21.31,2.66,2.8-1.42-.39-2.91-.53-4.25-1.24l-17.75-9.76Z" style="fill: #030302;"/>
  <path d="M335,862c.55,3.01-1.53,1.95-3.47,2s-4.05-.17-6.05-.02c-3.68.27-8.88,2.67-12.48.02,7.19-.63,14.36-2.4,22-2Z" style="fill: #020302;"/>
  <path d="M296,806c-5.65-2.2-11.33-4.37-17-6.54-1.63-.63-3.59.36-3-2.46,6.08,1.31,11.13,3.03,16.78,5.72,1.67.79,3.45.53,3.22,3.28Z" style="fill: #030302;"/>
  <path d="M382,848c3.26-.27,7.34,3.75,8,7-.38.34-8.44-3.34-9.35-3.96-1.04-.72-.56-1.97-.65-2.03.62-.21,1.46-.96,2-1Z" style="fill: #030302;"/>
  <path d="M384,822c1.7.43,2.59.71,1,2-5.97-2.11-7.17-3.58-12-6-1.33-1.41-.77-1.92,1-1,.37.42,8.95,4.77,10,5Z" style="fill: #030302;"/>
  <path d="M340,801c1.69.58,3.04,2.03,5,2,2.66.32,2.54,1.24,0,2-2.94-.45-6.48-2.07-9.25-3.29-1.55-.68-3.3-.11-2.75-2.71,2.21.38,4.85,1.26,7,2Z" style="fill: #030302;"/>
  <path d="M423,847c-3.17-1.41-8.61-3.15-9-7,1.04.2,7.17,3.75,8.03,4.51,1.06.95.79,2.28.97,2.49Z" style="fill: #030302;"/>
  <path d="M352,807c1.31.32,8.58,2.79,8.89,3.14.35.4.11,1.28.11,1.86-.35-.17-1.43.14-2.24-.24-1.36-.64-6.41-2.62-6.65-2.89-.34-.39-.1-1.28-.11-1.86Z" style="fill: #030302;"/>
  <path d="M181,773c.37-.01,1.42-.95,2.53-.98,1.83-.05,3.56.97,5.38,1.09l.08,1.89c-2.49-.4-5.98.42-8-2Z" style="fill: #030302;"/>
  <path d="M340,827c-2.34-.43-6.66-3.04-8-5,2.82.83,7.79.95,8,5Z" style="fill: #030302;"/>
  <path d="M370,814c2.12,1.02,2.5,2.35,0,3-2.57-1.26-5.25-3.15-7-4,2.2.06,4.9.45,7,1Z" style="fill: #030302;"/>
  <path d="M299,807c.95-1.66,8.03.57,7,3-3.34-.83-4.7-2.09-7-3Z" style="fill: #030302;"/>
  <path d="M370,814c4.98,1.29,2.76,1.56,4,3l-1,1c-.69-.35-1.92-.47-3-1v-3Z" style="fill: #020302;"/>
  <path d="M298,865v2c-1.47-.07-3.05.21-4.52,0-1.79-.26-1.39-.98-1.48-.99,1.5-1.73,3.95-.84,6-1Z" style="fill: #020302;"/>
  <path d="M297,798c-.93,2.03-5.9.47-5-2,1.58.67,3.2,1.22,5,2Z" style="fill: #030302;"/>
  <path d="M344,861v2c-2.04.96-4.73-.97-5-1,1.26-1.63,3.32-.81,5-1Z" style="fill: #020302;"/>
  <path d="M345,803c.2,0,1.09-1.55,3.37-.04,1.18.78.42,1.6.63,2.04-.65,1.44-2,1.09-3,0-.33-.01-.68.05-1,0v-2Z" style="fill: #020302;"/>
  <path d="M172,772c.56-.06,3.04-1.97,5-1v2c-1.45,0-2.9.19-4.34-.17l-.67-.83Z" style="fill: #030302;"/>
  <path d="M353,834c2.13.16,5.61.23,5,3-1.86-1.13-2.88-1.54-5-3Z" style="fill: #030302;"/>
  <path d="M253,845c-1.94-.49-4.1.52-4-3,1.11.7,3.46.48,4,3Z" style="fill: #020302;"/>
  <path d="M156,770c.33-.03,2.27-1.89,4-1v2c-1.1-.04-2.23.19-3.32-.17l-.68-.83Z" style="fill: #030302;"/>
  <path d="M308,803l-.59.92c-1.96-.48-4.03-.61-3.41-2.92,1.55.7,2.81,1.45,4,2Z" style="fill: #030302;"/>
  <path d="M357,860v2c-1.33,0-2.67,0-4,0v-2c1.32-.1,2.68.08,4,0Z" style="fill: #020302;"/>
  <path d="M311,864v2c-1.33,0-2.67,0-4,0v-2c1.32-.12,2.69.12,4,0Z" style="fill: #020302;"/>
  <path d="M384,822c.86.19,2.05-.14,3,0v3c-1.13-.33-1.62-.87-2-1l-1-2Z" style="fill: #020302;"/>
  <path d="M349,805c.23.48,1.21,1,1,2-1.61-.32-3.42.38-4-2,1,.04,2-.02,3,0Z" style="fill: #030302;"/>
  <path d="M288,794l-.5.99h-2.49c-.15-.61.18-1.57,0-1.99l1.57.02c.71-.06,1.12.85,1.43.98Z" style="fill: #030302;"/>
  <path d="M272,788l-.5.99h-2.49s0-1.99,0-1.99c1.26.36,2.02.68,3,1Z" style="fill: #030302;"/>
  <path d="M410,838c.13-.03-.08-1.53,2-1v3c-1.68-.13-2.26.3-2-2Z" style="fill: #020302;"/>
  <path d="M372,859v2s-.5,0-.5,0h-2.49s0-2,0-2c1-.03,2,.02,3,0Z" style="fill: #020302;"/>
  <path d="M289,866v2c-1.61.71-2.79-.97-3-1l.65-.84c.77-.28,1.56-.13,2.35-.16Z" style="fill: #020302;"/>
  <path d="M282,867v2c-4.25.59-2.41-.74-3-2h3Z" style="fill: #020302;"/>
  <path d="M165,771c.63-.07,1.81-1.37,3-1v2c-.78-.04-1.58.13-2.34-.16l-.65-.84Z" style="fill: #030302;"/>
  <path d="M346,830c.82.12,2.73-.23,3,0,.23.19-.23,1.57,0,2-1.45-.01-2.63-.53-3-2Z" style="fill: #030302;"/>
  <path d="M388,825c.39.09.93-.21,1.38-.02.68.29.66,2.91,3.51,2.11l.1,1.91c-2.01-.69-5.6-1.59-5-4Z" style="fill: #030302;"/>
  <path d="M341,827c.99.09,2.01-.08,3,0,.13.62-.18,1.54,0,2-1.44-.02-2.64-.54-3-2Z" style="fill: #030302;"/>
  <path d="M397,830c.48-.08,2.41-2.94,2,1h-2s0-1,0-1Z" style="fill: #020302;"/>
  <path d="M402,833c1.88-.33,2.33.12,2,2-.36-.16-1.46.32-1.88-.11s.03-1.45-.12-1.89Z" style="fill: #030302;"/>
  <path d="M349,860v2s-1.34-.12-1.34-.12l-.66-.87c.12-.01-.08-.85,2-1Z" style="fill: #020302;"/>
  <path d="M247,871c-4.84,2.95-11.02-1.61-15.72-2.78-29.26-7.28-61.03-10.74-90.86-14.15-24.52-2.8-52.57-7.09-76.94-6.09-3.13.13-8.32,3.2-10.48-.98,34.31-2.47,70.72,1.77,105.42,6.08,25.09,3.12,65.85,8.39,88.58,17.92Z" style="fill: #020302;"/>
  <path d="M257,872v2c2.32.01,4.67,0,7,0,1.55.03,4.41.55,5,2,.03.32.02.68,0,1-.04.66.12,1.43,0,2-.04.2-.81.57-1,1-.34.89-1.34,1.56-3,2-.42,2.59-4.44,2.02-5,0-.91-.55-1.91-.89-3-1,.11,2.04-3.3,1.6-4,0-.62,1.35-2.41,1.34-3,0-1.71.05-4.54.3-6,0-.32-.06-5.7-2.31-6-2.5-2.14-1.38-1.13-4.13,1.48-4.51,3.04-.44,10.12,1.71,9.51-1.99h8Z"/>
  <path d="M252,851c5.7,1.25,3.54,2.68,5.25,3.8,1.94,1.26,1.19-1.24,2.75,2.2-3.18-.79-6.37-3.21-8-6Z" style="fill: #020302;"/>
  <path d="M272,869c-.13.51.22,1.31-.04,1.93l-4.96.07v-2c1.6-.2,3.38.13,5.01,0Z" style="fill: #020302;"/>
  <path d="M264,870v2s-3.39-.14-3.39-.14l-.61-.86c1.71-.53,2.11-.64,4-1Z" style="fill: #020302;"/>
  <path d="M48,847v2s-.5,0-.5,0h-2.49s0-2,0-2c1-.01,2,.02,3,0Z" style="fill: #020302;"/>
  <path d="M264,860h3s0,2,0,2c-2.37-.99-1.87-1.23-3-2Z" style="fill: #020302;"/>
  <path d="M261,642c1.29,1.1.17,1.93-1.48,2-2,.09-4.03-.16-6.03-.03-4.09.28-5.18.11-8.97,0-3-.08-6.03.18-9.03.03-1.95-.1-1.57.12-1.49-2h27Z" style="fill: #010101;"/>
  <path d="M634,681.01c.36,2.26-.2,2.37-2.34,1.83-12.54-5.36-24.78-11.39-37.36-16.64-13.17-5.5-27.22-10.56-40.56-15.44-5.24-1.91-12.19-3.77-16.75-6.3-1.37-.76-2.51.18-1.98-2.46l32.29,10.21c9.73,4.82,20.6,8.02,30.7,12.3,12.15,5.15,23.88,11.34,36.01,16.5Z"/>
  <path d="M533,641.01c.3,2.47-.11,2.18-2.29,1.79-7.03-1.27-21.56-6-28.49-8.56-1.59-.59-2.71.6-2.22-2.23l33,9.01Z"/>
  <path d="M401,1078c-.43,1.92-4.02-.25-4.76-.72-2.71-1.73-2.17-1.36-5.24-2.76-11.5-5.24-23.16-10.09-35-14.53-.3-4.28,8.36-3.29,11.51-3.01,20.12,1.79,40.73,4.92,61.07,7.93,22.56,3.33,44.51,6.58,66.63,12.37,16.21,4.24,32.08,9.87,48.02,15.02,1.67.54,3.29.22,2.76,2.7-13.71-3.7-27.04-9-40.76-12.74-40.68-11.09-86.76-17.99-128.76-21.24-3.82-.3-6.64-1.12-10.99-1.02-1.21.03-3.72-.75-3.49.99,14,3.35,26.59,10.13,39,17.01Z" style="fill: #020302;"/>
  <path d="M417,1093c.23-.06.49-1.23,2.23-.87,3.15.65,8.32,6.76,7.77,1.87,7.45,5.44,12.44,10.14,18.3,16.74.45.51,1.57.14,1.7.26.22.19,1.43,4.56,2,5.48-.4,2.02-6.29,1.91-8.06,1.08-1.75-1.18-.39-4.53-1.07-5.46-.33-.45-1.64.06-1.87-.1-2.9-.29-6.1-.71-4-4-1.23-1.3-2.47-2.07-4-3-2.2,2.86-9.54-2.08-7-5l-4.13-3.1c-2.08-.33-4.62-3.19-1.87-3.9Z" style="fill: #010101;"/>
  <path d="M552,1096c0,.67,0,1.33,0,2-1.41-.36-2.44-.18-3-2,.96.12,2.02-.08,3,0Z" style="fill: #020302;"/>
  <path d="M250,883c.32-1.66,2.21-1.49,3,0,.24-.47.49-.85.82-.93,4.33-1.05,38.65,11.32,43.24,13.1,28.42,11.03,57.09,23.36,83.94,36.83.3.1.7-.09,1,0,7.86,3.96,15.53,8.29,23,13,.29.09.68-.08,1,0,4,2.05,7.67,4.38,11,7,.96.59,2,1.36,3,2,1.69.11,2.69.78,3,2,5.95,3.94,9.5,7.57,14,12-3.17,2.65-6.02,6.7-8.41,10.09-6.04,8.56-13.5,19.2-13.59,29.91-1.24.05-2.66.82-4,1l-1.83,1.54c-34.04,5.37-66.53,18.75-97.36,33.19l-2.81.28c-1.18,1.01-4.62,1.84-5,0-2.08-1.45-5.46-1.97-7.98-2.52-32.7-7.2-64.45-10.48-97.51-10.45-4.39,0-9.23.28-13.52-.02-2.94-.21-4.35-.7-7-2-.16-.08-.34-1.08-1.04-1.45-40.78-21.27-85.83-43.03-130.56-54.48-1.15-.29-3.08-.81-1.4-2.07,1.19-.08,2.34-.53,3.36-1.13,46.64-27.13,93.5-54.86,145.4-71.62,14.46-4.67,42.08-13.94,56.24-15.26Z" style="fill: #121710;"/>
  <path d="M253,881c2.66.32,2.54,1.24,0,2-.94-.06-2.07-.09-3,0v-2c1.23-.03.41-.38,3,0Z" style="fill: #010101;"/>
  <path d="M241,688c.97,2.99-3.64,2.19-5.55,2.05-10.29-.78-20.77-1.15-30.98-2.02-1.81-.15-5.25-.45-4.48-3.03,5.88-1.62,11.61.51,17.48,1.02,1.99.17,4.07-.25,6.04-.04,5.8.62,11.65,1.72,17.48,2.02Z"/>
  <path d="M341,720c-2.02,1.81-15.7-7.06-18.87-7.63l-4.13-3.36c2.19.75,5,.72,7.04,1.45,1.35.48,2.32,1.77,3.72,2.28,4.02,1.49,11.36,1.85,12.24,7.26Z"/>
  <path d="M259,691.01c-.05,1.65.65,2.19-1.29,1.8-3.41-.68-6.84-1.07-10.23-1.82-1.72-.38-2.95,1.07-2.48-1.98l14,2Z"/>
  <path d="M298,701.01l-.51,2.01c-2.06-.7-4.22-1.11-6.28-1.77-1.69-.54-2.67.5-2.21-2.24,3.65-.98,5.68,1.9,9,2Z"/>
  <path d="M268,693.01c.75,4.02-3.82.17-6.01.99-.67-4.12,3.9-.59,6.01-.99Z"/>
  <polygon points="315 707.01 315 709 310 707.99 310 706 315 707.01"/>
  <rect x="188" y="684" width="4.99" height="1.99"/>
  <rect x="180" y="684" width="4.99" height="1.99"/>
  <rect x="140" y="679.01" width="6.99" height=".99" style="fill: #131811;"/>
  <path d="M307,704c1.09,1.09-.9,3.09-1.99,1.99s.9-3.09,1.99-1.99Z"/>
  <path d="M198,684c1.09,1.09-.9,3.09-1.99,1.99s.9-3.09,1.99-1.99Z"/>
  <rect x="270" y="731" width="3.99" height="1.99" style="fill: #010101;"/>
  <path d="M313,1056c1.56-.52,4.18-.5,5,1,.59-2.82,6.37-2.77,7,0,1.97-.42,3.3-.08,4,1,1.83-1.29,2.14-1.09,3,1,1.06-.68,1.7-.23,2,1,.56-2.58,1.05-2.39,2,0,25.7,6.1,52.53,16.9,75,32,.77.47,1.96,1.33,3,2,.55-.39,1.33-.58,1.8-.08,2.22,2.34,4.38,4.2,7.2,6.08.82,1.77,5.04,4.25,7,5,1.53.7,3.17,1.52,4,3,.57.91,3.15,3.39,4,4l-31.26,5.24c-25.91,5.43-51.02,13.47-75.74,22.76-.69-.83-2.99-2.14-4-3-1.47-.35-2.47-1.01-3-2-1.19-3.03-8.19-7.65-11-10-2.69-.55-4.36-1.88-5-4-.92-.74-2.07-1.27-3-2-3.17-1.11-5.74-3.58-8-6-.33-.42-.79-.71-1-1-7.11-4.78-13.78-10.11-20-16-1.07-2.55-4.01-3.38-6-5-4.11-1.45-7.97-4.95-11-8-.35-.6-.75-1.36-1-2,6.99-3.27,13.48-7.62,20.3-11.2,3.28-1.72,7.39-3.06,10.42-4.58,4.63-2.34,12.77-8.29,17.28-9.22-.27-3.28,6.46-3.13,7,0Z" style="fill: #121710;"/>
  <path d="M331,1148c-.9.22-2.88.04-4,0,.05-1.7-4.37-6.19-.48-6.03s4.89,2.45,4.48,6.03Z"/>
  <path d="M96,657c1.09,1.09-.9,3.09-1.99,1.99s.9-3.09,1.99-1.99Z" style="fill: #030302;"/>
  <path d="M304,871c-.53-.07-2.69-1.94-4.45-1-2.63-3.03,4.83-2.07,6.98-2,3.17.1,2.55-.29,2.46,3-1.57.02-3.52.19-5,0Z" style="fill: #010101;"/>
  <path d="M288,873c-2.8-3.28.91-3.61,3.58-3.92s6.43-1.37,5.42,2.92c-.66-.06-1.35.07-2,0-1.83-.16-3.5.17-5,1-.63.09-1.35-.07-2,0Z" style="fill: #010101;"/>
  <path d="M264,874c.07,0,.29-.75,1.26-.75s2.44.92,3.67.85c.28.61.02,1.27.07,1.9-1.7-.43-3.93-.5-5-2Z" style="fill: #010101;"/>
  <rect x="312" y="867" width="3.99" height="1.99" style="fill: #010101;"/>
  <path d="M257,881c1.2-.44,2.67-.38,3,1,1.64.1,3.41-.17,5,0,.32-.88.65-.88,1,0,.21.3-.56,1.43.67,2,6.66,3.1,17.92,5.48,25.33,8,1.46-1.71,2.33-1.21,2,1,2.48.78,3.15.58,5.38.98.49.09,4.07,5.22,8.62,3.02,1.52.12,2.85.79,4,2,.1.55-.27,1.62.06,1.91.57.51,4.98.67,6.24,1.12,1.18.41-.28,1.66,2.7,1.97.81-2.23,3.07-2.1,4,0,.05.61-.23,1.27.1,1.86,3.86.68,7.19,3.43,10.9,4.14.31-2.03,2.52-1.94,3,0,.74.24,1.41.91,2,2,.46-2.69,2.91-2.16,4,0l2.09,1.53c4.76,1.26,9.07,3.41,12.91,6.47.52,1.02,15.47,7.04,18.04,8.46,1.6.88,3.13,1.23,2.96,3.54-10.79-3.45-23.19-10.01-34-14.5-25.15-10.45-51.47-22.45-77.76-30.24-4.83-1.43-11.43-3.93-16.24-4.26v-2c.93.14,3.14.17,4,0Z" style="fill: #020302;"/>
  <path d="M350,913c.32.05.67-.04,1,0l2,1c1.89-.5,2.68.94,3,1-.95,3.02,2.97,2.09,3.89,3.14.43.49-.06,1.53.11,1.86-3.45-1.2-7.04-2.62-10.36-4.14-1.63-.75-5.2-1.46-4.64-3.86.92-1.17,2.58-.84,5,1Z" style="fill: #010101;"/>
  <path d="M382,932c6.79,2.1,11.11,4.99,16.94,7.56l6.06,5.44c-5.67-1.79-13.74-7.13-19.34-10.15-1.39-.75-3.08-1.08-3.66-2.85Z" style="fill: #020302;"/>
  <path d="M406,945c4.24,1.1,4.47,1.87,7.96,3.49,1.72.8,3.19,1.14,3.04,3.51-2.27-1.39-6.38-3-8.95-4.57-.99-.6-1.64-1.36-2.05-2.43Z" style="fill: #020302;"/>
  <path d="M420,954h3s0,2,0,2c-.91-.6-2.14-1.45-3-2Z" style="fill: #020302;"/>
  <path d="M295,872c-1.24,1.68-3.36.75-5,1v-2c2.04-.96,4.73.97,5,1Z" style="fill: #010101;"/>
  <path d="M310,894c-.68,3.53,1.48,1.97,2,5-2.25.03-4.56.81-4-2v-3c.49.19,1.49-.19,2,0Z" style="fill: #010101;"/>
  <path d="M292,892v-3c3.78.44,6.06,1.86,2,4-1.02-.32-1.63-.87-2-1Z" style="fill: #010101;"/>
  <path d="M268,880c-.41.91,1.03,2.55-2,2-.06-.09-.65.04-1,0v-2s3,0,3,0Z" style="fill: #010101;"/>
  <path d="M350,913c-1.71-.27-3.49-.83-5-1-1.3-.14-2.68.06-4,0-.9-.25-1.56-.91-2-2-.25-.23-2.19.15-3,0v-2c-.87-.28-.86-.62,0-1,4.86,1.02,10.43,1.88,14,6Z" style="fill: #000100;"/>
  <path d="M325,902c1.23.35,7,1.74,7,2.51,0,2.59-1.43,1.6-3.06,1.04-1.37-.47-2.06-1.27-3.94-1.55-2.03-.23-1.94-1.23,0-2Z" style="fill: #010101;"/>
  <path d="M325,902c.04.66-.06,1.34,0,2-1.24-.18-2.71.14-4,0v-3c1.96-.82,3.25.79,4,1Z" style="fill: #000100;"/>
  <path d="M353,914c-.15.04-.71,1.43-2,1v-2c.46.06.95,0,1.4.17l.59.83Z" style="fill: #000100;"/>
  <path d="M336,907v1h-2c-.4-3.94,1.49-1.11,2-1Z" style="fill: #010101;"/>
  <path d="M237,1066l-17.66-12.84c-6.61-3.64-12.73-8.09-19.36-11.69-1.39-.76-2.49.16-1.98-2.47,5.15.2,10.39-.27,15.54-.05,17.08.72,34.85,2.58,51.85,5.15,9.23,1.39,18.29,4,27.61,4.9.71,4.14-.94,2.46-3.71,3.77-9.23,4.36-20.33,11.3-29.61,16.4-2.8,1.54-6.65,3.43-8.68,5.82-.63-.11-1.43.14-2,0-4.24-1.82-7.58-4.49-10-8-.67-.32-1.32-.69-2-1Z" style="fill: #121710;"/>
  <path d="M329,1041c4.53-2.78,5.65-.11,7,4,1.27.15,2.69-.07,4,0l1,.23c-.59,2.51-.14,3.77,1,5.77.6.07,1.4.06,2,0,3-.35,5.34,1.31,7,5-.13.95.11,2.02,0,3-2.18-.85-3.97.78-5.01,1-.59,1.88-1.37,1.85-2,0-1.61-.23-3.28-.57-5-1,.05,1.27-.95,1.61-3,1-.34.1-1.94.08-2,0l-2-1c-2.83.53-2.82-.96-3-1-1.31-.54-2.64-.87-4-1-2.04.22-4.89.11-7,0-1.72-1.11-3.38-1.44-5-1-1.77-.14-5.47-.31-7,0-.31-.9-1.87-.85-2-1-11.38-4.25-4.28-11.82,6-10,.7-1.65,1.53-1.77,2,0,.09,0,.49.92,1.43.94,5.32.1,9.7-4.46,15.57-4.94Z"/>
  <path d="M304,1044c1.55-.08,3.48-.14,5,0,1.82-.91,2.1-.8,1,1-1.86.4-5.58,1.38-7.49,2.01-2.16.72-4.01,3.03-1.9,4.05,3.77,1.82,2.37,2.78,3.39,3.94-2.57.24-5.31.85-7.7,1.8-8.68,3.44-18.22,10.81-27.06,14.94-3.14,1.47-6.79,3.42-10.24,3.25l14.63-9.87c4.95-1.63,9.17-4.81,13.67-7.33,3.32-1.86,8.21-2.55,10.6-6.42-.94-5.79-4.99-4.73-9.17-5.6-6.13-1.27-11.88-2.42-18.26-3.78-1.74-.37-2.94,1.05-2.47-1.99,9.28-1.55,18.89,4.78,27.52,5.06,2.41.08,6.46-.96,8.47-1.07Z" style="fill: #010101;"/>
  <path d="M265,1039.01c.81,3.57-3.92,1.52-6,1.99-.49-3.65,4.02-2.67,6-1.99Z" style="fill: #010101;"/>
  <path d="M246.17,1082.84c-1.04-.73-1.96-4.96.45-5.73,5.53-1.77,11.46,5.46,6.77,6.83-.75.22-6.83-.82-7.22-1.1Z"/>
  <path d="M270,1091c-2.39.43-3.23-.16-5.03-1.47-1.05-.76-4.49-3.33-5.04-3.99-.87-1.04-.64-2.05-.92-2.54,4.32,1.46,7.6,5.23,11,8Z" style="fill: #020302;"/>
  <path d="M249,1075c-4.08-.97-10.25-2.93-10-8,3.46,1.67,7.25,5.41,10,8Z" style="fill: #020302;"/>
  <path d="M296,1112l-10.5-6c-2.91-4.09-8.14-6.75-9.5-10l18.54,14c.78.46,1,1.39,1.46,2Z" style="fill: #020302;"/>
  <path d="M305,1119c-3.11.23-5.66-1.68-7.47-4.04-.49-.64-.33-1.71-.53-1.96,3.29.3,5.86,4.33,8,6Z" style="fill: #020302;"/>
  <path d="M313,1125c-3.12-.24-5.88-.34-5-4,1.7,1.35,3.32,2.59,5,4Z" style="fill: #020302;"/>
  <path d="M327,1137l-2.95-.07c-.29-.61.12-1.52-.05-1.93,2.06-.4,2.28,1.39,3,2Z" style="fill: #020302;"/>
  <path d="M411,1009c.18,2.42-1.31,2.74-3.19,3.31-4.01,1.24-8.98.92-13.09,1.9-12.87,3.07-29.16,8.63-41.72,13.28-13.93,5.15-27.29,11.94-40.99,17.51-.57-.05-1.5-.11-2,0,.03-.59-.47-.95-1-1,4.91-3.28,10.88-5.82,16.31-8.19,25.49-11.14,58.17-23.03,85.69-26.81Z" style="fill: #020302;"/>
  <path d="M339,1059c1.61.23,3.28.57,5,1,.62-.11,1.41.13,2,0-.58,3.22,1.6,1.6,3.39,2.07,19.45,5.12,42.18,17.16,59.14,26.95,1.38.8,2.98.85,2.47,2.98-14.32-8.88-32.02-16.64-48.01-22.49-8.95-3.27-18.43-5.32-26.99-9.51.85-.24,1.57-.66,3-1Z" style="fill: #020302;"/>
  <path d="M336,1045c-2.81-.33-3.05-1.2-3.01-4.01-1.89,1.35-3.78,0-3.99,0,.97-3.57,9.76-4.22,8.92-.61-.23.97-2.74,2.47-1.92,4.61Z" style="fill: #010101;"/>
  <path d="M467,1009c.07-.96-1.91-3.75-.46-3.99,1.88-.32,4.25-.95,5.94-1.04,2.08-.12,1.84.85,1.54,2.54-.09.51-2.86.31-2.02,2.49-1.65.1-3.35-.12-5,0Z" style="fill: #010101;"/>
  <path d="M344,1051c.09,0,.56-.94,1.52-1.02,1.95-.17,4.27,1.51,6.49,1.03-.34,1.7-.77,3.26-1,5-4.72.21-3.49-3.08-4.17-3.79-.49-.52-2.34-.07-2.83-1.21Z" style="fill: #010101;"/>
  <path d="M340,1045c.66.03,1.34-.04,2,0v6.01c-1.34-.15-2.29-.14-2.92-1.59l.92-4.41Z" style="fill: #010101;"/>
  <path d="M417,1093l.1,2.93c.65.2,1.61-.12,2.1.12,1.62.8,3.19,2.65,3.8,3.95-3.63-.54-6.14-4.17-9-6l.69-.82c.73-.37,1.68-.03,2.31-.18Z" style="fill: #020302;"/>
  <path d="M398,1031v1.99c-2.79.96-4.96,1.7-4.99-1.99h4.99Z" style="fill: #010101;"/>
  <rect x="360" y="1037" width="2.99" height="1.99" style="fill: #010101;"/>
  <path d="M363.5,1032c.65,0,.65,1,0,1s-.65-1,0-1Z" style="fill: #121811;"/>
  <path d="M257,881c.18-.03.6-1.77,3-1v2c-1.18-.07-2.18.16-3-1Z" style="fill: #010101;"/>
  <path d="M434,1108c-1.97-.09-3.24-1.26-4-3,.6.23,1.9-.32,3.04.46,1.22.83.75,2.2.96,2.54Z" style="fill: #020302;"/>
  <path d="M313,1056l.64-.83,4.36-.17v2c-2.3-.12-4.26-.94-5-1Z" style="fill: #020302;"/>
  <path d="M325,1057c.34-.04,2.27-1.89,3.99-.99v1.99c-.89-.19-2.27.3-3.32-.17l-.68-.83Z" style="fill: #010101;"/>
  <path d="M332,1059c.11-.02.7-1.44,2-1,.12.59-.18,1.78,0,2l-1.4-.17-.6-.83Z" style="fill: #020302;"/>
  <path d="M339,910h2s0,2,0,2c-.66-.03-1.34.05-2,0-.13-.57.18-1.84,0-2Z" style="fill: #010101;"/>
  <path d="M344,1060c-.07.01-.3.85-1.26.79-1.12-.07-3.05-.77-3.74-1.79.1-.02.29-.84,1.26-.79,1.1.06,3.05.78,3.74,1.79Z" style="fill: #010101;"/>
</svg>