<?xml version="1.0" encoding="UTF-8"?>
<svg id="Layer_1" xmlns="http://www.w3.org/2000/svg" version="1.1" viewBox="0 0 748 1200">
  <!-- Generator: Adobe Illustrator 29.4.0, SVG Export Plug-In . SVG Version: 2.1.0 Build 152)  -->
  <rect width="748" height="1200"/>
  <path d="M669,254c-3.2,6.58-10.58,6.53-6-2-1.47-2.7-.03-4.66,3-4,2.77-2.39,4.77-3.06,6-2,1.76,2.11.76,4.78-3,8Z"/>
  <path d="M44,394c-.72-120.31.54-240.69,0-361h660v152c-.57,1.45-1.69,2.09-3,2.68-22.96,10.4-41.86,19.97-63.16,34.99-96.06,67.76-150.76,177.98-173.72,289.21.61,4.51-.1,7.88-2.12,10.12l-.08,2.22c-19.43,10.72-26.72,30.02-33.87,50.14-3.7,7.75-10.26,19-19.05,19.63-2.23,1.28-3.08-.34-2.57-4.86,4.96-24.81,13.5-48.51,25.64-71.1,6.12-11.85,5-29.6-8.68-35.16-.45-3.05-.58-6.35-.4-9.88-2.56-1.14-2.56-1.89,0-3-1.2-.31-1.53-1.64-1-4-2.61-.41-2.44-1.1,0-2-1.38-.29-1.32-1.84-1-3-1.79-.58-1.79-1.37,0-2-2.5-3.42-4.5-7.09-6-11-2.21-1-6.18-8.07-4-10-5.34-7.17-11.06-14.29-17.8-20.47-16.31-14.94-32.1-11.13-40.69,9.51-10.57,25.41,15.1,59.52,30.92,77.88l.57,3.08c2.78.87,1.96,5.89-1,6-4.78,25.99-6.95,52.64-5.25,79.24l-1.75,3.76c-2.64,2.6-11.26,3.64-14,1-2.4-2.6-1.6-10.67,1-13,.47-5.85.02-13.44-1.57-19.14-1.83-6.56-3.94-10.21-11.43-9.86-2.33,3.5-14.51,8.12-16.07,2.75,2.15-11,5.09-21.85,8.82-32.53,3.41-11.77.58-22.89-4.75-33.22-32.41-24.68-57.26,8.77-59.57,40.78-.23.31-6.43,1.54-7.43,1.22-3.39,5.64-4.56-2.98-2.39-6.66,8.52-16.34,15.84-33.07,21.95-50.21-.63-6.77.85-10.81,4.43-12.13,2.82-40.24-48.56-48.86-63.29-11.44-10.06,25.56-16.13,52.49-20.81,79.36-.86,5.35-1.89,5.99-6.71,7.11-2.56.6-8.29,1.61-9.2-1.04-2.53-1.67-4.34-4.48-5.42-8.45-33.71-55.88-83.97-102.75-142.27-133.2-1.43-1.19-2.53-2.65-3.31-4.35Z" style="fill: #fefefe;"/>
  <path d="M165,713l1.93-1.55c30.03-3.37,57.85-11.82,84.68-23.15l1.46.45c5.68,17.85,12.09,34.21,26.82,46.48l.11,2.77c20.58,43.71,35.81,93.76,50.39,141.66l1.61,12.34,1.99,1.46c3.3,11.62,5.97,23.14,8.01,34.54.67.95,1.31,1.92,1.83,2.94s.98,2,1.21,3.04c5.69,25.67,11.22,51.41,15.15,77.6.69,6.11,1.15,12.27.81,18.41,3.18,5,5.4,13.23,0,17-.96,30.82-1.15,61.75-2.02,92.48-.26,9.16.23,18.37.02,27.52-3.84-.21-7.77.26-11.61.05-1.56-.08-2.27-1.05-2.4-1.06l-1.84-1.39c-3.25-74.42-8.89-149.45-24.88-224.29-15.22-71.22-37.64-144.87-61.67-212.6-3.51-9.89-15.86-29.02-4.58-7.18,10.8,34.86,21.96,70.24,33.48,106.15,32.19,99.61,49.78,202.75,54.59,307.21.47,10.28.84,22.54-2.09,32.11-7.25.54-14.41.92-22,1l-2.04-2.1c-7.39-143.32-30.74-289.05-81.66-423.35-3.14-8.28-7.53-19.31-13.14-24.63,59.6,140.01,83.73,298.45,93.01,449.08l-2.17,1c-7.99-.03-16.02.02-24,0-.19-6.15.26-12.37.02-18.52-3.24-82.9-15.86-164.78-34.28-245.72-11.56-50.79-24.78-102.54-45.88-150.12-4.15-5.81-7.19-16.44-11.4-21.6-1.4-1.72-3.4-3.06-5.48-1.52,2.22,11.09,8.39,20.13,12.73,30.27,22.34,52.22,36.89,112.38,49.05,167.95,15.07,68.86,24.94,138.54,28.25,208.75.48,10.16.26,20.38.98,30.52-4.04-.37-8.67.47-12.61.05-1.64-.17-2.26-1.03-2.39-1.06l-1.81-1.38c-3.44-45.52-7.15-93.54-14.2-139.76-15.26-100.02-42.63-201.91-94.16-288.58-2.93-4.92-5.86-8.82-11.84-8.28-7.77,2.51-15.39,3.56-22.86,3.17-30.17-15.24-38.82,26.06-41.48,48.25-5.12,42.68-3.15,90.43,1.34,133.3,2.6,24.76,6.3,53.55,15.58,76.51.8,1.98,7.66-11.33,6.78-13.11l18.01-88.8c1.16-5.43,4.81-16.48,8.96-6.5,27.92,86.31,55.12,174.08,65.23,264.51.31,7.26-1.3,7.85-5.51,4.03-5.53-15.87-12.66-30.91-21.39-45.11l.35-2.27c-3.35-3.29-5.69-6.96-7-11-2.68,1.11-3.63-.62-2-3-1.67-1.45-3-3.45-4-6-2.6.38-2.87-.13-1-2-1.99-.79-3.32-2.46-4-5-1.37,1.38-1.9.78-1-1-1.05-1.59-2.39-2.68-4.02-3.26-22.74-29.44-46.33-58.85-73.9-84.12-3.36-3.08-29.71-25.93-21.15-8.91l22.75,43.45c21.52,40.92,39.06,84.21,42.85,130.76l-1.52,6.06c.21,2.96-.15,6.03,0,9-2.66,0-5.34-.02-8,0-.57-.62-1.1-1.27-1.52-1.98s-.76-1.34-.85-2.04c-3.02-22.58-5.7-41.5-12.25-64.06-10.58-36.44-26.88-70.84-44.68-104.28l-2.7-7.64c0-8.59,0-18.7,0-28l1.51-1.57c11.52,4.05,22.53,9.07,33.05,15.06-2.54-40.94-7.97-83.5-13.41-125.24-3.36-33.36-9.16-92.4,12.29-120.66,10.52-13.85,21.03-13.9,36.58-10.53l14.17-1.05.81.99c2.76-3.38,10.65-3.8,14-1,8-.19,13.53,2.71,20.15,7.07-.52-4.21.1-7.24,1.85-9.07Z" style="fill: #151a13;"/>
  <path d="M704,474l-2.56,3.38c-59.65,31.18-104.17,84.29-142.81,138.23-1.56,1.63-2.67,1.52-3.63-.62l-2.05-2.39c-.5-22.41-1.93-45.5-15.51-63.88l1.56-1.73c.96-1.77,3.07-2.59,6.33-2.48,27.22-98.73,60.66-207.37,122.67-286.52-1.43-1.26-.91-2.08,1-2,.54-.89,1.21-1.56,2-2-.7-3.46,2.53-6.53,5.64-8.02,1.8-3.48,4.25-6.47,7.36-8.98,2.52-3.19,5.18-5.85,8-8,1.25-.33,10.46-9.59,11-11,.28-.87.62-.86,1,0-.36,85.31.49,170.69,0,256Z" style="fill: #fdfdfd;"/>
  <path d="M44,959c-.04-175.32.03-350.68,0-526,1.71-.42,1.99.66,3,1.49,7.54,6.29,17.04,18.62,23.47,26.54,1.49,1.84,1.85,4.28,4.53,5.97.91.25,1.57.92,2,2,.57,1.62,1.32,4.1,3,5l2,2c.05.32-.04.67,0,1,.9.27,1.56.94,2,2,.04.34-.07.72,0,1,1.41,1.53,2.75,3.2,4,5,.11.3-.11.71,0,1,18.34,24.78,32.19,53.69,43.78,82.96l-.78,2.04,1.87,1.63c-10.37,17.56-18.38,35.32-18.29,56.87l-.87,36.74c-.5,14.23-2.13,28.64-7.5,41.93-.32,1.88,20.99,4.2,22.82,4.03,2.36,1.32,2.51,2.93-.03,3.8-4.51.52-10.52,2.19-14.51,2.08-4.48-.12-11.67-2.22-15.89-2.04-18.83.8-28.39,25.05-31.32,40.74-10.61,56.79,7.07,126.32,10.74,183.69l2.97,35.52-22.75-11.74-14.24-5.26Z" style="fill: #fdfdfd;"/>
  <path d="M704,742c-.82,1.31-2.15,2.31-4,3,1.27,2.79-1.96,3.99-4,2-.31,1.2-1.31,1.87-3,2,0,3.06-2.43,3.52-4,1-2.41,1.3-4.08,2.3-5,3-1.08,2.61-1.9,2.59-3,0-.18,1.09-1.01,1.62-2,2-.62,1.66-2.2,2.7-4.76,3.14-3,2.46-5.42,3.08-7.24,1.86-.3,1.2-1.3,1.86-3,2,.28,3.28-4.3,5.88-7,4-.21.83-.87,1.5-2,2l-.56,2.22c-41.46,27.12-75.59,66.53-106.21,104.66-.74,1.64-5.06,3.67-6.12,2.6-3.31-3.35,7.76-53.1,10.02-62.76,9.93-42.4,24.01-85.12,41.87-122.72-2.78-.46-2.58-2.04,0-3,.22-.82.89-1.49,2-2-2.93-1.21-1.13-6.81,2-7,1.35-2.07,2.68-4.07,4-6-.23-.79-.41-1.58-.46-2.38s-.09-1.55.18-2.15c8-17.81,17.45-34.94,27.86-51.41,1.17-4.01,2.98-6.03,5.42-6.06.2-.88.87-1.55,2-2-1.97-2.09-.79-4.27,2-4,2.47-2.78,4.81-5.78,7-9-.87-.34-.87-.67,0-1,17.4-23.03,35.97-45.16,55.69-66.41l2.31.41c-.64,70.64.27,141.36,0,212Z" style="fill: #fdfdfd;"/>
  <path d="M201,1167l-2-2.94c-11.6-100.31-39.13-204.13-72.55-298.47,3.82-20.5,9.63-41.23,17.43-62.17,5.13-17.1,9.48-34.22,11.02-51.82.09-3.26,4.65-3.68,5.81-1.52,47.21,87.92,72.02,188.05,87.27,286.06,6.52,41.87,11.95,85,11.96,126.86l-1.95,3c-8.15,1.03-16.5,1.3-25,1l-1.59-4.58c-5.75-103.54-24.8-206.36-57.32-304.19-3.99-12-16.33-47.9-24.35-55.3-2.37-2.18,11.87,33.02,13.08,33.61,38.46,103.53,61.72,220.96,65.15,328.22l-1.96,1.24c-8.01.94-16.63,1.53-25,1Z" style="fill: #131811;"/>
  <path d="M518,674c3.21.52,2.57,6.83,0,8,1.6.29-.56,3.37-.52,3.19.3-1.29,1.17-3.07,2.52-3.19-1.52-2.42.63-6.6,3-8l1.49-1.9c6.1,1.07,12.33,1.36,18.7.85l2.81,2.05c-2.34,2.96-10.05,21.02-12.57,25.93-2.21,4.31-14.93,27.44-14.43,30.07.79,1.16.31,1.78-1,2-.44.21-4.09,8.52-4,9,.78,1.17.31,1.78-1,2-.87.43-6.09,15.62-7,18-.32,3.42-1.68,8.31-4,11,0,.33,0,.67,0,1-7.76,23.66-14.73,48.17-20.9,73.54-1.29,2.2-3.43.8-3.98-1.51l19.91-143.66c.94-17.92-3.16,1.72-4.65,9.3-7.97,58.23-15.76,116.34-23.38,174.33.43.22.83.47,1.1.82.59.77-.23,18.62-.93,19.29-.59.57-1.36.8-2.17.89l.25,5.95c-13.46,81.64-26.97,167.37-26.29,248.37l-.95,1.68c-.43,1.55,1.4,3.82-1.47,4-3.44.22-7.66.18-11.14.05-1.54-.06-2.27-1.04-2.4-1.06l-1.5-3.67c6.96-100.14,15.58-200.97,25.85-302.49,3.76-56.34,7.81-113.1,13.67-167.4-4.74,11.97-6.18,25.8-7.37,38.95-8.73,115.34-19.35,235.48-30.61,352.27-2.2,26.68-4.28,54.23-3.99,80.16l-2.05,3.17c-8.65.04-17.35-.03-26,0-.21-2.25.3-4.84,0-7-.68-1.05-.23-1.7,1-2,15.25-115.43,23.72-231.62,33.98-347.52,2.89-32.62,8.61-67.87,7.02-100.48-1.7-1.8-2.7-4.13-3-7-.29-.96-.31-2.13,0-3l-2.03-1.74c-.62-1.94,1.29-16.26,4.03-17.26,1.07-.7,2.15-1.37,3.29-1.9s2.24-1.02,3.4-1.22c22.09-3.91,47.78-6.51,70.18-5.96,1.19.03,2.37.34,3.57.69s2.4.85,3.57,1.39Z" style="fill: #131811;"/>
  <path d="M384,508c-1.27-1.94-.45-4.62,2.45-8.04-12.7-18.61-42.44-69.4-6.44-80.19,14.18-4.25,23.86,8.23,30.99,18.23,1.7,3.38,4.2,6.29,4,10,1.67,3.86,3.67,7.53,6,11,.04.6.1,1.47,0,2l1,3c0,.64.1,1.42,0,2,0,1.45.33,2.78,1,4,.1.98-.11,2.02,0,3,.14,2.93.12,5.93-.06,8.98,14.2,7.15,15.53,23.85,8.76,36.99-8.35,17.26-15.79,33.82-21.72,52.19-2.43,7.52-4.13,19.92-2.97,25.84l1.85.96c-.76,3.19.19,34.24,4.93,32.85,2.18-5.09,5.01-10.43,10.25-12.95-4.95-16.05,3.57-24.65,17.67-28.69-2.19-13.85,2.46-25.93,10.62-36.9,13.88-18.64,24.81-20.27,47-14.97,3.99.95,19.19,4.75,13.69,8.69-3.82.17-1.65-.38-4.73-1.77-3.38-1.52-7.34-.72-10.58-1.42-1.78-.38-3.37-2.42-5.68-1.81-2.51,2.15,8.31,4.9,9.23,5.26,1.38.55,5.42,1.65,4.77,3.73l-2.53,1.31c-17.6-5.24-28.07-8.21-40.98,6.38-7.25,8.2-13.85,20.38-12.54,31.47,13.06,1.89,49.42,10.95,55.83,19.64.49.67.88,1.42,1.23,2.2-2.52,2.63-6.47-1.85-8.74-2.76-1.2-.48-2.9-.17-4.29-.71-3.16-1.22-6.22-3.79-9.96-3.53-.58,2.91.91,1.55,2.2,2.25,1.58.86,2.92,1.71,4.58,2.51,1.86.89,2.77-.68,2.22,3.24l-2.21,1.28c-15.98-7.69-32.38-11.34-49.18-10.95-3.51-1.34-11.38,7.59-10.1,8.48,2.11,1.45,14,4.53,17.29,5,19.77-.37,38.83,2.03,57.18,7.18l2.02,3.02-5,1v.5c0,3.18,5.63,1.87,5,5.49l-3.07.87c-18.3-4.44-37.18-6.4-56.64-5.86-14.54-5.96-21.51-.57-27.01,13.24-.09,1.01,6.25,18.09,6.86,18.9,2.39,3.21,31.14,5.13,35.09,2.53,15.68-2.78,31.34-5.28,47.11-7.42,7.62-1.03,19.73-1.01,26.66,1.74,6.25,2.21,3.33,4.49,6,7l-1.7,2.41c-24.32.17-48.75,2.43-72.94,7.7-13.51,2.62-26.31,2.44-39.43-.76-2.61,22.35-17.05,42.35-32.44,58.72-15.63,12.25-29.13,25.97-40.49,41.17-7.29,8.17-9,.62-9.71-6.2-12.53-12.01-26.94-22.09-43.22-30.26-29.61-17.01-50.89-44.83-37.62-79.95-32.58,28.28-83.92,41.45-126.45,41.88-7.66.08-18.79-4.3-15.07-13.72,3.94-7.55,6.23-15.44,4.98-24.02-7.65-31.26-.77-62.5,22.15-86.07,18.04-18.54,46.5-29.77,71.78-23.11,1.61-18.54,4.76-37.79,9.62-55.71,5.98-22.02,14.07-42.56,34.66-54.26s29.11,6.43,27.88,24.17c-.86,3.38-1.98,3.39-2.02,3.62-.43,2.09.21,4.98-.22,7.63-2.78,17.14-16.36,35.26-22.25,51.75-.63,1.76-.83,3.69-1.54,5.43-.04,1.13,1.35.35,2.04.57,10.04-3.33,17.45-1.56,22.43,9.08-3.4-23.4,5.24-45.77,29.09-52.91,5.1-1.52,11.64-2.76,15.48,1.83.17.16,1.33-.02,1.96.52,2.44,2.11,5.73,13.46,6.05,16.96,1.31,13.98-4.07,23.72-7.55,36.48-.53,1.94-3.14,12.34-2.46,13.03,4.97-1.29,8.72-3,14-4,1.8-.26,5.54.36,7.11,1.47,5.33,3.76,6.64,21.29,5.89,27.53.33,4.82-.15,8.39-1,13,1.07,3.29,1.43,7.13,1.08,11.53,3.98.18,8.03.02,12.15-.49l-1.1-8.68,1.87-1.36c.26-3.99,6.53-3.69,7,0,3.36,2.2,3.96,5.98,1.8,11.33,4.07,1.56,8.13,3.61,12.18,6.15-.77-5.68-.09-10.51,2.01-14.47-.89-.19-.85-.52,0-1,.22-1.26.48-2.4,1.07-1.21.22-15.53,2.99-31.21,8.93-45.79l-1.54-2.58c5.28-13.1,10.98-26.05,17.08-38.84l2.46-1.58c4.17-4.88,3.14-16.78-3-19-2.34,1.11-3.38.66-3-2-10.99-1.37-20.03,8.17-26,16.33-.64,4.63-2.31,7.52-5,8.67,3.16,1.29,2.24,4.79-1,5-3.33,11.86-5.42,25.22-6.28,40.09-2.36,3.9-6.68.96-5.17-4.26,1.32-14.17,3.14-28.11,5.45-41.83.47-1.55.46-4.67,1-6Z" style="fill: #040405;"/>
  <path d="M704,185l-.13,2.34c-.84,2.16-12.77,6.56-15.78,8.25-13.87,7.77-28.12,19.05-40.08,29.42-1.86,2.61-4.19,4.95-7,7-3.65,1.66-2.69,1.85-5,4-.18.87-.4,1.72-.74,2.53s-.68,1.51-1.2,2.07c-35.72,38.24-64.07,70.74-90.91,117.41s-49.28,97.69-66.03,145.18c-1.11,3.15-2.78,8.17-2.16,11.3.02.08.8,1.4.81,1.31.34-2.44.76-4.54,1.64-6.92,37.43-102.33,90.26-210.44,174.6-279.88.17-.26.78-.47,1-1,.53-.98,1.53-1.64,3-2,1.41-.38,3.28-2.65,4-4,.28-.83,1.18-1.49,2-2,2.04-.46,14.28-9.35,15-11,.59-.88,1.59-1.55,3-2l22.51-12.99c1.98-.93,1.72,2.17,1.53,3.37-.15.9-11.82,7.43-13.53,8.63-4.35,3.05-8.44,6.59-12.5,10-.84,1.54-1.84,2.54-3,3-2.67-.52-5.31,4.5-7,6-2.68,3.68-6.02,7.01-10,10-49.76,53.69-94.03,120.28-121.93,191.11-11.69,29.68-20.65,60.31-28.07,91.26-.08.34.75,1.4.87,1.13,2.19-4.91,3.78-9.97,5.4-15.21,19.41-81.38,57.67-156.13,108.28-222.59,15.84-20.8,32.27-36.82,50.46-53.7,5.95-5.4,12.37-10.71,19-15,1.64-1.29,10.6-8.38,12-7,.53,4.5-4.54,6.08-7.06,8.47-.87.83-1.36,1.97-1.94,2.52-2.28,4.22-5.81,7.72-10,10-2.43,2.6-4.66,5.33-7,8-2.9,5.41-6.39,11.19-12,14-1.08,1.32-1.97,2.72-3,4-1.12,2.95-2.31,5.91-4.17,8.48-32.4,44.72-59.44,84.45-81.62,135.58-16.18,37.3-35.87,92.93-38.38,133.7-.12,1.91.95,9.12,1.26,6.16,5.93-57.8,27.2-115.7,53.37-167.96,15.01-29.96,32.15-56.05,50.23-83.31,3.26-4.92,18.5-26.64,22.96-27.37.4-.07.87.28,1.36.73l-18.43,28.07c-48.65,79.7-78.64,169.32-102.5,259.29-1.07,1.88-6.01,1.72-8.07,1.64-4.73-.79-8.97-3.18-12.74-7.16-18.44-11.08-40.61-23.94-62.4-16.35l-1.86-1.48c.09-3.75-.26-7.51.24-11.26,1.52-11.22,7.03-29.29,10.22-40.78,30.39-109.43,92.1-209.29,192.22-266.78,12.27-7.04,25.8-14.23,39.32-18.18Z" style="fill: #151a13;"/>
  <path d="M295,466c-2.13-3.72-1.35-9.13-2.45-13.05-1.19-4.21-5.81-10.31-9.8-12.19-5.46-2.58-15.62,2.88-20.24,6.24-21.61,15.75-28.33,47.82-33.21,72.79-2.15,10.99-3.68,22.1-5.34,33.15-16.64-2.55-31.3-.93-46.64,5.86-30.98,13.71-52.01,48.72-49.33,82.71.98,12.4,5.67,22.29,1.54,35.51-2.51,8.03-9.74,13.93,2.48,18.47,6.36,2.36,7.96.72,13.47.49,35.08-1.5,73.79-10.46,103.87-29.13,8.17-5.07,15.14-11.38,21.16-18.84l-4.01,11.98c-10.4,36.63,8.73,56.51,37.19,74.82,9.64,6.2,41.1,22.7,44.78,32.22,1.19,3.06-.87,7.45,3.01,7.97,4.59-3.88,7.12-9.49,10.99-14.02,10.2-11.96,25.33-22.03,36.05-33.95s24.04-30.83,27.24-46.76c.61-3.02-.15-6.21,1.3-9.2,8.07,1.06,15.14,3.38,23.46,2.96,21.89-1.11,43.91-7.9,65.93-9.07,8.75-.46,18.03,1.18,26.55-.95.16.15,1.54-.04,2.45,1.01,2.31,2.69,4.99,5.82,2.59,9.35-.69,1.01-1.97.55-2.03.64-5.14-.2-10.37.27-15.52.02-2.37-.11-4.59-.93-7.48-1.02-1.58,2.7-3.43,2.72-5,0-28.66-.61-55.94,2.26-84,7-.06,1.35-.59,2.3-1.86,2.01-2.21,9.88-5.57,19.28-10.06,28.2l-2.08.79c-2.09,5.76-6.54,10.85-11.07,15.8-14.01,12.18-26.5,25.29-37.47,39.34l-2.46.86c-5.59,9.73-11.87,19.96-18.41,29.51-1.26,1.86-3.01,1.84-4.87.71-4.41-14.12-14.12-24.37-26.47-32.07-12.87-7.28-25.21-15.21-37.03-23.79l-2.23-4.36c-6.69-5.79-14.68-14.88-18.82-22.68s-6.67-16.85-9.19-25.32c-.85-.85-18.13,7.76-20.72,8.78-19.99,7.83-44.89,11.95-66.27,14.23-6.33,3.46-13.67,4.13-22,2-4.64.46-9.09.43-14,1,.55-3.22-1.6-1.67-3.48-1.98-4.09-.69-20.54-1.37-21.42-5.64,1.73-4.68,3.33-9.48,4.42-14.35,7.92-35.21-2.87-74.6,14.3-107.7,1.61-3.1,8.91-12.83,8.18-15.32,11.59-17.1,32.24-24.57,51.99-30.09,4.73-2.14,8.74-2.45,12.01-.91,2.75-.6,11.6-.68,12.52-1.98,1.04-1.46,1.99-7.39,2.39-9.61,4.48-24.62,11.28-55.57,21.6-78.4,16.74-37.01,73.1-21.59,63.49,15.99Z" style="fill: #352b3b;"/>
  <path d="M620,579c4.64-3.29,13.7-16.8,18.48-22.02,11.78-12.89,26.27-26.21,40.03-36.97,4.85-3.79,17.86-14.24,22.51-16.49.81-.39,1.54-.72,2.48-.52.87,0,.65,1.95.48,2.48-.31.98-13.83,10.93-16.01,12.99-20.8,19.8-41.09,40.18-58.43,63.57-5.61,7.56-28.27,39.96-29.54,46.96-.39,1.46-1.06,2.46-2,3-1,.42-1.26.72-1.86,1.61-2.82,4.22-7.81,13.76-9.14,18.39-1.65,2.91-3.32,5.57-5,8-1.42,2.64-2.67,5.43-4,8-.95,3.3-2.48,6.71-5,9-.09.32.09.7,0,1-1.34,3.38-3.01,6.38-5,9-.76,1.71-3.27,4.6-3,6,.78,1.17.31,1.78-1,2-1.38.68-5.92,13.57-7,16,.03,2.69-.86,5.35-3,7-.47,1.09-.65,2.17-1,3-4.85,12.67-9.85,25.34-15,38-.07.32.07.68,0,1-3.57,12.44-7.91,24.44-13,36,1.87.57,1.87,1.45,0,2-31.93,118.22-56.06,243.18-57.94,366.01l-2.06,2.99c-5.85-.06-13.89.92-19-1l-1.95-3.91c1.05-94.66,13.03-195.7,35.95-285.5l1-.59c-2.66-.96-2.6-1.97,0-3-1.08-2.26-.67-5.27,1.24-9.02.38-4.16,1.63-7.82,3.76-10.98.05-.62.08-1.4,0-2,.45-5.55,1.78-10.55,4-15,.35-1.32.64-2.68,1-4-.58-1.32-.54-2.87,1-3,.24-.89.7-1.9,1-3-.96-2.41.86-7.92,3-10,.11-.94,0-2.03,0-3,1.1-5.86,2.76-11.2,5-16,.58-1.88,1.38-4.09,2-6-.21-1.65.29-4.39,2-5,1.34-3.98,2.63-8.04,4-12,0-3.45,1.37-7.88,4-10,.68-1.96,1.42-4.01,2-6-.73-.89-.3-2.84,1-3,.03-.33-.02-.67,0-1,.48-1.72,1.15-3.05,2-4,1.23-.45,5.22-9.9,5-11-.79-1.16-.31-1.78,1-2,.86-.42,1.55-4.07,2-5-.47-1.47.45-3.53,2-4,1.01-2.1,5.29-9.52,5-11-.79-1.16-.31-1.78,1-2,.36-.17,3.18-6.11,3-7,1-3.5,2.67-6.5,5-9,1.31-2.81,2.51-2.75,3-7,.29-1.21.99-2.49,2-3,2.34-.99,4.34-6.46,5-9,.37-1.46,1.03-2.46,2-3,3.84-2.3,4.17-4.79,5-9,.4-1.5,1.07-2.5,2-3,.84-.33.87-1.25,1-2l4-6c1.13-.51,2.52-1.8,2-3-1-.8-.25-1.83,1-2,1.62-.84,9.43-12.94,10-15,.38-1.45,1.05-2.45,2-3,1.09-.59,7.57-10.47,8-12,.37-1.46,1.03-2.46,2-3,.92-.35,1.76-2.07,2-3,.38-1.45,1.05-2.45,2-3,.31-.09.93-.7,1-1,.36-1.46,1.02-2.46,2-3,1.16-.63,4.6-5.55,5-7,.39-1.46,1.05-2.46,2-3,.99-.43,11.23-14.2,12-16,.69-1.51,1.55-3.13,3-4Z" style="fill: #131811;"/>
  <path d="M704,960c.04,68.99-.04,138.02,0,207h-95c-.79-1.64-1.18-3.37-1.14-5.18,9.1-34.78,18.48-69.68,29.08-103.91,12.07-31.36,36.66-73.38,61.87-95.51,1.46-1.28,3.34-1.9,5.19-2.4Z" style="fill: #fdfdfd;"/>
  <path d="M265,1166c-3.28-.68-3.76-.41-7,0-.19-5.48.26-11.04.02-16.52-2.7-60.7-13-126.03-25.28-185.72-15.34-74.53-38.57-144.93-73.53-212.47l-2.21-1.29c-.69,11.89-3.37,24.61-6.25,36.25-5.65,22.81-14.46,44.98-20.26,67.74-3.6,14.12-2.37,10.54,2.28,22.74,9.92,26.06,17.76,55.53,25.52,82.48,16.93,58.83,30.5,114.37,38.79,175.21,1.47,10.82,4.18,21.62,3.92,32.58-1.67-.11-4.57,0-5.78-1.22-3.09-3.11-3.08-11.73-5.23-15.78-1.66-.08-2.22-.5-1.98,1.48.39,3.18,2.65,7.52,2.99,11.18.16,1.77-.86,1.95-.99,2.34l-3.02-1.81c-5.51-18.28-12.68-34.93-22.48-51.4-.23-1.31-.05-2.57.5-3.79l-1-2c-3.04,3.12-8.43-6.29-6-9,.19-1.29-.3-2.01-2-3-4.46-1.43-7.22-5.36-7-10l-1.4-3.55c-6.22-5.57-6.93-15.81,1.4-6.45.46.3.69.75,1,1,.75,2.32,2.08,3.99,4,5,.34.68.58.89,1,2,1.02,2.42,2.35,4.42,4,6,.55.86,1.39,2.06,2,3,1.44,4.09,3.78,7.75,7,11,5.8,3.31,19.27,37.79,22.77,45.78.64,1.45-.67,2.75,2.23,2.22-1.82-19.46-4.73-38.98-8.28-58.21-10.57-57.31-27.19-114.23-44.18-169.82-4.6-15.06-9.79-29.96-14.54-44.96l-3.7,10.79c-4.19,22.69-9.11,45.43-14,68-1.91,8.84-3.29,22.76-7.42,30.58-1.37,2.6-3.7,5.82-6.8,4.56-2.43-7.17-4.98-14.32-6.81-21.7-7.97-32.19-10.76-66.81-12.24-99.76-1.63-36.24-3.08-74.09,5.25-109.72,3.97-16.98,12.14-36.84,33.2-33.73,3.1.46,6.69,3.85,10.02,3.85,5.85,0,14.05-3.61,20.03-3.93,4.63-.25,8.45,2.26,10.96,6.07,10.93,16.6,21.94,39.33,30.39,57.61,50.34,108.88,73.01,245.6,79.12,364.88.18,3.52,1.85,7.52,1.02,11.48Z" style="fill: #030302;"/>
  <path d="M685,787c-1.46,2.34-3,4.69-5.09,6.51-25.16,22-46.71,41.19-67.71,67.59-68.46,86.08-96.9,194.85-107.05,302.17l-2.15,3.73c-2.32.09-4.68,0-7,0-2.18-4.24-2.87-9.27-2.07-15.07,2.22-67.9,12.83-135.26,23.62-202.13,3.66-22.69,17.2-42.69,31.7-61.28,40.49-51.92,92.54-96.97,151.42-126.34l3.33-.18c0,2.47.54,9.55-.47,11.03-.47.68-10.72,8.02-12.6,9.4-2.11,1.56-3.95,3.06-5.93,4.57Z" style="fill: #131811;"/>
  <path d="M675,539c1.55-.85,5.05-2.99,5.01-5,1.83-.23.96,2.16.56,3.06-2.68,6.14-14.04,16.73-18.55,22.64-2.8,3.67-8.7,11.42-10.01,15.29-2.66,2.82-4.44,6.01-5.33,9.56-98.84,145.13-131.42,325.54-149.58,497.5-2.93,27.77-4.09,54.29-5.04,81.4-.02.59-.33,1.17-.68,1.78-.37.64-.85,1.21-1.37,1.76-6.32,0-12.68.04-19,0-.78-.27-1.93-.72-1.91-1.31,1.82-43.44,7.16-94.53,13.16-141.18,10.87-84.51,27.83-167.13,54.77-247.93,3.96-9.22,7.95-18.42,11.97-27.58.59-1.57.67-3.15,1-4,1.6-6.94,4.75-15.2,9-21,.99-2.32,1.98-4.7,3-7,14.47-36.92,35.23-73.24,56-106,.45-.33.71-.77,1-1,4.72-8.31,10.34-16.29,16-24,.43-.33.72-.79,1-1,1.06-2.29,2.39-4.29,4-6,5.2-3.66,9.65-11.47,14.01-16.49,5.16-5.95,15.58-15.23,18.99-21.51.26-.9.92-1.57,2-2Z" style="fill: #131811;"/>
  <path d="M704,897l-2.52,3.31c-36.89,18.87-69.68,46.08-98.53,76.02-18.99,24.75-9.77-13.19-6.13-23.08,12.56-34.2,30.28-61,50.58-90.91l54.31-62.74,2.3.4c.08,32.31.22,64.69,0,97Z" style="fill: #fcfcfc;"/>
  <path d="M106,1167c-20.65.13-41.35-.1-62,0,0-59.99.02-120.02,0-180,1.76.57,2.1,2.26,2.84,3.66,26.09,48.9,45.54,91.86,55.86,147.13,1.82,9.72,2.37,19.41,3.29,29.21Z" style="fill: #fdfdfd;"/>
  <path d="M693,792c-.51,1.82-1.85,3.16-4,4-5.88,2.53-13.5,12.9-18,18-1.38,2.74-3.68,5.8-6,8-1.27.87-1.3,1.32-2,2-40.52,51.4-74.24,107.97-96.01,170.73-19.62,56.55-29.03,114.89-33.87,171.3l-2.12.96c-7.34,0-13.96-.18-21-1-.77-.14-1.92-.43-1.95-.98-.57-9.95,1.83-26.88,3.46-36.82,5.88-35.71,11.63-69.4,21.96-104.25,26.41-89.11,77.74-178.13,152.09-232.09l2.43-.86c.23-.3.68-.53,1-1,2.99-3.46,6.85-6.08,11-8,1.24-.47,2.52-1.06,3.51-1.99.6.63-.65,2.34-1.07,2.92-1.99,2.82-6.62,6.31-9.44,9.06Z" style="fill: #131811;"/>
  <path d="M195,540c-15.89,3.46-41.32,11.1-53.49,22.01-3.47,3.11-6.01,8.77-10.51,8.99-.03-.12-1.12-.92-1.51-1.95-6.42-17.25-14.3-34.86-22.97-51.08-5.19-9.71-14.95-22.61-18.52-31.98,2.33-.24,2.58,1.53,3.6,2.9,4.96,6.65,11.1,15.62,15.26,22.73,7.28,12.41,13.33,29.21,21.28,40.72,2.08,3.01,6.69,8.42,9.8,4.05.89-3.36-4.77-9.67-6.37-12.49-7.4-13.04-13.72-26.63-21.56-39.44-14.95-24.43-32.07-45.01-50.02-66.98-.71-.87-3.68-4.77-3-5.49l11.49,8c24.44,22.66,47.16,48.37,66.33,75.67,3.03,4.31,9.51,16.72,13.45,18.55.98.46,2.01,1.05,3.15.74,1.74-1.01,1.95-2.44,1.41-4.28-25.14-41.85-59.23-80.6-97.9-110.11-1.42-1.08-3.11-2.35-4.93-2.59l.51-2c13.17,5.51,25.87,14.01,36.98,23.02,21.41,17.36,46,41.22,63.5,62.5,9.5,11.55,17.99,24.06,26.97,36.03l4.09.02c3.92-2.67-4.05-12.31-6.06-15.04-23.19-31.5-54.16-63.76-84.5-88.5-14.43-11.77-29.87-22.45-47.37-29.13.52-3.12-.86-7-.88-9.63,0-.95.75-1.18.75-1.25,20.85,12.79,43.6,24.41,62.49,40.01,26.5,21.88,56.7,53.56,75.94,82.06,4.83,7.15,10.43,15.6,12.56,23.94Z" style="fill: #191d17;"/>
  <path d="M434,681c-.22,5.99-2.33,13.11-2,19,.15,1.1-.02,2.42-1,3,1.94,1.85,1.6,2.32-1,2-1.14,3.31-1.14,6.31,0,9,0,.67,0,1.33,0,2-.4,1.04-1.06,2.04-2,3,1.59.3,1.45,2.24,0,3-.37,3.29-.76,6.53-1,10,1.73,2.15.8,6.99-1,9-7.61,104.74-19.48,208.95-26.98,313.52-.36,5.01-1.76,10.08-1.02,15.48.68,1.05.23,1.7-1,2,.15,1.61-.23,3.46,0,5,.68,1.05.23,1.7-1,2-.12.11.04,1.42,0,2,1.57.29,1.43,1.21,0,2-.1,1.32.13,2.69,0,4-1.74,20.47-3.96,40.97-6.68,61.5l-1.32,1.5c-.3,2.71-2.23,2.5-3.61.14,4.32-47.21,7.88-95.27,5.82-143.03-1.52-35.36-6.56-73.64-14.22-107.11-2.52-1.08-2.63-2.03,0-3l-.62-2.22c8.51-15.51,14.74-32.5,18.68-50.95,17.99-40.76,26.72-87.04,24.9-131.2l1.03-.63c.12-4.35,3.83-8.88,5.49-13.01,2.27-5.65,3.99-11.9,4.53-17.97,1.28-.24,2.76.18,3.98-.02Z" style="fill: #f9f9f8;"/>
  <path d="M671,559c1.65,1.42,1.61,2.69.23,4.25-8.72,10.67-17.13,21.58-25.23,32.75-.12.27.12.71,0,1-2.2,3.19-4.53,6.19-7,9-.8,2.08-1.03,2.29-2,4-.39.82-1.05,1.48-2,2-.39.21-3.18,6.3-3.95,7.52-10.28,16.47-21.8,36.53-29.05,54.48-1.37,2.04-2.7,4.04-4,6-.62,1.87-1.63,5.14-2,7-.25.9-.92,1.56-2,2-.11.96.17,2.11,0,3-30.07,65.81-50.11,141.77-63.5,211.41,41.47-58.61,102.04-115.73,167.21-147.59.89-.44,1.93-.59,3-.73s2.18-.14,3.29-.09c-.02,2.41,0,4.69,0,7-19.04,9.43-37.66,21.19-54.93,33.57-42.29,30.31-84.18,70.67-112.5,114.5-10.45,16.17-14.05,23.16-17.49,42.51-11.27,63.35-20.31,133.95-23.1,197.9-.24,5.48.21,11.04.02,16.52-2,0-4,0-6,0,.2-6.48-.27-13.03-.02-19.52,1.54-40.46,6.68-80.76,11.94-121.06,20.13-154.27,52.95-311.66,142.26-441.74,2.21-3.21,4.81-7.26,7.83-9.67-1.38,4.06-2.61,3.71-2.99,4.73-.23.62-2.04,6.24.48,5.26,5.11-7.01,9.82-14.07,15.48-20.55,1.65-1.89,4.21-4.2,6.02-5.45Z" style="fill: #030403;"/>
  <path d="M704,932l-2.6,5.03c-60.81,59.81-95.45,143.93-113.08,225.91l-2.31,3.07c-10.88,1.02-21.8,1.01-33,1-.51-2.17-1.04-4.46-.63-6.69,4.84-26.78,17.79-57.64,29.63-82.24,24.32-50.52,56.69-101.31,100.01-136.07.43-.53,1.15-.76,2-2,3.35-3.53,7.01-6.53,11-9,.17-.26.71-.48,1-1,.54-.97,1.54-1.63,3-2,.93-.31,4.65-3.41,4.99-3,.02,2.33,0,4.67,0,7Z" style="fill: #131811;"/>
  <path d="M704,800l-54.99,63.51c-20.14,31.31-43.87,62.35-52.75,99.25-1.16,4.83-3.27,14.07-3.3,18.72,0,1.11.03,2.21,1.52,1.51,2.3-1.07,5.16-6.1,6.98-8.02,21.42-22.58,45.61-43.2,71.6-60.4,9.71-6.42,20.25-13.04,30.92-17.58-.04,6.44,0,12.91.04,19.36-1.46,1.91-8.44,4.02-9.04,5.64-.53.97-1.53,1.63-3,2-2.8.6-2.52,1.77-3,2-51.44,35.46-100.79,78.07-131.89,134.12-.54,1.32-3.62,1.03-4.13.25-2.46-3.8,11.15-46.68,13.99-55.45,12.41-38.26,27.98-71.76,48.19-106.46,7.88-13.51,16.88-28.06,27.83-38.47.22-.3.69-.58,1-1,1.17-2.9,2.82-5.91,5-8,.45-.32.71-.78,1-1,4.19-5.73,8.25-11.48,12.18-17.25l1.82-.75c.22-.27.64-.56,1-1,10.24-14.52,23.63-29.23,38-40l1,.5c-.71,2.45.73,5.29.76,7.25.01.94-.75,1.18-.75,1.25Z" style="fill: #181d16;"/>
  <path d="M663,824l-3.12,7.37c-6.25,6.62-11.87,14.16-16.83,21.15-1.9,2.68-7.25,9.41-8.02,12.02-.54,1.82.59,1.61,1.95,1.46.77-2.69,2.43-6.65,6.01-6-7.38,10.26-15.03,21.98-21.84,32.66-32.6,51.11-53.74,108.25-67.15,167.34,1.51-.23,1.88-1.87,2.51-2.98,22.47-39.66,59.36-78.85,95.55-106.45,10.8-8.24,25-18.67,36.93-24.57-2.25,5.74-9.14,7.09-13.01,12.49-1.44,2.01-1.53,3.8-2.54,5.46-.38.63-8.4,8.18-1.97,6.03,1.07-.36,6.05-9.41,10.52-7.98-7.07,8.65-15.93,15.8-23.52,23.98-31.86,34.32-58.06,76.86-77.67,119.33-12.02,26.03-22.21,53.5-27.81,81.69-2,0-4,0-6,0-.68-2.11-1.03-4.28-.83-6.5,1.4-15.73,10.26-38.97,16.11-54.13,20.31-52.6,50.6-103.78,88.89-144.94-32.08,26.09-61.14,56.47-83.46,91.65-17.31,27.3-19.54,38.87-23.67,69.21-1.62,11.94-3.06,23.9-4.2,35.9-.4,3.08-1.61,5.98-2.84,8.8-2,0-4,0-6,0l6.11-56.39c15.35-102.05,48.39-188.87,111.9-270.1,4.15-5.31,9.21-11.89,13.99-16.51Z" style="fill: #030403;"/>
  <path d="M506,550c3.03.95,4.06,2.54,8,3,1.46.39,2.46,1.06,3,2,.24.57.42,1.17.97,1.53.6.53,1.38.34,2.03.47,1.47.37,2.47,1.04,3,2,1.15,2.92,8.12,8.01,10.52,10.98,6.75,8.37,11.65,25.82,12.5,36.5,1,12.67-2.78,27.65-1.02,40.52-.28.87-.62.86-1,0-.8-2.64-13.38-19.01-15.95-21.55-6.25-6.15-13.52-10.27-21.05-14.45-13.59-7.57-28.4-13.91-43.98-17.52-2.39-.55-14.92-2.06-15.08-3.06-3.2-16.45,16.36-46.03,33.57-45.5,7.61.24,17.18,2.77,24.48,5.08Z" style="fill: #322839;"/>
  <path d="M704,474c-.02,3.49.57,20.68-.44,22.06-40.86,23.94-74.06,57.93-101.97,96.03-15.12,20.64-28,44.28-42.71,64.32-1.22,1.66-2.78,1.45-2.88,1.59-5.05-5.65-5.12-16.75-4.85-24.49.2-5.49.87-14.51,3.85-18.51,2.33.24,2.58-1.53,3.6-2.9,35.17-47.16,63.44-83.92,112.48-118.51,10.27-7.25,21.45-14.55,32.91-19.59Z" style="fill: #191d17;"/>
  <path d="M462,522c2.79-1.12,12.31-2.9,15.45-3.05,14.66-.67,37.49,11.5,49.89,19.2,2.42,1.5,4.93,4.33,7.29,5.72,3.17,1.86,3.53-.42,4.37,3.13s4.02,6.48,5.82,9.68c8.72,15.52,9.88,40.77,10.18,58.32.14,8.18-2.63,16.65-2.05,25.55.38,5.73,2.37,11.73,3.05,17.45-.41.57.44,4.68-2.99,4,.13-2.64-2.61-4.25-3-6.51-.6-3.51-.84-11.87-1.03-15.97-.24-5.21.92-9.54,1.04-14,.51-19.53-.44-40.46-10.18-57.86-4.07-7.28-18.24-22.04-26.84-21.66.53-2.34-1.1-2.14-2.63-2.82-9.59-4.28-25.28-7.73-35.64-5.95-13.06,2.24-27.69,23.27-30.49,35.51-1.58,6.91-.99,12.35-.24,19.26-6.51-1.31-18.04,6.24-18.96,12.54-.74,5.03.04,9.85,1.96,14.45-6.34,1.18-10.47,9.25-12.01,15.01-1.06.04-1.49.5-2.04-.64-1.53-3.19-4.04-4.09-4.73-8.08-.55-3.2-1.06-9.38-1.25-12.75-.17-3.03-.58-13.37.02-15.52-.98-2.28-.23-2.74,2-3,2.13-2.58,6.66-4.65,9.52-7.98,11.12-12.96,12.5-31.17,22.07-44.93,3.98-5.72,15.09-16.56,21.41-19.09Z" style="fill: #352b3b;"/>
  <path d="M374,918c8.6,25.14,10.96,52.17,12.82,78.63,3.96,56.34.37,115.84-6.66,169.17l-2.16,1.2c-2.99.02-6.01.06-9,0l-1.38-.5c.48-23.83.6-48,.38-72.5-.15-3.64.09-7.35,0-11-1.85-5.13-1.5-11.68,0-17-.72-.44-1.29-.9-1.35-1.41-.59-5.43-1.29-14.31,1.35-18.59.48-2.97.48-5.97,0-9-2.84-.71-2.59-2.73,0-4,0-.54,0-1.21,0-2-3.66-.97-2.29-11.8,0-14,.64-2.57.55-5.42,0-8l-1.86-2.36-.06-18.28,1.92-2.36c-1.37-.29-1.31-1.84-1-3l-1.85-1.65c.19-13.54-.49-27.06-2.02-40.57l1.87-1.78c-1.19-.12-1.48-.97-1-2-1.71-1-2.43-3-2.16-6-1.66-4.56-1.61-7.89.16-10-2.84-.44-2.66-2.07,0-3,2.03-3.34,4.45-6.75,7.28-10.23l2.72.23c3.49,1.72,4.42,7.03,2,10Z" style="fill: #f9f9f9;"/>
  <path d="M537,1167c1.79-19.48,3.93-39.08,7.11-58.39,1.6-9.76,3.07-21.92,7.37-30.63,22.53-45.64,57.02-84.02,96.02-115.98,4.15-3.4,7.8-7.88,13-10,1.66,1.01-.33,2.21-.99,3.01-7.51,9.05-16.04,17.37-23.5,26.5-18.22,22.32-35.08,49.02-48.41,74.59-18.09,34.7-33.9,72.15-40.59,110.91-3.32,0-6.68,0-10,0Z" style="fill: #131811;"/>
  <path d="M419,1167c.19-5.81-.26-11.7-.02-17.52,3.21-77.82,12.99-157.24,20.04-234.96,4.95-54.63,8.01-109.4,13-164,1.39-15.24,3.01-46.46,9.48-59.52,1.35-2.72,3.4-5.48,3.5-.51.32,16.32-3.29,31.97-4.92,48.09-3.39,33.6-4.4,67.34-7.06,100.94-7.87,99.08-19.66,197.87-26.04,296.96-.63,9.8-.42,19.85-1.98,29.52-2.43-.33-4.24.99-6,1Z" style="fill: #030302;"/>
  <path d="M508,633c4.48,2.06,13.57,8.66,17.49,12.01,2.17,1.85,10.72,11.72,11.51,11.99l-22.52-.02c-21.76,1.11-45.4,8.55-66.97,9.1-6.71.17-14.72-3.09-21.35-4.24.72-4.8-7.17-17.26-6.95-20.16.44-5.77,9.73-17.52,15.5-18.52,2.36-.41,10.26,2.56,13.77,2.86,18.22,1.54,42.72-.75,59.51,6.99Z" style="fill: #322839;"/>
  <path d="M704,960c-17.6,17.57-34.04,37.41-46.18,59.32-9.23,16.66-19.01,36.44-24.32,54.68-3.07,10.54-5,21.45-7.98,32.02-5.72,20.28-13.26,40.07-16.51,60.99-6.34,0-12.01-.44-18-1-.74-.28-1.82-.83-1.71-1.36,3.38-17.98,10.9-42.56,17.11-60.22,21.29-60.48,48.88-119.42,94.28-165.18l3.32-.24c.05,6.98,0,14.69,0,21Z" style="fill: #1b2019;"/>
  <path d="M149,1074c-.53-.34-2.97-1.73-3.51-1.99-1.31-.64-1.72.31-1.5,1.5.56,3.1,6.31,6.08,5.01,10.49l-3.12-2.09c-16.64-21.49-34.07-42.33-52.28-62.54,21.34,31.91,38.85,66.33,52.49,102.18,2.96,7.78,13.76,37.41,11.92,43.28-.24.76-.61,1.47-1.01,2.18-2,0-4,0-6,0l-1.95-1.3c-11.92-52.51-39.26-102.46-69.63-147.39,20.25,39.64,36.79,83.92,40.84,128.53.1,1.15-.07,2.34-.28,3.54s-.58,2.43-.98,3.62c-3.67-.68-3.35,1.73-5,4-4.9-69.22-32.73-115.7-63.52-174.98-1.39-2.68-5.09-8.77-4.35-11.34,2.66-5.43,8.27-.52,11.78,1.91,28.72,19.88,65.76,66.24,87.51,94.49,1.34,1.74,3.19,3.75,3.58,5.92Z" style="fill: #040403;"/>
  <path d="M594,692c-1.81,9.43-11.27,27.99-15.03,38.47-6.6,18.45-12.55,37.39-17.7,56.3-8.06,29.56-14.63,59.77-18.27,90.23,5.68-4.43,9.39-11.01,14-16.49,26.61-31.7,60.29-68.31,94.65-91.38,1.12-.75,3.24-.99,3.34-1.13.25-.91.92-1.58,2-2,2.26-1.25,4.83-2.74,7-4,1.34-.35,2.3-.74,3-2,3.79-2.02,7.22-5.08,12-5,.25-.9.91-1.56,2-2,.98-.05,2.08.13,3,0,1.97-1.24,3.64-2.24,5-3,1.2-.35,3.03-.54,4-1,1.35-.36,2.3-.71,3-2,1.32-.72,3.19-1.51,4-2,1.84-1.63,3.17-1.96,4-1-.02,3.66.03,7.34,0,11-13.55,6.38-26.75,13.94-39.33,22.17-42.82,28.03-84.8,65.28-116.67,105.33-6.24,7.84-11.48,16.56-17.45,24.59-.85,1.14.06,2.49-2.55,1.9-.83-.98,3.55-21.99,4.23-25.26,12.9-61.63,32.59-131,58.61-188.41.72-1.59.75-3.89,3.16-3.32Z" style="fill: #1b2019;"/>
  <path d="M149,1084c2.32,3.3,4.74,6.67,7,10,1.31.56,2.61,1.52,2,3,1.49,2.26,3.19,7.82,6,9,1.12.06,1.18.98,1,2,4.36,10.41,11.18,19.61,15.43,30.07,3.58,8.8,5.4,18.36,9.57,26.93-.19.56.57,1.88-.6,2.05-10.8-.06-21.61-.08-32.4-.05-2.07-14.33-7.09-28.9-11.97-42.53-13.34-37.21-36.87-81.9-60.03-113.97-.76-1.05-2.59-2.15-2.99-3.02-.53-1.15.34-2.02,1.49-1.49.83.39,4.98,4.83,6.03,5.97,20.78,22.51,41.97,47.12,59.48,72.02Z" style="fill: #131811;"/>
  <path d="M345,1166c-2.12-.16-4.88-.16-7,0-.35-11.47.46-23.05.02-34.52-3.21-83.34-17.31-170.58-38.78-251.22-10.5-39.43-23.66-77.15-35.98-116.02-4.4-13.87-7.5-29.66-13.07-42.93-1.62-3.85-4.04-7.46-5.67-11.33-.49-1.17-2.14-3.98-1.02-4.98,1.62-.1,2.42,1.57,3.49,2.51,8.1,7.11,11.88,20.63,15.28,30.72,32.7,97.18,61.23,191.87,73.65,294.35,4.95,40.81,5.9,81.05,8.03,121.97.2,3.76,1.75,7.45,1.05,11.45Z" style="fill: #030403;"/>
  <path d="M316,1167c-2,.02-4,0-6,0,.82-3.97-.82-7.94-1.02-11.48-7.8-142.06-33.81-298.74-88.5-430.5-1-2.4-6.39-10.14-.97-10.05,3.36.06,7.3,9.45,8.67,12.35,7.48,15.79,14.25,34.53,19.85,51.15,40.67,120.59,59.55,251.28,67.98,378.02.23,3.48-.19,7.04-.02,10.52Z" style="fill: #030403;"/>
  <path d="M549,749c-44.88,119.57-65.36,250.51-74.98,377.52l-3.02,40.48c-2-.01-4,.02-6,0,.22-5.49-.28-11.06-.05-16.55,4.89-115.24,24.88-236.53,57.78-347.22.51-1.72.9-4.05,2.27-5.24,4.31,2.24,2.7.49,0-2,.38-5.14,8.21-25.76,10.49-32.01.56-1.54.55-3.45,2.51-3.99-.65,3.11-1.82,6.59-2.04,9.46-.15,1.97-.85,5.39,2.03,4.54,3.53-6.93,4.68-14.9,7.49-22.01.68-1.73,1.32-3.12,3.52-2.99Z" style="fill: #030403;"/>
  <path d="M685,787l-1,4h4c-3.87,4.91-15.65,12.57-21.02,17.48-98.95,90.46-140.93,208.64-156,340l-.98,17.52c-2.92-.34-4.83.92-7,1,.23-9.62,1.76-19.08,2.92-28.58,17.16-140.34,64.79-263.83,179.08-351.42Z" style="fill: #040403;"/>
  <path d="M119,1154c-4.07-43-15.53-80.8-33.81-119.69-5.25-11.16-11.24-22.05-17.13-32.88l1.92-1.42c0,.96.42,1.75.96,2.51,33.86,47.95,63.03,98.28,78.56,155.48.8,2.94,1.78,5.88,1.49,9.01-10.32-.03-20.68.02-31,0,.51-4.44-.58-8.64-1-13Z" style="fill: #131811;"/>
  <path d="M233,1167c-2.16-.08-4.08-1.34-7-1l-.98-32.52c-9.14-98.48-27.48-198.84-62.26-291.74-3.83-10.22-12.48-25.83-14.56-35.44-1.75-8.11,1.24-8.01,5-2,12.37,19.77,23.66,55.37,30.84,78.16,19.64,62.38,33.49,131.14,41.88,196.12,3.8,29.47,5.43,58.91,7.08,88.42Z" style="fill: #030403;"/>
  <path d="M692,212c-6.18,4.88-11.93,11.37-19,15-4.95,8.92-18.53,19.29-25.99,27.51-44.2,48.66-87.58,121.8-110.77,183.23-8.66,22.95-13.66,45.9-20.96,69.04-.7,2.22-4.4,13.84-5.78,14.22-1.5.42-4.07-2.62-3.33-4.23,11.85-50.97,28.82-100.49,53.43-146.67,20.72-38.9,49.46-82.55,78.41-115.59,4.82-5.5,14.18-16.53,19.99-19.51,3.07-5.52,5.56-6.06,10-10,.33,2.14-.53,3.16-1.96,4.54-2.18,2.1-5.49,4.15-8.04,5.46-.18.32-.06,1.2-.5,1.97-.58,1.01-2.12,1.75-2.49,2.54-1.8,3.77,5.16-1.19,6.02-1.98,4.45-4.13,6.04-7.48,11.98-10.52,4.36-7.85,9.99-8.05,14.59-12.88,1.44-1.51,1.89-2.54,4.41-2.12Z" style="fill: #030403;"/>
  <path d="M652,229c-4.26,6.38-13.73,13.09-19.52,18.98-67.99,69.05-105.83,143.05-141.96,232.04-4.92,12.12-9.95,24.44-13.52,36.99-4.52.65-4.38-2.9-3.93-6.44.8-6.26,6.63-19.27,9.17-25.83,24.76-63.92,56.43-133.22,98.77-187.23,15.99-20.4,36.18-43.97,54.99-61.51-.08,1.82.98,3.7,3,2.51,4.87-2.87,7.54-8.77,13-9.51Z" style="fill: #040403;"/>
  <path d="M481,876c-.54,6.65-4.22,17.6-5.71,24.79-16.59,80.35-26.56,161.96-29.31,243.69-.24,7.15.21,14.37.02,21.52-3.24-1.21-1.77-2.33-6-3-1.05-.17-.92-.54-1.03-1.44-.64-5.03-.19-13.72-.01-19.1,2.6-81.72,13.05-155.35,28.05-235.45.74-.61,1.5-.67,2.28-.25,2.61-7.83,4.34-15.88,5.2-24.16.43-3.61,2.96-11.1,6.51-6.59Z" style="fill: #040405;"/>
  <path d="M376,900c2.27,2.09,2.84,6.05,3.52,8.98,4.9,21.13,8.2,47.75,10.5,69.5,6.08,57.6,1.42,111.53-3.29,168.75-.14,1.64-2.23,3.17,1.27,2.77,2.9,1.18,1.95,12.76-1,7l-1.11.08-.51,9.39-1.38.53c-1.99.06-4.01-.01-6,0l4.02-33.48c6.66-72.31,7.1-144.32-8.02-215.52,1.81-.63,3.23.44,4.26,3.23l-4.13-18.33c-.37-1.37.6-2.22,1.87-2.9Z" style="fill: #2f2f2e;"/>
  <path d="M704,939c-4.96,4.17-9.77,9.54-13.99,14.51-45.18,53.19-72.63,116.65-91.52,183.48l-7.49,29.01c-1.46-.14-3.54-.14-5,0,.69-8.8,2.97-17.71,5.24-26.26,15.94-59.9,42.36-123.49,80.34-172.66,9.76-12.63,20.39-24.57,32.42-35.08.01,2.33-.02,4.67,0,7Z" style="fill: #040403;"/>
  <path d="M469,886l-.02-11.52c6.32-48.45,11.56-96.84,18.94-145.06,1.61-10.54,2.23-21.17,5.57-31.43.97-2.97,1.48-6.74,5.51-5.99l.02,10.52-20.01,144.48c1.38.24,1.47-1.77,1.72-2.77,3.71-15.1,7.42-30.14,11.99-45.02l9.29-25.21c.03,9.83-5.89,20.08-8.78,29.72-3.67,12.24-6.93,25.49-9.97,38.03-.94,3.85-.52,8.07-3.12,11.94l.36,1.32,2.5.99,3.02-3c-.44,6.03-3.78,13.87-5,20-1.58,4.19-5.39.16-4.09-3.79-2.43,4.95-4.23,10.29-5.4,16l-2.51.79Z" style="fill: #040405;"/>
  <path d="M493,612c1.05.41,2.13.65,3,1,1.39-.57,3.51.5,4,2,1.25.55,1.34,1.52,4,2,1.13.6,2.13,1.26,3,2,1,1.26,3.39,2.64,5,3,1.47.39,2.47,1.06,3,2,.42.97,12.97,13.07,15,15,1.33,1.41.77,1.92-1,1-6.3-6.62-12.94-10.43-21-14-20.37-9.03-37.22-5.97-58.41-8.09-6.65-.66-13.42-3.42-19.5-6-.85-3.77,2.43-8.04,5.62-9.7,14.19-7.37,42.96,4.12,57.29,9.79Z" style="fill: #312738;"/>
  <path d="M362,921c.67,4.52,2.72,11.14,2,16l1,2c.87,11.4,3.24,33.65,2,44,.1,1.01.44,2.01,1,3,.25,7.07.53,16.05,0,23,.66,2.56.54,5.4,0,8,.82,5.43-.57,10.44,0,14,.29.32.29.99,0,2-.13,1.3.16,2.73,0,4,.46,3.04.46,6.04,0,9,.44,6.42-.1,13.47,0,20-.28.87-.62.86-1,0l-2.04-.6c.44-5.63-.07-10.47-.97-15.93-.46-2.76.92-2.71-2.99-2.46.05-1.46-.12-2.92-.03-4.38l2.1-1.16c-1.03-3.37-3.57-8.44-2.07-11.46-1.22-32.3-3.19-65.4-5.91-99.28l.91-4.72c-2.73-.62-2.47-1.76,0-3,.76-2.42,4.41-4.9,6-2Z" style="fill: #181718;"/>
  <path d="M704,530l-58,66c4.71-10.34,14.44-21.8,21.4-31.1,1.33-1.78,3.29-3.69,3.6-5.9.46-.31.71-.79,1-1,3.3-5.44,7.77-10.81,12-15,.37-.45,1.23-1.08,2-2,1-2.99,3.53-5.17,6-7,.53-.86,1.13-1.44,2-3l7-7c.74-.42,2.78-2.27,2.99-2-.69,2.24.98,4.81.94,6.57-.02.95-.94,1.34-.94,1.43Z" style="fill: #353834;"/>
  <path d="M369,1167c-.99-.02-2.86.47-3.01-.56l-.04-51.99,2.05-20.45c.84,20.91,3.36,42.95,2.05,64.55-.18,2.9-1.41,5.51-1.05,8.45Z" style="fill: #353834;"/>
  <path d="M387,1167c-2.22-2.52-1.82-7.23,0-10h2c-.77-2.48-.95-4.42-1-7-.33-18.95,6.18-43.97,8-63,1.58,1.61,1.18,4.46,1.01,6.53-1.48,18.58-4.45,37.4-6.04,55.95-.41,4.8-.33,10.21-.96,15.03-.29,2.21-1.14,2.26-3.02,2.49Z" style="fill: #080908;"/>
  <path d="M618,611c-.56,2.16-1.99,4.43-3.16,6.34-19.51,31.93-37.67,65.39-52.84,99.66-1.97-.78-.47-3.23-.03-4.53,2.34-6.76,6.15-12.41,9.22-18.77,4.67-9.67,9.21-21.51,14.82-29.99,8.83-13.33,15.71-31.82,25.71-43.97,2.75-3.34.94-4.8,6.28-8.73Z" style="fill: #030403;"/>
  <path d="M553,721c2.17.97-.25,5.14-1,6.32-4.64,7.32-7.88,19.68-11.54,28.68-.65,1.61.38,3.59-2.46,3,3.15-13.65,9.71-25.66,15-38Z" style="fill: #030403;"/>
  <path d="M703,791c-6.54,6.22-13.4,12.33-19.52,18.98-6,6.51-12.92,14.29-18.48,21.02-.58-2.38,1.02-3.08,1.97-4.54,1.02-1.56,2.94-5.01,3.99-6.01,2.87-2.76,1.9-.76,4.99-4.98,1.47-2.01,5.09-3.8,5.79-4.74,4.39-5.87,8.63-12.08,14.74-16.79l6.53-2.95Z" style="fill: #030403;"/>
  <path d="M559,724c-2.88,6.77-6.48,14.42-9,21-2.52-2.89,1.54-6.52,2.51-8.99,1.47-3.74,2.01-11.18,6.49-12.01Z" style="fill: #030403;"/>
  <path d="M692,229c-1.8,1.53-4.65,6.51-6.01,7.52-.76.56-1.61.3-1.99.48-3.06,5.99-8.72,11.42-13,17-.18,1.42-1.71,1.52-2,0,1.41.6,1.41,1.41,0,2-.2.77-.15,1.56-1,2-5.31,2.74-21.43,26.03-26.41,33.09-47.15,66.73-88.28,157.97-99.5,239.5-.42,3.03,1.3,7.91-2.58,8.41-3.32-.72-2.72-9.7-2.53-12.52,1.16-16.77,7.65-41.2,12.28-57.72,22.62-80.77,61.52-151.75,113.74-216.76v5c1.85.36,2.66-1.29,4.07-2.46.63-.53,1.87-.45,1.93-.53.13-.19-.14-1.81.52-2.93,1.55-2.62,1.42-2.02,2.48-5.07.98-.25,3.46.42,3.9-.09.22-.26.21-2.17,1.04-3.44,1.61-2.48,4.61-4.27,7.06-5.47,1.27-2.49,1.16-5.55,4.86-5.14-.13-4.38.93-2.28,3.14-2.86Z" style="fill: #040403;"/>
  <path d="M672,246c-1.83.47-3.63,2.55-6,2,3.89-4.77,8.01-9.47,12-14,.06,4.98-4.49,7.61-6,12Z" style="fill: #040403;"/>
  <path d="M501,797c-.27.86.02,2.52-.45,4.02-1.22,3.93-2.54,8.43-4.55,11.98,0-5.25.79-7.84,2.28-13.25.46-1.68.34-3.26,2.72-2.75Z" style="fill: #040405;"/>
  <path d="M664,832c-4.61,5.62-7.8,13.28-14,18,.42-4.04,4.39-8.48,6.98-11.55.81-.96,2.34-1.13,2.77-1.69,1.35-1.72-.27-5.91,4.25-4.76Z" style="fill: #030403;"/>
  <path d="M384,1167l1-13c2.83-.52,1.95.94,2,3,.08,3.32-.05,6.68,0,10-.95.12-2.02-.03-3,0Z" style="fill: #f1f2f1;"/>
  <path d="M368,1083c-3.04.55-1.92-1.53-2-3.47-.17-4.35-.56-9.55,1-13.53h1c.08,5.65-.13,11.35,0,17Z" style="fill: #353834;"/>
  <path d="M490,836c-1.28,4.83-1.61,10.5-4,15-.88-6.77-.57-5.38,1.78-11.76.62-1.68-.9-3.84,2.22-3.24Z" style="fill: #040405;"/>
  <path d="M699,517c-.23,4.73-4.57,8.51-8.99,8.99-1.1-1.04,4.52-6.13,5.5-7,1.12-.99,1.64-2.4,3.5-2Z" style="fill: #030403;"/>
  <path d="M685,226c3.31-3.54,6.52-6.65,10-10-.13,4.01-5.99,9.87-10,10Z" style="fill: #030302;"/>
  <path d="M432,703l2.07.58c1.06,2.15.82,4.18.93,6.42l-1.39.03c-.92-2-1.14-2.46-3.61-2.03-.57-.35-.57-1.35,0-3,.33-.96.88-1.65,1-2,.28-.87.62-.86,1,0Z" style="fill: #080908;"/>
  <path d="M684,543c-3.72,4.51-6.93,11.27-12,15-.33-3.83,2.62-6.16,4.98-8.55.83-.84,2.36-1.17,2.77-1.69,1.35-1.76-.26-5.9,4.25-4.75Z" style="fill: #030403;"/>
  <path d="M506,762l.86.58c-1.05,3.23-.96,10.5-4.86,10.42.03-3.72,2.7-7.58,4-11Z" style="fill: #040405;"/>
  <path d="M496,816c-.33,2.95-2.16,6.96-3,10l-2.01-.51c1.84-3.1.92-9.53,5.01-9.49Z" style="fill: #040405;"/>
  <path d="M513,764c-1.17,3.4-2.85,6.68-4,10-2.08-.8,1.08-8.74,1.98-9.56.5-.46,1.34-.46,2.02-.44Z" style="fill: #040405;"/>
  <path d="M649,851c.54,3.45-3.31,5.69-5,8,.14-2.6.82-5.98,3.02-7.5.67-.46,1.7-.31,1.98-.5Z" style="fill: #030403;"/>
  <path d="M701,524c-.53,2.92-4.13,6.5-7,7,1.23-2.21,1.46-3.61,3.98-5.55,1.44-1.11,2.2-.98,3.02-1.45Z" style="fill: #030403;"/>
  <path d="M427,732h2c.38,3.08-.49,5.95-1.1,8.92l-1.9.08c.22-3.06.78-5.88,1-9Z" style="fill: #080908;"/>
  <path d="M542,699c-1.41,3.02-2.02,6.62-5,9-.01-.06-.86.19-1-.53-.08-.46,3.8-8.03,4.15-8.34.42-.38,1.27-.13,1.84-.13Z" style="fill: #040405;"/>
  <path d="M568,687c1.3-2.93,1.95-7.28,5-9-.94,2.93-1.01,8.71-5,9Z" style="fill: #030403;"/>
  <path d="M578,668c.36,3.03-1.96,9.06-5,9,1.16-4.24,3.48-6.06,5-9Z" style="fill: #030403;"/>
  <path d="M692,534c-2.48,4.06-3.59,4.1-6,7-.37-3.22,3.08-6.56,6-7Z" style="fill: #030403;"/>
  <path d="M635,586l-14.54,22.99c-.3.6-1.05.7-1.46,1.01-.09-1.8.33-3.2,1.37-4.69,2.8-4.01,6.89-8.95,9.56-13.07s.78-2.99,5.07-6.24Z" style="fill: #030403;"/>
  <path d="M530,639c.13.12,1.17-.3,1.76.2s2.33,3.7,2.24,4.79c-.46.46-4.42-1.8-4.79-2.24-.5-.59-.08-1.63-.2-1.76l1-1Z" style="fill: #040405;"/>
  <path d="M695,931c-.46.67-.69,1.52-1.46,2l-9.54,7c3.08-4.49,3.49-2.86,4.8-4.2.47-.49.12-2.22,1.17-3.31s3.5-1.53,5.03-1.49Z" style="fill: #030403;"/>
  <path d="M430,708c0,2,0,4,0,6h-2c-.67-3.36,1.02-6.15,2-9v3Z" style="fill: #1b2019;"/>
  <path d="M539,651c-2.14.92-4.69-4.3-3.99-4.99,2.57-.14,4.42,2.34,3.99,4.99Z" style="fill: #040405;"/>
  <path d="M557,711c1.66.95-.57,8.03-3,7,1.02-2.33,1.96-4.67,3-7Z" style="fill: #030403;"/>
  <path d="M640,579c-.21,3.1-1.77,4.35-4,6-.31-1.33,1.4-5.16,2.23-5.8.65-.5,1.58-.07,1.77-.2Z" style="fill: #030403;"/>
  <path d="M648,225c.56,4.42-2.35,3.93-4.71,5.34-.52.31.08.58-2.29,1.66l.18-1.8c2.61-1.21,4.69-3.36,6.82-5.2Z" style="fill: #040403;"/>
  <path d="M700,782l-11,8c1.86-2.68,2.34-3.73,5.33-5.67,1.95-1.26,3.74-1.6,5.67-2.33Z" style="fill: #040403;"/>
  <path d="M671,814c1.01,2.92-1.37,2.83-1.65,3.3-.61,1.02-.56,2.29-1.28,3.27-1.05,1.43-2.53,1.06-3.07,1.43.68-3.12,3.88-5.6,6-8Z" style="fill: #030403;"/>
  <path d="M88,485c-2.26.61-3.49-3.01-4-5,3.26-.09,3.22,2.78,4,5Z" style="fill: #191d17;"/>
  <path d="M689,796c.66-2.05,2.78-2.81,4-4,.58,4.78-2.15,3.21-4,4Z" style="fill: #030403;"/>
  <path d="M587,652c-1.3,4.55-1.49,3.13-2.73,5.28-.76,1.3.59,3.4-2.27,2.72,1.36-2.53,2.33-6.52,5-8Z" style="fill: #030403;"/>
  <path d="M505,786c-.61,1.83-1.56,3.63-2,5l-.87-.59.98-4.33,1.89-.08Z" style="fill: #040405;"/>
  <path d="M704,744l-4,1c.59-.35,2.04-2.98,4-3,0,.56,0,1.45,0,2Z" style="fill: #353834;"/>
  <path d="M528,728c-.64,1.33-1.4,2.76-2,4l-.92-.59c.48-1.96.61-4.03,2.92-3.41Z" style="fill: #040405;"/>
  <path d="M496,613l.59-.92c1.96.48,4.03.61,3.41,2.92-1.42-.63-3.17-1.67-4-2Z" style="fill: #040405;"/>
  <path d="M620,579c.05,1.92-1.32,3.28-3,4,.23-.55-.3-1.93.46-3.04s2.19-.72,2.54-.96Z" style="fill: #040405;"/>
  <path d="M675,219c.47-1.69,1.94-2.11,3-3l-1.61,3.97c-.73.2-1.24-.94-1.39-.97Z" style="fill: #030403;"/>
  <path d="M518,750c.21,1.74-.13,3.54-2,4,.06-1.03-.28-3.56.08-3.95.32-.35,1.48.11,1.92-.05Z" style="fill: #040405;"/>
  <path d="M430,718c-.03,1.33.04,2.68,0,4.01h-2c.11-.97-.05-2.02,0-3.01.4-1.69.74-2.59,2-1Z" style="fill: #080908;"/>
  <path d="M516,755c-.22,2.12-.78,2.23-1,3l-.99-.5v-2.49s1.99,0,1.99,0Z" style="fill: #040405;"/>
  <path d="M547,689v3s-2,0-2,0c.11-.96-.19-2,.06-2.96.61-.28,1.55.13,1.94-.04Z" style="fill: #040405;"/>
  <path d="M492,829c-.35,1.33-.86,2.48-1,3-1.03-.73-1.21-1.79-.99-2.99h1.99Z" style="fill: #040405;"/>
  <path d="M566,657c-.4,2.2-1.99,4.82-4,6,.71-4.18.72-1.93,1.71-3.29,1.33-1.81-1.12-1.17,2.29-2.71Z" style="fill: #040405;"/>
  <path d="M514,553c.96.11,2-.19,2.96.05.27.61-.13,1.54.04,1.95-1.47.06-2.62-.54-3-2Z" style="fill: #040405;"/>
  <path d="M699,928c-.38,1.46-1.53,2.06-3,2,.17-.31-.34-1.54.08-1.91.55-.48,2.22.14,2.92-.09Z" style="fill: #030403;"/>
  <path d="M520,557c.81.17,2.54-.32,2.95.06.35.32-.12,1.5.05,1.94-1.47.06-2.62-.54-3-2Z" style="fill: #040405;"/>
  <path d="M581,634c.06,1.47-.54,2.62-2,3,.21-.76-.33-2.02.1-2.91.58-.39,1.59.08,1.9-.09Z" style="fill: #040405;"/>
  <path d="M600,629c-.16.89.24,2.01-.06,2.95-.6.3-1.54-.12-1.94.05-.06-1.47.54-2.62,2-3Z" style="fill: #030403;"/>
  <path d="M512,622c.84.19,2.02-.25,2.96.06.29.6-.13,1.55.04,1.94-1.47.06-2.62-.54-3-2Z" style="fill: #040405;"/>
  <path d="M561,665c-.02,1.44-.54,2.64-2,3,.17-.87-.19-2.03.02-2.98.62-.19,1.53.16,1.98-.02Z" style="fill: #040405;"/>
  <path d="M591,619c.06,1.47-.54,2.62-2,3,.21-.75-.38-2.37.1-2.92.36-.41,1.49.07,1.9-.08Z" style="fill: #040405;"/>
  <path d="M504,617c4.99.9,1.78.46,3,2-1.47.06-2.62-.54-3-2Z" style="fill: #040405;"/>
  <path d="M595,613c.06,1.47-.54,2.62-2,3,.2-.78-.32-2.02.09-2.92.6-.36,1.45.06,1.91-.08Z" style="fill: #040405;"/>
  <path d="M554,677c.06,1.47-.54,2.62-2,3,.2-.76-.38-2.33.11-2.9.38-.45,1.61.06,1.89-.1Z" style="fill: #040405;"/>
  <path d="M680,207c-.38,1.46-1.53,2.06-3,2,.17-.38-.28-1.32.07-1.92l2.93-.08Z" style="fill: #040403;"/>
  <path d="M598,609c.06,1.48-.57,2.57-2,3,.18-.81-.34-2.48.09-2.94.36-.39,1.59.11,1.91-.06Z" style="fill: #040405;"/>
  <path d="M695,922c-.16.43.31,1.57-.06,1.92-.45.41-2.16-.09-2.94.08.38-1.46,1.53-2.06,3-2Z" style="fill: #030403;"/>
  <path d="M656,226c-.47,1.41-1.51,2.08-3,2,.17-.41-.31-1.59.05-1.92.46-.42,2.17.13,2.95-.08Z" style="fill: #040403;"/>
  <path d="M430,716c0,.67.02,1.33,0,2l-2,1c.05-1-.05-2.01,0-3h2Z" style="fill: #1b2019;"/>
  <path d="M605,599c.06,1.47-.54,2.62-2,3,.21-.77-.3-2.02.08-2.93.6-.35,1.54.1,1.92-.07Z" style="fill: #040405;"/>
  <path d="M394,1158l-.17,1.41-.83.59c-.02-.11-1.44-.66-1-2h2Z" style="fill: #080908;"/>
  <path d="M524,737l-1,2c-.03-.15-1.48-.86-1-1.99.61-.18,1.62.18,2,0Z" style="fill: #040405;"/>
  <path d="M545,647c.05.36,2.98,2.43-1,2-.13-.63.15-1.48,0-2h1Z" style="fill: #040405;"/>
  <path d="M675,539v2s-2,0-2,0c.17-.3-.33-1.43.12-1.88s1.58.05,1.88-.12Z" style="fill: #030403;"/>
  <path d="M569,652l-1,2c-.05-.12-1.52.05-1-2,.6-.15,1.63.19,2,0Z" style="fill: #040405;"/>
  <path d="M534,715l-1,2c-.03-.15-1.48-.86-1-1.99.61-.18,1.62.18,2,0Z" style="fill: #040405;"/>
  <path d="M82,477c2.71-.27,1.8.06,2,2h-2s0-2,0-2Z" style="fill: #191d17;"/>
  <path d="M80,474c1.64.87,1.46-1.5,2,2-1.89.33-2.33-.12-2-2Z" style="fill: #191d17;"/>
  <path d="M75,467c.27.17,1.46-.33,1.89.1s-.04,1.46.11,1.9h-2s0-2,0-2Z" style="fill: #191d17;"/>
  <path d="M703,218c.17-.46-.14-1.38,0-2,2.22-.48,2.9.64,1,2h-1Z" style="fill: #191d17;"/>
  <path d="M514,742c.03.15,1.47.88,1,2-.61.17-1.62-.18-2,0l1-2Z" style="fill: #040405;"/>
  <path d="M662,220v2s-2,0-2,0c.88-1.66-1.45-1.22,2-2Z" style="fill: #040403;"/>
  <path d="M565,693c.03.16,1.47.87,1,1.99-.61.17-1.62-.18-2,0l1-2Z" style="fill: #030403;"/>
  <path d="M396,1081h2c.01.66.01,1.34,0,2h-2c.05-.66-.05-1.34,0-2Z" style="fill: #080908;"/>
  <path d="M519,731c.03.14,1.48.86,1,1.99-.61.18-1.61-.18-2,0l1-2Z" style="fill: #040405;"/>
  <path d="M398,1070c.02.11,1.44.66,1,2h-2s.17-1.4.17-1.4l.83-.59Z" style="fill: #080908;"/>
  <path d="M397,1077c.02.11,1.44.67,1,2-.59.12-1.78-.18-2,0l.17-1.41.83-.59Z" style="fill: #080908;"/>
  <path d="M48.5,415c.65,0,.65,1,0,1s-.65-1,0-1Z" style="fill: #191d17;"/>
  <path d="M54.5,430c.65,0,.65,1,0,1s-.65-1,0-1Z" style="fill: #191d17;"/>
  <path d="M411,438c-2.31.56-2.05-1.24-2.96-2.49-3.84-5.28-13.89-13.82-20.5-14.54-9.37-1.02-18.83,6.46-22.03,15.03-2.26,6.06-.31,16.88,1.99,23,2.49,6.63,15.47,35.06,19.6,38.44.48.39,1.25.48,1.86.62,1.11.93-4.43,8.64-4.96,9.94-6.82-5.34-11.73-12.87-16.43-20.07-14.2-21.75-29.74-47.48-11-71.85,11.39-14.81,25.21-10.79,37.92-.07,7.44,6.29,12.23,13.49,16.51,21.99Z" style="fill: #372d3d;"/>
  <path d="M338,493c-6.67-2.21-12.69-.97-18.99,1.51-16.06,6.31-25.02,22.86-24.05,40.04,1.16,20.6,2.68,41.38,6.15,61.85,1.63,9.59,4.45,18.98,5.9,28.6l-11.95,1.95c-.52-2.24-1.32-4.45-1.79-6.71-1.66-7.97-2.76-18.69-2.31-26.78.79-14.29,6.55-33.03,1.54-46.44-2.8-7.49-7.61-12.37-16-12.04-1.45.06-2.88.98-4.07.97-1.02-.01-1.27-.89-1.42-.94l5.91-2.1c1.09-18.84,11.42-43.78,31.06-49.44,8.26-2.38,18.46-.28,25.73,4.34,3.53,2.24,3.34,4.28,4.3,5.2Z" style="fill: #352b3b;"/>
  <path d="M383,514c2.04.99.73,3.49.5,5.01-2.03,13.57-4.49,27.26-4.5,40.99,2.42.91,2.77-3.14,2.92-4.57.71-6.96.76-15.03,2.09-21.9.3-1.54,1.61-2.37,1.77-3.17.58-3.04-2.17-1.6.96-5.53,1.23-1.55-1.54-5.53,2.25-4.82.37,1.08.71,2.17.9,3.28s.35,2.14.25,3.17c-2.1,22.54-3.86,43.64-5.18,66.27-.13,2.21-1.06,4.28-1.97,6.27-2.66-.59-4.2-1.34-7,0-2.02-.23-1.93-1.23,0-2-1.9-25.11-.22-58.98,7-83Z" style="fill: #181718;"/>
  <path d="M409,594c-.06.07.16.95-.3,1.72-.25.41-1.54.71-1.7,1.28-3.04.54-1.91-1.53-2-3.47-.33-7.52.94-7.61,2.54-13.48.9-3.28.85-7.37,1.67-10.33,4.72-16.99,12.78-30.68,19.5-46.5,1.56-3.67,5.73-12.62,6.11-15.95.12-1.09-.74-7.19-1.05-8.54-.59-2.59-4.59-10.94-6.27-12.73-1.56-1.66-5.28-1.14-6.39-3.59l1.89-9.4c.01.1.86.61.97,1.51.29,2.21-.6,5.9.49,7.52.65.97,3.62,1.83,5.05,2.95,18.69,14.76-3.07,45.65-10.01,62.02-5.12,12.08-9.99,26.49-11.41,39.58-.23,2.07-.84,5.9.91,7.41Z" style="fill: #181718;"/>
  <path d="M376,597c.05.66-.05,1.34,0,2,.25,3.66,1.84,7.87,1,12l-16.01,1c.33-3.73-.43-7.97-.06-11.61.17-1.65,1.03-2.27,1.06-2.39,4.68-.57,9.24-1.43,14-1Z" style="fill: #372d3d;"/>
  <path d="M363,585c-.31-4.51-1.99-14.51-3.2-19.3-.22-.87-2.4-6.6-2.71-7.09-.98-1.51-5.84-.73-7.09-2.61.16-.03.63-1.16,2.36-1.02,11.63.99,11.81,15.79,11.65,24.52-.04,1.88.61,4.06-1.01,5.49Z" style="fill: #181718;"/>
  <path d="M421,459c-2.91.51-6.55-7.94-6.83-9.71-.14-.86.83-1.22.83-1.29,3.01-.26,5.82,8.51,6,11Z" style="fill: #181718;"/>
  <path d="M423,470h-2c-.91-2.08.96-3.78,1-4,1.45,1.01.85,2.6,1,4Z" style="fill: #181718;"/>
  <path d="M422,464h-2c-.72-1.66.95-2.73,1-3l.84.65c.26.77.15,1.56.16,2.35Z" style="fill: #181718;"/>
  <path d="M280,738c3.17,2.74,8.16,6.38,11.67,8.83,20.38,14.19,48.25,23.39,55.34,50.17,2.35.54,1.6-.39,2.23-1.28,5.88-8.29,10.76-16.83,16.8-25.23.9-1.26.65-3.05,2.96-2.49.3.88.56,1.76.69,2.66s.25,1.72.05,2.47c-2.91,11.2-6.09,22.22-9.35,33.31-.56,1.89-6.81,22.67-9.72,22.8-.55.02-1.11-.09-1.67-.24l-1.23-1.28c-1.9-10.55-4.38-20.99-7.56-31.19-2.64-8.47-7.99-11.6-5.12-.67l4.7,16.05-.78,1.08c2.96.18,2.69,2.37,0,3,3.66,7.22,5.75,15.93,5,24,2.74.89,2.7,2.14,0,3l-.33,5.25c-7.96,11.06-11.62,20.34-9.06,34.14.72,4.6-.15,7.81-2.61,9.62-6.46-21.56-12.84-43.17-19.97-64.53-8.51-25.48-17.56-53.62-28.99-77.18-1.43-2.95-2.68-8.88-3.04-12.29Z" style="fill: #f9f9f9;"/>
  <path d="M126.66,914.1c1.36-.22,1.59.66,2.21,1.53,1.89,2.63,3.93,8.57,5.15,11.85,6.5,17.42,10.68,36.54,15.47,54.53,6.26,23.53,14.51,50.46,17.43,74.57.61,5.02.33,11.9-4.91,5.91-17.62-20.14-31.3-39.86-50.99-59.01-5.29-5.14-8.16-4.1-6.78-13.74,3.03-21.09,11.44-44.17,17.28-64.71,1.06-3.72.44-10.17,5.13-10.93Z" style="fill: #f9f9f9;"/>
  <path d="M347,859c1.19.12,1.48.97,1,2,2.96,1.8,4.8,9.63,1,11,1.28-.23,1.38.92,1,2,2.62,2.02,4.59,9.43,1,11,1.28-.23,1.38.92,1,2,2.83.73,2.58,3.67,0,5,1.09.68,1.42,2.01,1,4,2.86.75,2.71,3.73,0,5,1.28-.23,1.38.92,1,2,2.86.75,2.71,3.73,0,5,1.28-.23,1.38.92,1,2,2.44,2.12,3.83,10.97,1,13,.09.99-.09,2.01,0,3-1.64,6.35-11.54,9.09-14,2-.61-.42-1.72-1.14-1.95-1.75-1.07-10.3-6.35-21.07-7.81-31.03-.16-1.08-.39-2.11-.23-3.22,1.14-8.35.46-11.44-.01-19.48-.8-13.48,7.48-18.1,12.01-29.52,3.58,1.77,6.26,13.26,3,16Z" style="fill: #c6c557;"/>
  <path d="M356,926c2.51,27.55,5.2,55.58,6.02,83.48.15,5.12.78,16.91-1.02,20.52-2.17-15.09-4.46-30.22-7.28-45.22-3.58-19.01-8.7-37.71-11.72-56.78,2.15,1.46,4.83,2.42,7.48,2.02,2.82-.43,3.46-4.06,6.52-4.02Z" style="fill: #f1f2f1;"/>
  <path d="M165,713l1,13-14.31-8.19-8.69-2.81c7-.69,14.81-1.23,22-2Z" style="fill: #f1f2f1;"/>
  <path d="M168,1102c-.85-.49-2.39,1.2-2.13-2.87-3.4.3-3.12-1.55-4.35-4.14-.48-1.02-2.61-3.39-.52-3.99,2.3,3.55,5.87,6.85,7,11Z" style="fill: #040403;"/>
  <path d="M159,1088c-4,.06-3.2-3.86-4-6,2.54.91,2.94,4.33,4,6Z" style="fill: #040403;"/>
  <path d="M154,1080c-3.66.88-3.76-1.88-4-5,1.74,1.38,3.03,3.04,4,5Z" style="fill: #040403;"/>
  <path d="M671,254c-.28.36.7,2.6-2,2,.14-.55-.09-1.36,0-2h2Z" style="fill: #151a13;"/>
  <path d="M646,597c-.81,1.95-3.81,7.6-5.21,8.82-.48.42-1.21.22-1.79.18.99-2.57,1.44-1.89,1.65-2.3,1.28-2.41,1.9-6.67,5.35-6.7Z" style="fill: #353834;"/>
  <path d="M602,674c-.88,2.18-1.2,6.69-4,6,.74-2.22,1.33-6.69,4-6Z" style="fill: #1b2019;"/>
  <path d="M689,750l-.08,1.9c-1.69.11-3.28.87-4.92,1.1l.07-1.9c1.66-.26,3.32-.63,4.93-1.1Z" style="fill: #353834;"/>
  <path d="M667,760v2s-3,0-3,0c.68-.4,1.34-1.12,3-2Z" style="fill: #353834;"/>
  <path d="M696,747v2s-3,0-3,0c.17-.08,1.69-1.28,3-2Z" style="fill: #353834;"/>
  <path d="M657,766v1.99s-2,.01-2,.01c.17-.24-.33-1.42.12-1.88.57-.41,1.58.05,1.88-.12Z" style="fill: #353834;"/>
  <path d="M637,610c-.16.29.32,1.44-.12,1.88s-1.56-.05-1.88.12c-.31-1.98.02-2.3,2-2Z" style="fill: #353834;"/>
  <path d="M596,687c-.12.58.14,1.34-.01,1.99h-1.99s0-1.99,0-1.99h2Z" style="fill: #1b2019;"/>
  <path d="M681,753v2s-2,0-2,0v-2c.66-.05,1.34.03,2,0Z" style="fill: #353834;"/>
  <path d="M469,886c2.49-5.38,2.4-9.92,4.48-15.02,1.56-3.82,7-7.46,6.52-12.99,1.67.05,2.17-.65,1.8,1.29s-.6,4.24-1.03,5.98c-.51,2.05-3.02,4.24-1.77,7.73.57.12,1.84-.18,2,0,.1.11.05,2.39,0,3-1.98-.15-3.02,1.27-3.55,2.95-1.79,5.63-2.24,14.2-3.71,20.29-1.15,4.78-3.36,9.06-3.74,13.77l-3-6.01c1.15-6.14.03-16.73,2-21Z"/>
  <path d="M523,674c.5,3.32-2.01,5.76-3,8-.78,2.21-1.3,2.26-2,0,.59-1.38-.41-6.02,0-8,1.66.04,3.34-.05,5,0Z" style="fill: #f1f2f1;"/>
  <path d="M520,682c-.76,1.72-.5,5.94-3.49,6.01-2.54-3.09,1.22-5.36,1.49-6.01h2Z" style="fill: #353834;"/>
  <path d="M432,703h-1c.19-.55-.2-1.6.18-2.31l.82-.69c.01.18,1.75,1.44,0,3Z" style="fill: #1b2019;"/>
  <path d="M298.7,633.2c7.88-1.67,17.45,2.26,24.84,4.75,5.8,25.07,21.79,45.91,28.19,70.81,3.61,14.04,4.51,28.11,2.01,42.48-.2,1.14-1.14,5.79-2.25,5.74-17.75-17.25-42.44-25.65-60.99-41.99-14.71-12.96-21.24-26.48-19.52-46.51,1.4-16.29,10.87-31.71,27.72-35.28Z" style="fill: #322839;"/>
  <path d="M365,750c1.61-9.12,4.7-18.39,5.91-27.58,4.12-31.12,4.13-63.81-15.92-89.91-1.82-2.37-6.37-4.78-6.01-7.99.04-.37,5.64-2.87,6.78-3.26,11.67-4.05,20.74-3.55,31.93,1.56,21.49,9.81,35.58,37.43,31.07,60.44s-24.17,41.06-40.78,56.22c-1.59,1.45-11.21,12.38-12.97,10.52Z" style="fill: #322839;"/>
  <path d="M134,690c-.7-.64,1.94-4.1,2.58-4.92,22.06-28.18,49.85-43.42,82.43-56.57,11.14-4.49,30.83-13.48,42.49-11.51,4.13.7,6.73,9.57,6.44,13.39-1.25,16.8-20.57,28.95-34.03,36.02-30.28,15.9-65.94,23.21-99.91,23.59Z" style="fill: #322839;"/>
  <path d="M138.99,660c-1.44.18-1.79-2.58-1.93-3.56-1.35-9.41-2.51-21.46-.82-30.7,4.25-23.22,18.83-45.83,39.42-57.58,11.86-6.77,39.87-15.22,51.87-7.19,4.13,2.76,13.13,17.72,10.03,22.09-.7.99-11.83,3.41-14.56,4.44-15.05,5.7-34.01,19.18-46.93,29.07-15.38,11.76-28.8,25.8-37.08,43.43Z" style="fill: #312738;"/>
  <path d="M251,584c-6.41.75-4.25-2.35-5.22-6.28-2.03-8.17-7.6-15.88-14.66-20.32,1.39-3.26.54-6.54.97-9.82,3.83-29.37,13.01-79.02,36.89-98.11,4.32-3.45,7.84-4.61,12.06,0,4.93,5.38,4.58,16.98,3.88,23.95-1.95,19.52-17.21,38.99-23.42,57.58-5.56,16.63-10.56,35.48-10.49,53.01Z" style="fill: #312738;"/>
  <path d="M336,621c-6.68-1.43-8.92,3.62-12.6,7.92l-10.96-3.86c-1.02-3.07-.11-6.33-.53-9.47-3.19-23.85-7.96-46.7-8.93-71.07-.58-14.67,1.74-43.62,20.55-46.48,15.95-2.42,15.43,18.58,13.2,29.2-6.39,30.48-18.1,45.47-7.22,78.75l6.48,15.01Z" style="fill: #312738;"/>
  <path d="M421,490c.12.15,1.58.23,3,2,6.13,2.05,7.17,14.47,3,19-3.14,14.12-15.79,28.67-18,43-5.81,14.39-8.74,29.9-8.93,45.52l-1.07,1.48c0,.33,0,.67,0,1-1.18,5.74-13.91,1.04-16-3-.34-27.44,2.35-51.95,6-79,.2-1.49,1.29-2.52,1-5,.81-2.17,2.54-2.35,5.21-.55,14.48,11.88,20.44-11.04,22.45-21.75.52-2.11.88-3.58,3.34-2.7Z" style="fill: #f9f9f9;"/>
  <path d="M378.67,428.18c11.49-3.49,27.29,15.97,31.53,25.12,2.64,5.69,5.44,19.84,5.85,26.21.07,1.13.17,2.65-.48,3.56-.53.75-9.06,2.66-11.26,3.73-3.5,1.7-8.62,7.69-12.33,5.73-2.41-1.28-10.07-22-11.79-26.22-4.29-10.57-10.07-19.45-6.98-31.6.48-1.89,3.69-6,5.46-6.54Z" style="fill: #312738;"/>
  <path d="M362.99,733c-1.73.24-.98-2.29-.99-3.49-.16-10.71-2.34-21.26-5.49-31.51-5.03-16.37-14.42-30.72-20.28-46.72-2.57-7.03-5.74-14.78-5.23-22.28,13.62,0,21.76,13.56,26.86,24.64,11.82,25.68,8.62,52.18,5.13,79.36Z" style="fill: #312738;"/>
  <path d="M278,543c.57.31,1.49.12,2.51.94,7.22,5.79,6.98,18.05,6.51,26.57-1.14,20.47-5.03,33.27-.79,54.74.37,1.87,2.14,4.03,1.32,5.72-5.64,4.3-9.81,8.44-14,14.12-.4.54-.99,3.61-2.55,1.9-.57-.62,2.94-6.27,3.51-7.98,1.96-5.84,2.03-12.67-.73-18.31-1.04-2.13-4.26-3.84-4.68-5.39-.32-1.17,1.11-5.17.92-7.83-.48-6.76-6.59-15.21-11.92-19.08,1.2-2.85.7-5.54.89-8.41l2.17-1.17c7.04,5.12,12.75,11.74,17.13,19.83.67-14.01-.13-28.24-2.4-42.69-.72-5.19-.02-9.52,2.11-12.98Z" style="fill: #352b3b;"/>
  <path d="M278,543c.24,5.13-.33,10.4-.02,15.52.74,12.32,3.88,24.54,3.04,37-.18,2.71-1.67,5.48-1.03,8.48-4.61-5-7.4-11.32-12-16.49-2.51-2.82-5.5-6.04-8.99-7.51.82-12.55,3.55-24.25,6.94-36.34,2.78-2.52,5.67-3.31,9.41-2.48,1.58.35,1.94,1.44,2.65,1.82Z" style="fill: #f9f9f8;"/>
  <path d="M349,562c8.03.17,9.28,16.12,6,21,0,.67.01,1.33,0,2,1.65,3.04,1.37,9.23-1,12-.05,1,.04,2,0,3-1.17,3.71-12.94,7.42-16,5-.95-2.54-2.11-5.1-2.73-7.77-1.31-5.56-3.58-20.61-2.1-25.56.46-1.55,6.21-7.25,7.91-8.09,3.11-1.54,4.73-1.34,7.92-1.58Z" style="fill: #f9f9f9;"/>
  <path d="M390,515c-.01-.11-1.22-.2-.89-.84,2.94-.3,2.47-6.33,4.2-8.89.42-.63,2.54-3.41,3.22-4.23,5.1-6.26,15.23-14.63,23.85-13.07,1.17.25.44,1.81.62,2.03-1.96,2.74-1.76,6.59-2.71,9.79-2,6.7-7.13,21.01-15.69,20.2-4.9-.47-7.79-4.87-12.59-4.98Z" style="fill: #372d3d;"/>
  <path d="M354,600c-.21,5.72.57,9.56,2,15-4.57-1.05-7.1,4.92-9.51,6-1.65.74-1.35-.71-1.69-1.28-2.56-4.3-5.04-10-6.81-14.72l16-5Z" style="fill: #372d3d;"/>
  <path d="M399,602c-.11,5.15.23,10.36,0,15.51-.05,1.04.06,2.21-1.49,1.48-4.47-2.1-8.97-6.37-14.49-6.02-.92-3.25,1-6.7,1.03-9.49.02-1.62-1.03-3.15-1.05-4.49,5.63,1.25,10.57,5.28,16,3Z" style="fill: #352b3b;"/>
  <path d="M409,554c-1.52,9.83-5.86,19.45-6.91,29.59-.51,4.93-.1,8.8-1,14.04-.33,1.92.96,3.93-2.09,3.37.42-14.25,1.44-24.87,5.97-38.53.83-2.51,1.91-6.96,4.03-8.47Z" style="fill: #181718;"/>
  <path d="M355,583c.02-7.93,1.83-16.43-6-21,.07,0,.36-.83,1.27-.78,3.45.19,5.55,2.52,6.28,5.73.55,2.38,1.67,10.33,1.52,12.57s-.44,3.55-3.07,3.48Z" style="fill: #181718;"/>
  <path d="M427,511c1.59-7.15,1.8-13.04-3-19,4.62-3.4,6.88,8.13,6.96,10.6.06,1.84-.67,8.99-3.96,8.4Z" style="fill: #181718;"/>
  <path d="M355,585c3.01-.55,1.95,1.53,2,3.47.05,2.27.83,8.9-3,8.53.18-3.78.91-7.67,1-12Z" style="fill: #181718;"/>
  <path d="M364.5,751c.65,0,.65,1,0,1s-.65-1,0-1Z" style="fill: #322839;"/>
  <path d="M146.5,663c.65,0,.65,1,0,1s-.65-1,0-1Z" style="fill: #312738;"/>
  <path d="M255.74,593.26c.28.21,3.27,5.02,3.67,5.83,1.95,3.89,3.18,7.47,2.58,11.91-10.04-2.89-20.74.81-30.26,4.24-24.3,8.75-51.87,20.95-72.23,36.77-3.1,2.41-6.09,5.74-8.99,8.01-.71.55-2.62,1.99-3.5,1.49,3.07-4.33,5.4-9.16,8.56-13.44,12.85-17.39,50.3-45.78,70.43-53.57,5.79-2.24,17.59-5.57,23.5-4.51,1.93.35,2.27,1.66,3.59,2.45.79.47,2.01.35,2.63.82Z" style="fill: #312738;"/>
  <path d="M420,712c-.08,2.71.96,4.83,1.05,7.46,1.16,35.7-5.76,72.09-17.31,105.79-2.18,6.35-5.72,12.97-7.78,19.22-4.63,14.05-6.77,26.91-13.1,40.9-1.7,3.76-3.87,8.88-6.86,11.64-3.26,1.06-6.61-6.16-5.98-8.86,12.03-33.59,23.79-67.29,35.26-101.09,3.89-12.69,9.28-31.82,4.53-44-4.02,40.84-19.05,79.12-33.97,117.09l-11.1,33.47c-.92,1.74-2.17,3.2-3.74,4.4-.28.87-.62.86-1,0-.46.05-.9.06-1.32-.06-1.42-.41-5.33-20.18-1.68-21.94-1.18-.02-1.49-.96-1-2-.9-.18-.87-.52,0-1-.75-1.14-1.08-2.48-1-4-4.03-1.5-2.52-8.72,1.74-9.97,3.96-4.94,5.8-9.05,8.1-14.99,7.8-20.17,16.32-43.69,21.16-64.62,1.03-4.46,1.63-16.51-2.61-6.45-6.16,26.16-15.58,52.51-25.25,78.14-5.23,18.17-11.76-10.52-8.14-17.12-1.98-1.42-2.64-3.11-1-5,2.47-1.97,3.6-6.67,4.77-9.73,6.67-17.54,10.62-33.33,15.23-51.27.84-3.25,5.09-8.31,7.48-11.02,13.33-15.2,28.44-24.82,40.56-42.48.89-1.29.68-3.04,2.96-2.49Z" style="fill: #c6c557;"/>
  <path d="M525,796c2.6.55,2.02-1.21,2.71-2.75,2.16-4.83,4.69-9.76,6.23-14.82.47-1.56.49-2.86,2.07-.92l-12.02,39.49c-4.96.31-.02-6.14.53-7.98,1.52-5.07,1.07-6.57.47-11.03-.08-.59-.05-1.39,0-2Z"/>
  <path d="M99.99,961c-1.73.24-.97-2.29-.99-3.49-.24-12.43-.42-25.66-.05-38.05,1.32-44.04,9.91-92.18,17.13-135.87,2.68-16.22,6.33-32.26,9.02-48.47,6.8-1.73,16.32-5.89,21.93.35s2.01,21.21.7,28.77c-6.19,35.58-19.91,69.52-28.5,104.5-4.89,19.94-8.24,40.55-12.48,60.52-2.25,10.59-5.2,21.02-6.76,31.74Z" style="fill: #121710;"/>
  <path d="M116.99,735.02c-1.87,14.64-5.56,29.01-7.9,43.57-7.5,46.79-15.59,96.71-17.14,143.86-.3,9.32.23,18.72.05,28.05-.02,1.2.74,3.73-.99,3.49-.94-11.24-3.66-22.3-5.03-33.47-5.74-46.82-8.8-110.86,1.26-156.79,1.85-8.46,6.63-24.15,12.73-30.27,4.31-4.32,11.86,1.34,17.02,1.55Z" style="fill: #121710;"/>
  <path d="M158,1097c-.56-.85-1.41-2.13-2-3,1.36.02,3.12.59,2.85,2.22l-.85.78Z" style="fill: #040403;"/>
  <path d="M164,1106c.43.18,1.38-.13,2,0l-1,2c-.04-.1-1.49-.77-1-2Z" style="fill: #040403;"/>
  <path d="M376,897c.19.59.01,2.15,0,3-.12,8.29,4.72,17.88,4.87,26.5.01.67-.51,4.72-1.86,4.49l-1.49-7.01-3.51-5.99c-.71-3.32-1.16-6.69-2-10-1.97-.89-3.19-2.54-3.67-4.94-.96,4.02-2.76,7.31-5.41,9.86.58,2.19.27,3.89-.92,5.08.15.93-.14,2.06,0,3-2.27.19-3.59,2.53-6,2-.39-4.31-1.61-8.63-1-13l-1-2c.15-1.61-.23-3.46,0-5l-1-2c.16-1.61-.23-3.46,0-5-.1-1.36-.43-2.7-1-4-.03-1.55-.21-3.58,0-5l-1-2c.8-3.6-1.68-7.66-1-11l-1-2c.98-3.5-1.54-8.03-1-11l-1-2c-.44-6.65-1.9-10.02-3-16-.17-.91.17-2.09,0-3,1.45-6.74-2.14-20.97-5-24-.19-.88.2-2.13,0-3l.48-1.92-5.42-20.16c1.85-6.88,5.21,2.89,6.66,7.22,3.57,10.63,5.89,22.02,7.28,32.86l2,2.99c1.26,6.58,1.44,13.58,3.52,19.99.31.97.15,2.29,1.48,2,.17-2.6,1.08-5.11,1.98-7.52,6.86-18.36,13.48-36.96,19.3-55.7,2.03-6.55,3.7-18.13,6.51-23.49,1.32-2.51,2.37-2.56,5.18-2.26-.15,1.59.84,3.12.97,4.56.37,4.29-1.91,12.2-3.17,16.67-4.1,14.57-10.16,31.31-15.27,45.73-2.69,7.61-6.75,21.22-12.46,26.56-.88.83-2.68,1.36-2.86,1.61-.56.8-.14,5.2-.17,6.84.08,1.42.42,2.75,1,4,.06.32-.05.67,0,1l1,2c.55,3.88.62,8.46,1.09,12.41.25,2.1,2.13,8.36,1.91,9.59.24.57.58.53,1,0,4.79-12.58,8.38-25.85,12.96-38.54,7.03-19.5,15.42-38.63,21.55-58.45s10.54-40.5,12.49-61.01c1.9-.33,3.58,1.75,4.24,3.26,3.82,8.76.39,20.89-1.53,29.95-8.4,39.65-27.02,75.85-38.54,114.54-1.29,3.4,3.13,7.06,3.83,9.26Z" style="fill: #141509;"/>
  <path d="M648,586c.65,1.84-3.07,4.9-3.99,3.99-.65-1.84,3.07-4.9,3.99-3.99Z"/>
  <path d="M527.5,910c.65,0,.65,1,0,1s-.65-1,0-1Z" style="fill: #1b2019;"/>
  <path d="M372,908c-3.82,2.75-4.74,9.02-10,10-.1-.59-.8-1.42-.93-2.52-.65-5.68.98-3.6,1.94-5.14,2.14-3.43,3.51-8.5,5-12.33,1.35-.29,1.11,1.02,1.48,2,.99,2.62,1.83,5.29,2.52,7.99Z" style="fill: #c6c557;"/>
  <path d="M368,1046c-.29-4.26-.64-4,0-9l.72.63c-.61,2.82,1.54,6.15-.72,8.37Z" style="fill: #353834;"/>
  <path d="M368,1017c-.73-4.84-.29-4.22,0-8,1.8,1.88,1.02,5,.83,7.36l-.83.64Z" style="fill: #353834;"/>
  <path d="M368,986h-2c-.71-1.6.97-2.82,1-3l.84.65c.28.77.13,1.56.16,2.35Z" style="fill: #353834;"/>
  <path d="M365,939h-2c-.45-1.34.98-1.88,1-2l.83.59c.16.46.13.93.17,1.41Z" style="fill: #353834;"/>
  <path d="M368,1033l-.93-.63.93-1.37c0,.06.66-.28.93.63.23.75-.92,1.28-.93,1.37Z" style="fill: #353834;"/>
  <path d="M67.5,998c.65,0,.65,1,0,1s-.65-1,0-1Z" style="fill: #131811;"/>
  <path d="M381,563v15h-3c.97-4.27-2.62-14.32,3-15Z" style="fill: #040405;"/>
  <rect x="380.01" y="593" width=".99" height="2.99" style="fill: #040405;"/>
  <path d="M349,829c.34,1.66.68,3.34,1,5-.89.4-4.05-2.34-4.04-2.57.04-.84.97-1.88.92-2.91-.14-2.85-1.55-7.58-2.17-10.72-1.87-9.49-4.72-18.63-7.72-27.79-1.67-.06-2.21-.53-1.96,1.45.38,3.03,1.74,5.85,2.49,8.57.89,3.25,2.03,6.72,2.79,10.16.41,1.87,1.94,3.2-1.31,2.81-.42-1.83-2.01-4.75-2.53-6.97-.66-2.82-3.77-14.84-3.34-16.34.31-1.08,1.62-1.88,2.4-2.68,2.32-.52,5.29,8.01,5.97,10,3.31,9.68,5.46,21.84,7.51,31.99Z" style="fill: #1b2019;"/>
  <path d="M339,816c3.63-.26,2.54-.37,3.1,2.35,1.1,5.34,2.77,11.16,3.65,16.39.27,1.58,1.55,6.03-1.75,5.26-1.52-8.06-3.23-16-5-24Z" style="fill: #1b2019;"/>
  <path d="M352,892h2c.88,1.78-.93,3.55-1,4l-.83-.68c-.34-1.1-.15-2.21-.17-3.32Z" style="fill: #1b2019;"/>
  <path d="M351,885h2c.44,1.33-.98,1.89-1,2l-.83-.59-.17-1.41Z" style="fill: #1b2019;"/>
  <path d="M353,901h2c.44,1.33-.98,1.89-1,2l-.83-.59-.17-1.41Z" style="fill: #1b2019;"/>
  <path d="M354,908h2c.44,1.34-.98,1.89-1,2l-.83-.59-.17-1.41Z" style="fill: #1b2019;"/>
  <path d="M349,872h2c.44,1.34-.97,1.88-1,2l-.83-.59-.17-1.41Z" style="fill: #1b2019;"/>
  <path d="M347,859h2c.44,1.32-.98,1.89-1,2l-.83-.59c-.15-.46-.14-.93-.17-1.41Z" style="fill: #1b2019;"/>
  <path d="M356,873c-3.06-1.61-1.01-3.65-1-4l.83.68c.45,1.05-.02,2.4.17,3.32Z" style="fill: #1b2019;"/>
  <path d="M361,898c-.42,1.11-.17,2.79-1.99,3-.67-1.57.92-2.56.99-3h1Z" style="fill: #1b2019;"/>
  <path d="M357,876h-2s.09-1.39.09-1.39l.91-.61c.02.12.71,0,1,2Z" style="fill: #1b2019;"/>
</svg>